<svg width="148" height="145" viewBox="0 0 148 145" fill="none" xmlns="http://www.w3.org/2000/svg">
<path d="M73.7833 127.201C105.354 127.201 130.947 125.707 130.947 123.864C130.947 122.021 105.354 120.527 73.7833 120.527C42.2126 120.527 16.6195 122.021 16.6195 123.864C16.6195 125.707 42.2126 127.201 73.7833 127.201Z" fill="#F5F5F5"/>
<path d="M103.045 49.3291L100.12 48.1498C100.12 48.1498 96.2609 55.1873 95.1553 55.544C93.6517 56.0275 90.5383 57.3719 88.6927 57.6078C88.4421 57.9026 88.0323 58.8195 88.0706 59.1527C90.5501 59.9812 95.9985 58.8815 97.166 58.0147C99.8224 56.0482 103.045 49.3291 103.045 49.3291Z" fill="#E58A7B"/>
<path d="M103.944 47.7282C104.49 49.7419 101.535 53.7928 101.535 53.7928L97.6643 51.6228C97.6643 51.6228 98.3896 49.9571 99.2741 48.2618C100.692 45.5229 103.322 45.4315 103.944 47.7282Z" fill="#FF3333"/>
<path opacity="0.2" d="M103.944 47.7282C104.49 49.7419 101.535 53.7928 101.535 53.7928L97.6643 51.6228C97.6643 51.6228 98.3896 49.9571 99.2741 48.2618C100.692 45.5229 103.322 45.4315 103.944 47.7282Z" fill="black"/>
<path opacity="0.2" d="M99.2003 52.4895L100.725 53.3445L100.993 48.6656C100.105 49.3467 99.4804 51.3987 99.2003 52.4895Z" fill="black"/>
<path d="M101.397 46.2128C101.397 46.2128 98.3837 52.9171 100.141 65.4H112.013C112.202 63.578 111.577 54.6861 113.838 46.1007C112.536 45.8462 111.218 45.6778 109.894 45.5966C108.214 45.4992 106.529 45.4992 104.849 45.5966C103.685 45.7148 102.53 45.9208 101.397 46.2128Z" fill="#FF3333"/>
<path opacity="0.2" d="M101.397 46.2128C101.397 46.2128 98.3837 52.9171 100.141 65.4H112.013C112.202 63.578 111.577 54.6861 113.838 46.1007C112.536 45.8462 111.218 45.6778 109.894 45.5966C108.214 45.4992 106.529 45.4992 104.849 45.5966C103.685 45.7148 102.53 45.9208 101.397 46.2128Z" fill="black"/>
<g style="mix-blend-mode:multiply">
<path d="M98.6431 124.129C98.6254 124.448 103.127 124.704 108.697 124.704C114.266 124.704 118.8 124.448 118.818 124.129C118.836 123.811 114.337 123.557 108.764 123.557C103.192 123.557 98.6638 123.814 98.6431 124.129Z" fill="#E8ECF1"/>
</g>
<path d="M106.568 115.763L104.462 116.578L106.276 121.264L108.382 120.449L106.568 115.763Z" fill="#E58A7B"/>
<path d="M115.958 121.862H113.738L112.924 116.723H115.144L115.958 121.862Z" fill="#E58A7B"/>
<path d="M113.585 121.606H116.079C116.122 121.606 116.164 121.621 116.197 121.649C116.23 121.677 116.252 121.716 116.259 121.759L116.58 123.731C116.587 123.781 116.583 123.831 116.569 123.879C116.554 123.927 116.53 123.971 116.497 124.009C116.464 124.046 116.423 124.076 116.378 124.096C116.332 124.117 116.282 124.127 116.233 124.126C115.363 124.112 114.944 124.059 113.847 124.059C113.172 124.059 111.784 124.129 110.846 124.129C109.908 124.129 109.847 123.21 110.233 123.124C111.966 122.75 112.639 122.24 113.216 121.744C113.318 121.655 113.449 121.606 113.585 121.606Z" fill="#263238"/>
<path d="M106.214 120.845L108.573 120.155C108.615 120.143 108.66 120.146 108.7 120.163C108.74 120.18 108.773 120.211 108.794 120.249L109.678 122.018C109.699 122.063 109.709 122.112 109.709 122.161C109.709 122.211 109.698 122.26 109.677 122.304C109.656 122.349 109.625 122.388 109.587 122.42C109.549 122.452 109.505 122.475 109.457 122.487C108.599 122.723 108.024 122.868 106.951 123.18C106.211 123.395 105.456 123.746 104.725 123.979C104.218 124.141 103.027 124.147 102.411 124.147C101.5 124.147 101.296 123.186 101.689 123.142C102.676 123.033 102.809 123.083 103.354 122.809C104.247 122.418 105.056 121.86 105.737 121.163C105.865 121.017 106.03 120.907 106.214 120.845Z" fill="#263238"/>
<path d="M89.0642 57.5959L86.623 56.5729L85.6177 59.2794C86.6182 59.4318 87.6361 59.4318 88.6367 59.2794L89.0642 57.5959Z" fill="#E58A7B"/>
<path d="M84.8069 56.5022L84.7421 58.3006L85.6177 59.2736L86.623 56.5671L84.8069 56.5022Z" fill="#E58A7B"/>
<path d="M106.857 116.161L104.745 116.976L105.68 119.4L107.793 118.584L106.857 116.161Z" fill="#CF6F64"/>
<path d="M115.144 116.723H112.924L113.346 119.374H115.566L115.144 116.723Z" fill="#CF6F64"/>
<path opacity="0.2" d="M99.7634 62.0243C99.8077 62.5579 99.8578 63.1033 99.9226 63.6635L108.75 60.7978C110.128 60.3893 111.326 59.523 112.146 58.3419C112.182 57.5547 112.226 56.7262 112.294 55.8624C112.323 55.4438 112.358 55.0133 112.397 54.577C112.435 54.1406 112.488 53.6571 112.544 53.1913L99.7634 62.0243Z" fill="black"/>
<path d="M102.647 52.354L102.352 52.3186C102.526 50.8445 103.626 49.6829 104.784 49.7123V50.0072C103.77 49.9865 102.803 51.0332 102.647 52.354Z" fill="white"/>
<path d="M104.218 55.0752H104.168V54.7804C105.182 54.8187 106.135 53.7603 106.291 52.4424L106.586 52.4778C106.43 53.9195 105.365 55.0752 104.218 55.0752Z" fill="white"/>
<path d="M109.729 39.9153C109.313 41.5398 108.823 44.5146 109.894 45.5966C109.894 45.5966 109.145 47.2447 106.129 47.2447C103.372 47.2447 104.849 45.5966 104.849 45.5966C106.683 45.1661 106.715 43.8276 106.474 42.5599L109.729 39.9153Z" fill="#E58A7B"/>
<path d="M108.402 40.9944L106.477 42.5599C106.536 42.8512 106.571 43.1472 106.58 43.4444C107.143 44.0046 108.272 42.5864 108.387 41.8612C108.446 41.5756 108.451 41.2817 108.402 40.9944Z" fill="#CF6F64"/>
<path d="M103.166 39.8946C103.3 40.1268 103.48 40.3288 103.696 40.4881C103.911 40.6474 104.157 40.7605 104.419 40.8203C105.126 40.9766 105.48 40.325 105.286 39.6705C105.112 39.0809 104.531 38.2878 103.811 38.4234C103.657 38.4552 103.513 38.5234 103.391 38.6223C103.268 38.7213 103.172 38.8481 103.108 38.9921C103.045 39.1362 103.017 39.2933 103.027 39.4503C103.037 39.6074 103.085 39.7597 103.166 39.8946Z" fill="#CF6F64"/>
<path d="M104.336 34.6968C103.234 35.2009 102.844 39.5821 104.23 40.2307C105.616 40.8793 106.424 33.7386 104.336 34.6968Z" fill="#263238"/>
<path d="M110.065 37.4712C109.799 39.6706 109.77 40.9649 108.591 42.0911C108.225 42.4648 107.764 42.7303 107.257 42.8582C106.75 42.9861 106.218 42.9715 105.719 42.8159C105.22 42.6604 104.773 42.3699 104.429 41.9767C104.085 41.5834 103.856 41.1027 103.767 40.5875C103.41 38.6122 103.903 35.3484 106.108 34.4728C106.571 34.2684 107.081 34.1917 107.584 34.2506C108.087 34.3095 108.565 34.5018 108.969 34.8077C109.372 35.1136 109.687 35.5218 109.88 35.9901C110.072 36.4585 110.136 36.9698 110.065 37.4712Z" fill="#E58A7B"/>
<path d="M106.441 35.8349C108.075 35.4192 109.274 35.1362 108.844 36.4953C108.275 38.3115 107.591 40.0686 108.508 40.1482C109.068 40.1983 111.545 39.1488 111.229 38.0844C110.955 37.1587 112.114 36.9051 112.32 36.4364C113.084 34.7382 110.899 34.9622 111.288 33.9303C111.677 32.8984 109.519 31.2356 108.34 32.0641C106.421 33.4026 103.127 33.382 104.858 31.1796C106.099 29.6082 103.885 29.9295 103.885 29.9295C103.885 29.9295 105.224 30.7226 102.971 31.9491C100.589 33.2581 102.774 36.7754 106.441 35.8349Z" fill="#263238"/>
<path d="M110.931 39.8946C110.609 40.3612 110.124 40.6911 109.572 40.8203C108.844 40.9766 108.564 40.325 108.838 39.6705C109.083 39.0809 109.755 38.2878 110.451 38.4234C111.147 38.559 111.306 39.3167 110.931 39.8946Z" fill="#E58A7B"/>
<path d="M100.141 65.4C100.141 65.4 98.1477 83.237 97.9915 90.0062C97.8323 97.0467 104.746 119.014 104.746 119.014L108.284 117.54C108.284 117.54 104.156 97.4683 104.746 90.5546C105.371 83.0159 107.954 65.4118 107.954 65.4118L100.141 65.4Z" fill="#FF3333"/>
<path opacity="0.2" d="M105.094 70.2971C103.505 73.5933 104.575 80.1119 105.436 83.9741C105.763 81.2469 106.152 78.2869 106.521 75.548C106.486 71.3378 106.158 68.0859 105.094 70.2971Z" fill="black"/>
<path d="M108.128 116.373C108.145 116.373 108.546 117.499 108.546 117.499L104.466 119.215L103.823 118.018L108.128 116.373Z" fill="#FF3333"/>
<path d="M104.354 65.4C104.354 65.4 105.878 82.3643 106.886 88.7178C107.995 95.6787 112.341 118.861 112.341 118.861H116.406C116.406 118.861 113.971 96.2418 113.511 89.3488C113.01 81.872 112.013 65.4 112.013 65.4H104.354Z" fill="#FF3333"/>
<path d="M116.468 117.802C116.486 117.802 116.604 118.938 116.604 118.938H112.134L111.816 117.634L116.468 117.802Z" fill="#FF3333"/>
<path opacity="0.2" d="M114.912 116.458C114.902 116.458 114.893 116.455 114.886 116.449C114.879 116.443 114.875 116.435 114.873 116.426C114.85 116.219 112.653 95.7878 112.241 89.5965C111.792 82.8803 110.89 67.9828 110.881 67.8324C110.881 67.8275 110.882 67.8226 110.883 67.818C110.885 67.8133 110.887 67.8091 110.891 67.8054C110.894 67.8018 110.898 67.799 110.902 67.797C110.907 67.7951 110.912 67.7941 110.917 67.7941C110.926 67.794 110.936 67.7977 110.943 67.8042C110.95 67.8108 110.954 67.8198 110.955 67.8294C110.955 67.9798 111.866 82.8656 112.314 89.5935C112.727 95.7849 114.923 116.202 114.944 116.423C114.945 116.428 114.945 116.433 114.943 116.437C114.942 116.442 114.94 116.447 114.937 116.451C114.934 116.454 114.93 116.458 114.926 116.46C114.921 116.462 114.917 116.464 114.912 116.464V116.458Z" fill="black"/>
<path d="M106.692 38.0844C106.692 38.2643 106.58 38.4087 106.462 38.4087C106.344 38.4087 106.258 38.2643 106.27 38.0844C106.282 37.9046 106.382 37.7601 106.5 37.7601C106.618 37.7601 106.704 37.9075 106.692 38.0844Z" fill="#263238"/>
<path d="M104.669 38.0844C104.669 38.2643 104.554 38.4087 104.439 38.4087C104.324 38.4087 104.236 38.2643 104.245 38.0844C104.254 37.9046 104.36 37.7601 104.478 37.7601C104.596 37.7601 104.681 37.9075 104.669 38.0844Z" fill="#263238"/>
<path d="M105.306 38.1758C105.06 38.725 104.743 39.2394 104.363 39.7059C104.658 40.0008 105.209 39.8651 105.209 39.8651L105.306 38.1758Z" fill="#DF5753"/>
<path d="M105.359 40.617C105.352 40.617 105.346 40.6156 105.339 40.6129C105.333 40.6102 105.327 40.6063 105.323 40.6013C105.318 40.5963 105.314 40.5904 105.312 40.584C105.31 40.5776 105.309 40.5707 105.309 40.5639C105.31 40.5496 105.316 40.5361 105.327 40.5262C105.337 40.5163 105.351 40.5108 105.365 40.5109C105.591 40.5124 105.814 40.4634 106.018 40.3675C106.222 40.2716 106.402 40.1312 106.544 39.9566C106.555 39.9477 106.568 39.9427 106.581 39.9427C106.595 39.9427 106.608 39.9477 106.618 39.9566C106.628 39.9665 106.633 39.9797 106.633 39.9934C106.633 40.0072 106.628 40.0204 106.618 40.0303C106.465 40.2159 106.273 40.3649 106.055 40.4664C105.837 40.5679 105.6 40.6194 105.359 40.617Z" fill="#263238"/>
<path d="M107.052 37.5419C107.037 37.5491 107.022 37.5529 107.006 37.5529C106.99 37.5529 106.974 37.5491 106.96 37.5419C106.85 37.4706 106.724 37.4262 106.594 37.4124C106.463 37.3986 106.331 37.4157 106.208 37.4623C106.196 37.4683 106.183 37.4718 106.17 37.4727C106.157 37.4735 106.143 37.4717 106.131 37.4673C106.118 37.4629 106.106 37.456 106.096 37.4471C106.086 37.4381 106.078 37.4272 106.073 37.4151C106.062 37.3889 106.062 37.3594 106.072 37.333C106.082 37.3065 106.103 37.2852 106.129 37.2736C106.283 37.2106 106.45 37.1858 106.616 37.2012C106.782 37.2166 106.941 37.2718 107.081 37.362C107.092 37.3697 107.102 37.3796 107.109 37.391C107.117 37.4025 107.122 37.4153 107.125 37.4287C107.127 37.4422 107.127 37.456 107.124 37.4693C107.121 37.4827 107.115 37.4953 107.108 37.5065C107.093 37.5234 107.073 37.5357 107.052 37.5419Z" fill="#263238"/>
<path d="M103.888 36.9522C103.872 36.9484 103.858 36.9402 103.847 36.9286C103.837 36.919 103.829 36.9076 103.824 36.8949C103.819 36.8822 103.816 36.8687 103.816 36.8549C103.816 36.8412 103.819 36.8276 103.824 36.815C103.829 36.8023 103.837 36.7908 103.847 36.7812C103.96 36.6545 104.1 36.5556 104.258 36.4921C104.416 36.4287 104.586 36.4025 104.755 36.4156C104.768 36.4177 104.781 36.4226 104.793 36.4299C104.805 36.4372 104.815 36.4468 104.822 36.4582C104.83 36.4695 104.835 36.4823 104.838 36.4958C104.841 36.5093 104.84 36.5231 104.837 36.5365C104.831 36.5638 104.815 36.5879 104.792 36.6042C104.769 36.6204 104.741 36.6278 104.714 36.625C104.58 36.6165 104.445 36.6387 104.321 36.6898C104.197 36.7408 104.086 36.8195 103.997 36.9198C103.984 36.9347 103.966 36.9456 103.947 36.9514C103.928 36.9571 103.907 36.9574 103.888 36.9522Z" fill="#263238"/>
<path d="M114.979 49.0017L111.913 48.1851C111.913 48.1851 108.906 55.5881 107.842 56.0687C106.397 56.7291 102.738 59.017 101.182 60.099C101.096 60.4675 101.164 61.4434 101.359 61.7117C104.012 61.2282 109.092 59.2735 110.153 58.2799C112.574 56.0127 114.979 49.0017 114.979 49.0017Z" fill="#E58A7B"/>
<path d="M112.839 121.995C112.689 122.007 112.54 121.966 112.417 121.88C112.379 121.846 112.351 121.802 112.335 121.753C112.319 121.705 112.316 121.653 112.326 121.603C112.328 121.571 112.338 121.541 112.356 121.515C112.373 121.489 112.398 121.469 112.426 121.455C112.674 121.329 113.367 121.768 113.446 121.818C113.455 121.823 113.462 121.831 113.466 121.841C113.469 121.851 113.47 121.861 113.467 121.871C113.464 121.881 113.459 121.891 113.452 121.899C113.445 121.906 113.436 121.912 113.426 121.915C113.234 121.963 113.037 121.989 112.839 121.995ZM112.544 121.535C112.522 121.53 112.499 121.53 112.476 121.535C112.465 121.541 112.456 121.55 112.449 121.561C112.443 121.572 112.44 121.584 112.441 121.597C112.433 121.631 112.434 121.667 112.445 121.701C112.455 121.734 112.474 121.765 112.5 121.789C112.615 121.892 112.904 121.903 113.284 121.83C113.058 121.681 112.803 121.58 112.535 121.535H112.544Z" fill="#FF3333"/>
<path d="M113.411 121.915C113.403 121.918 113.395 121.918 113.387 121.915C113.166 121.791 112.751 121.305 112.812 121.057C112.822 121.018 112.844 120.983 112.875 120.958C112.907 120.933 112.946 120.919 112.986 120.919C113.026 120.913 113.066 120.917 113.104 120.928C113.143 120.94 113.178 120.96 113.208 120.987C113.452 121.196 113.467 121.839 113.467 121.871C113.468 121.881 113.467 121.891 113.462 121.899C113.457 121.908 113.449 121.914 113.44 121.918C113.431 121.92 113.42 121.919 113.411 121.915ZM113.016 121.016H112.995C112.927 121.016 112.919 121.054 112.916 121.069C112.88 121.214 113.143 121.582 113.361 121.756C113.36 121.507 113.283 121.264 113.14 121.06C113.106 121.03 113.061 121.015 113.016 121.016Z" fill="#FF3333"/>
<path d="M105.011 121.626C104.831 121.689 104.635 121.689 104.454 121.626C104.413 121.604 104.378 121.572 104.353 121.533C104.328 121.494 104.313 121.449 104.31 121.402C104.306 121.373 104.31 121.343 104.32 121.316C104.331 121.289 104.349 121.265 104.372 121.246C104.607 121.034 105.571 121.246 105.681 121.287C105.691 121.29 105.7 121.296 105.707 121.305C105.713 121.313 105.716 121.324 105.716 121.334C105.716 121.345 105.714 121.356 105.708 121.366C105.702 121.375 105.694 121.383 105.684 121.387C105.466 121.485 105.242 121.565 105.011 121.626ZM104.531 121.275C104.497 121.282 104.466 121.297 104.439 121.32C104.43 121.327 104.423 121.336 104.419 121.347C104.414 121.358 104.413 121.37 104.416 121.382C104.418 121.413 104.427 121.442 104.444 121.469C104.46 121.495 104.483 121.517 104.51 121.532C104.666 121.614 105.029 121.55 105.498 121.352C105.182 121.272 104.855 121.247 104.531 121.275Z" fill="#FF3333"/>
<path d="M105.675 121.387H105.651C105.356 121.334 104.767 120.995 104.749 120.742C104.749 120.683 104.775 120.6 104.917 120.553C104.965 120.536 105.016 120.529 105.066 120.532C105.117 120.535 105.166 120.548 105.212 120.571C105.53 120.727 105.698 121.293 105.707 121.32C105.709 121.329 105.709 121.338 105.706 121.347C105.704 121.355 105.699 121.363 105.692 121.37C105.688 121.377 105.682 121.383 105.675 121.387ZM104.976 120.642H104.946C104.855 120.674 104.855 120.712 104.855 120.724C104.855 120.877 105.283 121.158 105.58 121.252C105.512 121.015 105.367 120.808 105.168 120.662C105.108 120.632 105.04 120.625 104.976 120.642Z" fill="#FF3333"/>
<path d="M101.432 59.925L98.3571 61.3402L98.0004 62.2247L99.1354 62.9883C99.1354 62.9883 101.258 62.7583 101.863 61.3933L101.432 59.925Z" fill="#E58A7B"/>
<path d="M101.562 61.7618C101.493 61.171 101.298 60.6019 100.99 60.0931L101.476 59.7275C101.842 60.3137 102.076 60.9728 102.16 61.6587L101.562 61.7618Z" fill="#263238"/>
<path d="M102.087 60.3437C102.152 60.446 102.184 60.5658 102.178 60.6868C102.173 60.8079 102.13 60.9243 102.056 61.0202C101.982 61.1162 101.88 61.187 101.765 61.2231C101.649 61.2591 101.525 61.2587 101.41 61.2218C101.294 61.1849 101.193 61.1133 101.12 61.0169C101.046 60.9204 101.004 60.8037 101 60.6826C100.995 60.5615 101.028 60.442 101.094 60.3402C101.159 60.2384 101.255 60.1594 101.367 60.1138C101.493 60.0496 101.64 60.0377 101.774 60.0808C101.909 60.1238 102.021 60.2183 102.087 60.3437Z" fill="#263238"/>
<path d="M96.2786 62.4841L96.6884 62.8969L99.4479 61.7176L98.3571 61.3402L96.2786 62.4841Z" fill="#E58A7B"/>
<path opacity="0.2" d="M108.128 116.373C108.145 116.373 108.546 117.499 108.546 117.499L104.466 119.215L103.823 118.018L108.128 116.373Z" fill="black"/>
<path opacity="0.2" d="M116.468 117.802C116.486 117.802 116.604 118.938 116.604 118.938H112.134L111.816 117.634L116.468 117.802Z" fill="black"/>
<path d="M115.778 48.1527C116.589 50.7678 113.42 54.344 113.42 54.344L109.042 52.5574C109.561 51.0459 110.159 49.5628 110.834 48.1144C112.179 45.2162 114.959 45.514 115.778 48.1527Z" fill="#FF3333"/>
<path opacity="0.2" d="M115.778 48.1527C116.589 50.7678 113.42 54.344 113.42 54.344L109.042 52.5574C109.561 51.0459 110.159 49.5628 110.834 48.1144C112.179 45.2162 114.959 45.514 115.778 48.1527Z" fill="black"/>
<path d="M72.2738 21.9515H70.3899V22.2552H72.2738V21.9515Z" fill="#FF3333"/>
<path d="M96.6614 33.9705L96.4333 39.0305L96.7367 39.0442L96.9647 33.9842L96.6614 33.9705Z" fill="#FF3333"/>
<path d="M96.0751 23.3136H61.2857L58.0485 95.7583H92.8379L96.0751 23.3136Z" fill="#FF3333"/>
<path opacity="0.56" d="M95.0374 24.3101H60.2479L57.0107 96.7547H91.8002L95.0374 24.3101Z" fill="#FAFAFA"/>
<path opacity="0.07" d="M93.9996 25.3037H59.2101L55.97 97.7484H90.7594L93.9996 25.3037Z" fill="#FF3333"/>
<path d="M90.0401 56.9001H60.3452L60.0975 62.4429H89.7924L90.0401 56.9001Z" fill="white"/>
<path d="M76.6757 52.8552H60.5251L60.416 55.3347H76.5666L76.6757 52.8552Z" fill="#FF3333"/>
<path d="M89.3709 71.8596H59.676L59.4283 77.4023H89.1232L89.3709 71.8596Z" fill="white"/>
<path opacity="0.47" d="M83.9254 84.8881H63.9568L63.6591 91.5305H83.6276L83.9254 84.8881Z" fill="#FF3333"/>
<path d="M82.5898 92.5623H62.6213C62.6126 92.5646 62.6034 92.5646 62.5947 92.5623C62.5918 92.5537 62.5918 92.5444 62.5947 92.5358L62.8895 85.8904C62.8895 85.8859 62.8905 85.8814 62.8923 85.8773C62.8941 85.8731 62.8967 85.8694 62.9001 85.8664C62.9034 85.8633 62.9073 85.861 62.9116 85.8596C62.9159 85.8581 62.9204 85.8576 62.9249 85.858H82.8935C82.8972 85.8562 82.9012 85.8552 82.9053 85.8552C82.9094 85.8552 82.9134 85.8562 82.9171 85.858C82.9192 85.8616 82.9202 85.8656 82.9202 85.8698C82.9202 85.8739 82.9192 85.878 82.9171 85.8816L82.6282 92.5417C82.6246 92.5486 82.619 92.5543 82.6122 92.558C82.6054 92.5617 82.5976 92.5632 82.5898 92.5623ZM62.6566 92.4916H82.5544L82.8493 85.917H62.9515L62.6566 92.4916Z" fill="white"/>
<path d="M73.1878 67.8146H59.8558L59.7467 70.297H73.0758L73.1878 67.8146Z" fill="#FF3333"/>
<path d="M83.545 38.9954C83.4688 40.6085 82.8952 42.1585 81.9029 43.4325C81.1683 44.3949 80.223 45.1762 79.1395 45.7164C78.056 46.2566 76.8632 46.5413 75.6525 46.5489C74.6742 46.5563 73.7047 46.3634 72.8038 45.982C71.9028 45.6006 71.0895 45.0387 70.4139 44.3311C69.7383 43.6235 69.2147 42.785 68.8754 41.8674C68.5362 40.9497 68.3883 39.9723 68.4411 38.9954C68.5448 36.9682 69.419 35.0572 70.885 33.6531C72.3509 32.2491 74.2979 31.4581 76.3277 31.442C77.3068 31.4328 78.2773 31.6246 79.1793 32.0053C80.0814 32.3861 80.8958 32.9478 81.5722 33.6557C82.2486 34.3636 82.7726 35.2027 83.112 36.1211C83.4513 37.0395 83.5987 38.0178 83.545 38.9954Z" fill="white"/>
<path d="M84.2556 33.0222C84.2363 33.4512 84.0838 33.8634 83.8192 34.2015C83.6235 34.4571 83.3719 34.6646 83.0837 34.8082C82.7955 34.9518 82.4784 35.0277 82.1564 35.03C81.8445 35.0319 81.5368 34.9574 81.2603 34.813C80.9838 34.6685 80.7469 34.4586 80.5702 34.2015C80.3363 33.8541 80.2205 33.4406 80.24 33.0222C80.2685 32.484 80.5013 31.9769 80.8908 31.6044C81.2803 31.2318 81.7973 31.0219 82.3363 31.0174C82.5963 31.015 82.854 31.0659 83.0936 31.167C83.3332 31.268 83.5496 31.417 83.7294 31.6048C83.9092 31.7927 84.0487 32.0153 84.1391 32.2591C84.2296 32.5029 84.2693 32.7626 84.2556 33.0222Z" fill="#FF3333"/>
<path d="M63.5441 59.6715C63.5299 59.9091 63.4262 60.1324 63.2539 60.2966C63.0816 60.4607 62.8534 60.5534 62.6154 60.556C62.5005 60.5573 62.3865 60.5351 62.2805 60.4907C62.1746 60.4463 62.0788 60.3806 61.9992 60.2977C61.9197 60.2148 61.8579 60.1164 61.8179 60.0087C61.7778 59.901 61.7602 59.7863 61.7663 59.6715C61.7791 59.4334 61.8824 59.2092 62.055 59.0448C62.2276 58.8804 62.4566 58.7882 62.695 58.787C62.8098 58.7861 62.9236 58.8086 63.0293 58.8532C63.1351 58.8977 63.2307 58.9634 63.3102 59.0462C63.3897 59.1291 63.4514 59.2272 63.4917 59.3347C63.5319 59.4422 63.5497 59.5568 63.5441 59.6715Z" fill="#263238"/>
<path d="M67.5183 59.6715C67.5049 59.9093 67.4014 60.1331 67.2289 60.2974C67.0564 60.4617 66.8278 60.5541 66.5896 60.556C66.475 60.557 66.3613 60.5345 66.2557 60.4898C66.1501 60.4452 66.0547 60.3795 65.9754 60.2966C65.8961 60.2138 65.8347 60.1156 65.7948 60.0081C65.7549 59.9006 65.7374 59.786 65.7435 59.6715C65.7562 59.434 65.8591 59.2102 66.0311 59.0459C66.2031 58.8815 66.4313 58.789 66.6692 58.787C66.7841 58.7857 66.8981 58.8079 67.0041 58.8523C67.1101 58.8967 67.2058 58.9624 67.2854 59.0453C67.365 59.1282 67.4267 59.2266 67.4668 59.3343C67.5068 59.442 67.5244 59.5568 67.5183 59.6715Z" fill="#263238"/>
<path d="M71.4956 59.6715C71.4821 59.9093 71.3786 60.1331 71.2061 60.2974C71.0337 60.4617 70.8051 60.5541 70.5669 60.556C70.4521 60.5569 70.3383 60.5344 70.2326 60.4899C70.1268 60.4453 70.0312 60.3796 69.9517 60.2968C69.8722 60.214 69.8105 60.1158 69.7703 60.0083C69.73 59.9008 69.7122 59.7862 69.7178 59.6715C69.7313 59.4337 69.8348 59.2099 70.0073 59.0457C70.1798 58.8814 70.4083 58.7889 70.6465 58.787C70.7614 58.7857 70.8754 58.8079 70.9814 58.8523C71.0873 58.8967 71.1831 58.9624 71.2627 59.0453C71.3423 59.1282 71.404 59.2266 71.4441 59.3343C71.4841 59.442 71.5017 59.5568 71.4956 59.6715Z" fill="#263238"/>
<path d="M62.8748 74.631C62.8606 74.8685 62.7569 75.0919 62.5846 75.2561C62.4122 75.4202 62.184 75.5129 61.9461 75.5154C61.8313 75.5164 61.7175 75.4939 61.6117 75.4493C61.5059 75.4047 61.4104 75.339 61.3309 75.2562C61.2514 75.1734 61.1896 75.0752 61.1494 74.9677C61.1092 74.8602 61.0913 74.7456 61.097 74.631C61.1104 74.3931 61.2139 74.1694 61.3864 74.0051C61.5589 73.8408 61.7875 73.7484 62.0257 73.7465C62.1404 73.7455 62.2542 73.7681 62.36 73.8126C62.4658 73.8572 62.5614 73.9229 62.6408 74.0057C62.7203 74.0885 62.7821 74.1867 62.8223 74.2942C62.8625 74.4017 62.8804 74.5163 62.8748 74.631Z" fill="#263238"/>
<path d="M66.8491 74.631C66.8357 74.8683 66.7326 75.0916 66.5608 75.2558C66.3889 75.42 66.1611 75.5128 65.9234 75.5154C65.8085 75.5168 65.6945 75.4946 65.5885 75.4502C65.4825 75.4057 65.3868 75.3401 65.3072 75.2572C65.2276 75.1743 65.1659 75.0759 65.1258 74.9682C65.0858 74.8605 65.0682 74.7457 65.0743 74.631C65.0878 74.3931 65.1913 74.1694 65.3637 74.0051C65.5362 73.8408 65.7648 73.7484 66.003 73.7465C66.1176 73.7455 66.2313 73.768 66.3369 73.8126C66.4426 73.8573 66.5379 73.923 66.6172 74.0059C66.6965 74.0887 66.7579 74.1869 66.7978 74.2944C66.8377 74.4019 66.8552 74.5165 66.8491 74.631Z" fill="#263238"/>
<path d="M70.8352 74.631C70.8217 74.8688 70.7182 75.0926 70.5457 75.2569C70.3732 75.4212 70.1447 75.5136 69.9065 75.5155C69.7918 75.516 69.6782 75.4932 69.5727 75.4485C69.4671 75.4038 69.3717 75.338 69.2923 75.2553C69.2129 75.1726 69.1511 75.0746 69.1107 74.9673C69.0703 74.86 69.0522 74.7455 69.0574 74.631C69.0715 74.3934 69.1753 74.1701 69.3476 74.0059C69.5199 73.8418 69.7481 73.7491 69.9861 73.7465C70.101 73.7452 70.215 73.7674 70.3209 73.8118C70.4269 73.8562 70.5227 73.9219 70.6023 74.0048C70.6818 74.0877 70.7436 74.1861 70.7836 74.2938C70.8237 74.4015 70.8412 74.5162 70.8352 74.631Z" fill="#263238"/>
<path d="M74.8035 74.631C74.7893 74.8685 74.6856 75.0919 74.5132 75.2561C74.3409 75.4202 74.1127 75.5129 73.8747 75.5154C73.7601 75.516 73.6465 75.4932 73.5409 75.4484C73.4353 75.4037 73.3399 75.338 73.2605 75.2553C73.1811 75.1726 73.1194 75.0746 73.079 74.9672C73.0386 74.8599 73.0205 74.7455 73.0256 74.631C73.0398 74.3934 73.1435 74.17 73.3159 74.0059C73.4882 73.8417 73.7164 73.7491 73.9544 73.7465C74.0691 73.7455 74.1829 73.7681 74.2887 73.8126C74.3945 73.8572 74.49 73.9229 74.5695 74.0057C74.649 74.0885 74.7108 74.1867 74.751 74.2942C74.7912 74.4017 74.8091 74.5163 74.8035 74.631Z" fill="#263238"/>
<path d="M78.7954 74.631C78.7813 74.8685 78.6776 75.0919 78.5052 75.2561C78.3329 75.4202 78.1047 75.5129 77.8667 75.5154C77.7518 75.5168 77.6379 75.4946 77.5319 75.4502C77.4259 75.4057 77.3302 75.3401 77.2506 75.2572C77.171 75.1743 77.1093 75.0759 77.0692 74.9682C77.0291 74.8605 77.0116 74.7457 77.0176 74.631C77.0311 74.3931 77.1346 74.1694 77.3071 74.0051C77.4796 73.8408 77.7082 73.7484 77.9463 73.7465C78.0611 73.7455 78.1749 73.7681 78.2807 73.8126C78.3865 73.8572 78.482 73.9229 78.5615 74.0057C78.641 74.0885 78.7028 74.1867 78.743 74.2942C78.7832 74.4017 78.8011 74.5163 78.7954 74.631Z" fill="#263238"/>
<path d="M78.1921 38.6019C79.4261 37.3952 79.4916 35.4609 78.3383 34.2817C77.1851 33.1024 75.2499 33.1246 74.0159 34.3314C72.7819 35.5381 72.7164 37.4724 73.8696 38.6517C75.0228 39.8309 76.9581 39.8087 78.1921 38.6019Z" fill="#FF3333"/>
<path d="M81.9029 43.4325C81.1683 44.3948 80.223 45.1761 79.1395 45.7163C78.0561 46.2565 76.8632 46.5413 75.6526 46.5488C74.4786 46.5587 73.3202 46.2797 72.2796 45.7362C71.2389 45.1927 70.348 44.4016 69.6853 43.4325C71.1182 42.0055 73.3854 41.0739 75.8973 41.0739C78.4092 41.0739 80.5968 42.0055 81.9029 43.4325Z" fill="#FF3333"/>
<path opacity="0.1" d="M78.1921 38.6019C79.4261 37.3952 79.4916 35.4609 78.3383 34.2817C77.1851 33.1024 75.2499 33.1246 74.0159 34.3314C72.7819 35.5381 72.7164 37.4724 73.8696 38.6517C75.0228 39.8309 76.9581 39.8087 78.1921 38.6019Z" fill="white"/>
<path opacity="0.1" d="M81.9029 43.4325C81.1683 44.3948 80.223 45.1761 79.1395 45.7163C78.0561 46.2565 76.8632 46.5413 75.6526 46.5488C74.4786 46.5587 73.3202 46.2797 72.2796 45.7362C71.2389 45.1927 70.348 44.4016 69.6853 43.4325C71.1182 42.0055 73.3854 41.0739 75.8973 41.0739C78.4092 41.0739 80.5968 42.0055 81.9029 43.4325Z" fill="white"/>
<path d="M38.5251 63.7784C38.245 64.3916 37.9502 65.0668 37.6937 65.7213C37.4372 66.3758 37.1748 67.051 36.9478 67.7232C36.4843 69.0479 36.1312 70.4088 35.8923 71.7918L35.8275 72.2252C35.8213 72.2995 35.8283 72.3744 35.8481 72.4463C35.9177 72.6906 36.0273 72.9218 36.1724 73.1303C36.551 73.67 36.9902 74.1646 37.4814 74.6044C37.9993 75.0861 38.5426 75.5398 39.1089 75.9636C39.6749 76.3999 40.2705 76.8244 40.8572 77.2254L40.3059 78.2603C38.9049 77.6498 37.5752 76.8876 36.3405 75.9871C35.6817 75.5067 35.0872 74.944 34.5715 74.3125C34.2658 73.9367 34.0274 73.5107 33.8669 73.0536C33.7735 72.7681 33.7258 72.4696 33.7253 72.1691C33.7253 72.0984 33.7253 71.9952 33.7253 71.9451V71.8006L33.7548 71.5058C33.9238 69.9697 34.2468 68.4546 34.7189 66.9832C34.9489 66.2579 35.1936 65.5356 35.4737 64.8309C35.7537 64.1263 36.0427 63.4364 36.3994 62.72L38.5251 63.7784Z" fill="#E58A7B"/>
<path d="M40.4414 77.0427L42.5259 75.9872L41.9863 78.275C41.9863 78.275 40.5564 78.676 39.8931 77.9802L40.4414 77.0427Z" fill="#E58A7B"/>
<path d="M44.4334 76.3616L43.8791 78.2544L41.9863 78.275L42.5259 75.9872L44.4334 76.3616Z" fill="#E58A7B"/>
<path d="M47.3758 52.7401C47.4873 53.1487 47.6424 53.5441 47.8386 53.9194C47.7813 53.9844 47.7075 54.0327 47.625 54.0592C47.5425 54.0857 47.4543 54.0893 47.3699 54.0698L47.3758 52.7401Z" fill="#DF5753"/>
<path d="M47.3139 52.7578C47.436 52.7578 47.535 52.606 47.535 52.4188C47.535 52.2315 47.436 52.0797 47.3139 52.0797C47.1918 52.0797 47.0928 52.2315 47.0928 52.4188C47.0928 52.606 47.1918 52.7578 47.3139 52.7578Z" fill="#263238"/>
<path d="M47.249 52.0915L47.6972 51.9647C47.6972 51.9647 47.479 52.3126 47.249 52.0915Z" fill="#263238"/>
<path d="M41.6178 54.9042C41.8861 56.2751 42.1544 58.79 41.1932 59.7069C41.1932 59.7069 41.5706 61.0985 44.1209 61.0985C46.9247 61.0985 45.4594 59.7069 45.4594 59.7069C43.9292 59.3413 43.9675 58.2062 44.2358 57.139L41.6178 54.9042Z" fill="#E58A7B"/>
<path d="M40.8719 51.7791C41.0134 54.0699 41.0252 55.0428 42.1809 56.2191C43.9234 57.9881 46.7065 57.3159 47.252 55.0398C47.7443 52.9761 47.4318 49.5797 45.1882 48.6686C44.6957 48.4658 44.1596 48.3919 43.6306 48.454C43.1016 48.5161 42.5971 48.7121 42.165 49.0235C41.7329 49.3349 41.3873 49.7514 41.1611 50.2336C40.9348 50.7157 40.8353 51.2477 40.8719 51.7791Z" fill="#E58A7B"/>
<path d="M41.0989 49.2022C39.9491 49.6209 38.416 49.3084 39.0174 52.8551C39.6542 56.6112 38.6754 57.8465 38.6754 57.8465C38.6754 57.8465 43.0359 58.7752 47.4878 57.7905C47.4878 57.7905 46.1286 55.4142 46.5089 53.663C46.9954 51.4518 46.6121 50.6351 46.6121 50.6351C46.6121 50.6351 42.7145 48.6126 41.0989 49.2022Z" fill="#263238"/>
<path d="M45.9635 52.973C45.9647 53.4086 46.0894 53.8349 46.3232 54.2025C46.6357 54.6801 47.0042 54.4973 47.0956 53.9902C47.1782 53.545 47.1163 52.7578 46.7183 52.4512C46.3202 52.1446 45.9694 52.4453 45.9635 52.973Z" fill="#E58A7B"/>
<path d="M40.0994 49.5885C39.7692 48.6598 41.3436 47.2299 44.6751 47.8196C48.0067 48.4092 48.1511 51.1835 48.1511 51.1835L47.4789 50.3816L47.5084 51.2248L44.0855 51.8823L40.0994 49.5885Z" fill="#263238"/>
<path d="M40.3824 59.8631C40.3628 59.7285 40.3965 59.5915 40.4763 59.4814C40.5562 59.3712 40.6759 59.2966 40.8099 59.2735C41.8477 59.1025 44.2063 58.7546 45.3915 58.9197C46.276 59.0435 46.506 59.5565 46.5443 59.9781C46.5503 60.0519 46.5404 60.1262 46.5153 60.1959C46.4903 60.2656 46.4506 60.3291 46.3989 60.3821C46.3472 60.4352 46.2848 60.4766 46.2158 60.5035C46.1468 60.5304 46.0728 60.5423 45.9989 60.5383L40.8748 60.3083C40.754 60.3022 40.639 60.2546 40.5493 60.1734C40.4596 60.0923 40.4006 59.9827 40.3824 59.8631Z" fill="#FF3333"/>
<path opacity="0.6" d="M40.3824 59.8631C40.3628 59.7285 40.3965 59.5915 40.4763 59.4814C40.5562 59.3712 40.6759 59.2966 40.8099 59.2735C41.8477 59.1025 44.2063 58.7546 45.3915 58.9197C46.276 59.0435 46.506 59.5565 46.5443 59.9781C46.5503 60.0519 46.5404 60.1262 46.5153 60.1959C46.4903 60.2656 46.4506 60.3291 46.3989 60.3821C46.3472 60.4352 46.2848 60.4766 46.2158 60.5035C46.1468 60.5304 46.0728 60.5423 45.9989 60.5383L40.8748 60.3083C40.754 60.3022 40.639 60.2546 40.5493 60.1734C40.4596 60.0923 40.4006 59.9827 40.3824 59.8631Z" fill="black"/>
<path d="M43.3455 111.369L45.2471 112.69L48.4283 108.377L46.5266 107.059L43.3455 111.369Z" fill="#E58A7B"/>
<path d="M38.9113 111.284L40.919 112.428L43.7346 107.867L41.7268 106.723L38.9113 111.284Z" fill="#E58A7B"/>
<path d="M48.4254 108.377L46.7861 110.6L44.8845 109.282L46.5238 107.059L48.4254 108.377Z" fill="#CF6F64"/>
<path d="M41.724 106.723L43.7347 107.87L42.2842 110.219L40.2734 109.073L41.724 106.723Z" fill="#CF6F64"/>
<path d="M44.9493 74.2625C44.9493 74.2625 52.373 83.6173 50.9785 92.5653C49.8552 99.7914 43.3395 109.577 43.3395 109.577L40.2763 108.055C42.4354 103.729 44.278 99.2515 45.7895 94.6585C46.2556 93.2325 46.3917 91.7193 46.1874 90.2331C45.9831 88.7468 45.4438 87.3264 44.6102 86.0791C40.8482 80.5865 34.822 83.8561 38.8759 74.2625H44.9493Z" fill="#FF3333"/>
<path opacity="0.6" d="M44.9493 74.2625C44.9493 74.2625 52.373 83.6173 50.9785 92.5653C49.8552 99.7914 43.3395 109.577 43.3395 109.577L40.2763 108.055C42.4354 103.729 44.278 99.2515 45.7895 94.6585C46.2556 93.2325 46.3917 91.7193 46.1874 90.2331C45.9831 88.7468 45.4438 87.3264 44.6102 86.0791C40.8482 80.5865 34.822 83.8561 38.8759 74.2625H44.9493Z" fill="black"/>
<path opacity="0.4" d="M48.5904 80.271L47.5114 79.1979C47.5114 79.2834 49.6017 92.1879 50.1884 95.8143C50.5346 94.7549 50.7997 93.6708 50.9815 92.5712C51.6714 88.1812 50.2297 83.6969 48.5904 80.271Z" fill="black"/>
<path d="M48.2632 74.2625C48.2632 74.2625 57.2023 86.0201 57.4559 93.0694C57.6652 98.9659 47.7266 110.39 47.7266 110.39L44.8373 108.521C44.8373 108.521 50.6542 100.408 52.1195 93.7799C51.5534 87.2112 39.5835 74.2625 39.5835 74.2625H48.2632Z" fill="#FF3333"/>
<path opacity="0.6" d="M48.2632 74.2625C48.2632 74.2625 57.2023 86.0201 57.4559 93.0694C57.6652 98.9659 47.7266 110.39 47.7266 110.39L44.8373 108.521C44.8373 108.521 50.6542 100.408 52.1195 93.7799C51.5534 87.2112 39.5835 74.2625 39.5835 74.2625H48.2632Z" fill="black"/>
<path d="M37.2043 60.2317C36.2491 60.4587 35.3322 63.9318 35.3322 63.9318L39.0676 66.426C39.0676 66.426 40.3118 63.6782 39.8754 62.4754C39.4243 61.2223 38.4042 59.9457 37.2043 60.2317Z" fill="#FF3333"/>
<path opacity="0.2" d="M37.9355 62.4695L37.676 65.4973L39.0647 66.429C39.4481 65.5658 39.732 64.6617 39.9108 63.7343L37.9355 62.4695Z" fill="black"/>
<path d="M49.3687 60.2995C49.3687 60.2995 50.4714 60.6857 48.2632 74.2595H38.87C39.0292 70.4267 39.0321 68.0681 37.2042 60.2317C38.5195 59.9606 39.8526 59.7852 41.1932 59.7069C42.6134 59.605 44.0391 59.605 45.4594 59.7069C47.2932 59.8749 49.3687 60.2995 49.3687 60.2995Z" fill="#FF3333"/>
<path d="M50.324 62.4694C50.5363 63.059 50.7604 63.6929 50.9962 64.3032C51.2321 64.9135 51.4561 65.5415 51.695 66.1606L52.4173 68.0121L52.6001 68.475L52.6944 68.7049L52.7386 68.8199C52.7386 68.8406 52.7386 68.8406 52.7386 68.8376C52.6848 68.7617 52.6142 68.6991 52.5323 68.6548C52.4156 68.5862 52.2841 68.5467 52.149 68.5398C52.0367 68.5363 51.925 68.5575 51.8217 68.6018C51.6861 68.6637 51.6861 68.6902 51.6891 68.6873C51.7136 68.6676 51.7354 68.6448 51.7539 68.6195C51.9171 68.4052 52.0584 68.175 52.1755 67.9325C52.3141 67.6613 52.4468 67.3723 52.5794 67.0805C52.8389 66.4908 53.0777 65.8805 53.3165 65.2643C53.5553 64.6481 53.7823 64.0261 54.0034 63.3981L54.6756 61.5171L55.8107 61.8119C55.5867 63.1563 55.2977 64.4653 54.9498 65.798C54.7818 66.4613 54.5842 67.1188 54.3602 67.7821C54.2481 68.1153 54.1243 68.4455 53.9828 68.7846C53.8353 69.1525 53.6537 69.5059 53.4403 69.84C53.3619 69.9525 53.2752 70.0589 53.1809 70.1584C53.0303 70.3211 52.8476 70.4506 52.6443 70.5388C52.4639 70.6162 52.2685 70.6525 52.0723 70.6449C51.8526 70.6367 51.6385 70.5728 51.4502 70.4592C51.2281 70.3206 51.0438 70.1291 50.9137 69.9019C50.8694 69.8253 50.8311 69.7486 50.8046 69.6926L50.7486 69.5806L50.6365 69.3506L50.4125 68.8936C50.1176 68.2804 49.8228 67.6613 49.5663 67.0392C49.3098 66.4171 49.0386 65.7862 48.785 65.1523C48.5315 64.5184 48.3045 63.8845 48.0892 63.2005L50.324 62.4694Z" fill="#E58A7B"/>
<path d="M49.3688 60.2995C50.498 60.5678 51.7687 63.9052 51.7687 63.9052L48.4106 66.7621C48.4106 66.7621 46.2378 63.124 46.6771 61.924C47.134 60.6739 47.8947 59.9487 49.3688 60.2995Z" fill="#FF3333"/>
<path d="M55.2093 60.4616L56.3886 59.4769L57.2082 60.7535L56.6038 61.8178C56.6038 61.8178 55.6427 62.7023 54.7936 62.2512C54.6588 61.9483 54.6265 61.6097 54.7015 61.2868C54.7765 60.9638 54.9548 60.6741 55.2093 60.4616Z" fill="#E58A7B"/>
<path d="M58.5172 59.4799L58.4288 59.8012L56.5626 60.1137L56.3798 59.4769L58.5172 59.4799Z" fill="#E58A7B"/>
<path d="M47.9565 110.541L44.5896 108.365L45.194 107.315L48.9766 109.642L47.9565 110.541Z" fill="#FF3333"/>
<path d="M42.2369 112.274C41.9415 112.238 41.6577 112.138 41.4055 111.98C41.3951 111.976 41.3861 111.969 41.3797 111.96C41.3733 111.951 41.3699 111.94 41.3699 111.929C41.3699 111.918 41.3733 111.908 41.3797 111.899C41.3861 111.89 41.3951 111.883 41.4055 111.879C41.4969 111.85 42.29 111.605 42.5199 111.794C42.5458 111.815 42.5654 111.843 42.5768 111.875C42.5882 111.907 42.591 111.941 42.5848 111.974C42.5807 112.027 42.5631 112.078 42.5337 112.122C42.5043 112.167 42.464 112.203 42.4168 112.227C42.3615 112.257 42.2998 112.274 42.2369 112.274ZM41.5736 111.95C41.9421 112.139 42.2369 112.207 42.3784 112.136C42.4092 112.119 42.4352 112.094 42.4538 112.064C42.4723 112.034 42.4829 112 42.4846 111.965C42.4846 111.918 42.4846 111.897 42.458 111.885C42.3342 111.785 41.892 111.862 41.5677 111.95H41.5736Z" fill="#263238"/>
<path d="M41.4261 112C41.4106 112 41.3957 111.994 41.3849 111.982C41.3805 111.974 41.3782 111.965 41.3782 111.956C41.3782 111.947 41.3805 111.938 41.3849 111.929C41.3849 111.903 41.5765 111.263 41.8772 111.119C41.9156 111.101 41.9574 111.092 41.9996 111.092C42.0418 111.092 42.0835 111.101 42.1219 111.119C42.1633 111.132 42.1992 111.158 42.2237 111.194C42.2483 111.23 42.2602 111.273 42.2575 111.316C42.2369 111.582 41.6974 111.947 41.4497 112.009L41.4261 112ZM41.9981 111.195C41.9694 111.196 41.9413 111.203 41.9155 111.216C41.7328 111.304 41.5824 111.649 41.5087 111.859C41.7681 111.75 42.1249 111.461 42.1367 111.298C42.1367 111.272 42.1367 111.24 42.0689 111.21C42.0468 111.198 42.0229 111.19 41.9981 111.186V111.195Z" fill="#263238"/>
<path d="M46.4441 113.548C46.1109 113.548 45.648 113.121 45.3945 112.858C45.388 112.849 45.3845 112.838 45.3845 112.827C45.3845 112.816 45.388 112.805 45.3945 112.796C45.4003 112.787 45.4086 112.779 45.4184 112.774C45.4283 112.769 45.4394 112.766 45.4505 112.767C45.5684 112.767 46.5915 112.92 46.7359 113.209C46.7512 113.235 46.7593 113.264 46.7593 113.295C46.7593 113.325 46.7512 113.354 46.7359 113.38C46.7143 113.425 46.6815 113.464 46.6408 113.493C46.6001 113.522 46.5527 113.54 46.503 113.545L46.4441 113.548ZM45.5891 112.899C45.9605 113.259 46.2878 113.46 46.4735 113.436C46.5061 113.432 46.5371 113.42 46.5638 113.401C46.5905 113.382 46.6122 113.356 46.6269 113.327C46.6335 113.317 46.637 113.305 46.637 113.293C46.637 113.281 46.6335 113.269 46.6269 113.259C46.5502 113.1 46.0048 112.964 45.5891 112.899Z" fill="#263238"/>
<path d="M45.6216 112.885C45.5554 112.887 45.4892 112.882 45.4241 112.87C45.415 112.869 45.4064 112.865 45.3991 112.859C45.3919 112.853 45.3863 112.846 45.3828 112.837C45.3784 112.829 45.3761 112.819 45.3761 112.809C45.3761 112.8 45.3784 112.79 45.3828 112.781C45.4005 112.761 45.7985 112.28 46.1759 112.248C46.2827 112.24 46.3885 112.273 46.4707 112.342C46.5857 112.442 46.5798 112.531 46.5503 112.587C46.4766 112.787 45.9666 112.885 45.6216 112.885ZM45.545 112.776C45.8752 112.793 46.4029 112.684 46.4707 112.54C46.4707 112.54 46.4943 112.493 46.4176 112.428C46.3871 112.401 46.3515 112.381 46.313 112.369C46.2744 112.357 46.2338 112.353 46.1936 112.357C45.9394 112.428 45.713 112.575 45.545 112.779V112.776Z" fill="#263238"/>
<path d="M41.5058 111.682L39.0056 110.974C38.9625 110.961 38.9162 110.964 38.8753 110.983C38.8345 111.003 38.8022 111.036 38.7845 111.077L37.9413 112.973C37.9215 113.022 37.9122 113.074 37.914 113.126C37.9159 113.179 37.9287 113.23 37.9519 113.277C37.975 113.324 38.0078 113.366 38.0482 113.399C38.0885 113.433 38.1355 113.457 38.186 113.471C39.0705 113.701 39.4951 113.766 40.5948 114.082C41.2729 114.27 42.2399 114.621 43.1745 114.887C44.1091 115.152 44.4216 114.241 44.059 114.046C42.4197 113.179 42.29 112.572 41.8419 111.923C41.7616 111.806 41.6427 111.72 41.5058 111.682Z" fill="#FF3333"/>
<path d="M45.4623 112.513L43.3277 111.039C43.2915 111.013 43.2469 111.001 43.2024 111.005C43.1578 111.009 43.1164 111.03 43.086 111.063L41.6708 112.584C41.6363 112.623 41.6106 112.669 41.5954 112.72C41.5801 112.77 41.5757 112.822 41.5824 112.874C41.5891 112.926 41.6067 112.976 41.6342 113.02C41.6616 113.065 41.6982 113.103 41.7416 113.132C42.4934 113.636 42.8825 113.84 43.823 114.491C44.4127 114.892 45.5537 115.783 46.3497 116.337C47.1457 116.891 47.7383 116.131 47.4553 115.83C46.1875 114.477 45.9104 113.628 45.7011 112.858C45.6647 112.719 45.5801 112.596 45.4623 112.513Z" fill="#FF3333"/>
<path d="M43.7318 109.771L39.8843 107.858L40.2823 106.814L44.3922 108.831L43.7318 109.771Z" fill="#FF3333"/>
<path d="M38.7285 73.7082L38.4042 74.5573C38.3718 74.6222 38.4485 74.69 38.5575 74.69H48.3104C48.3959 74.69 48.4666 74.6487 48.4725 74.5956L48.5551 73.7524C48.5551 73.6964 48.4873 73.6463 48.3959 73.6463H38.8819C38.8532 73.6436 38.8243 73.6478 38.7977 73.6586C38.771 73.6694 38.7473 73.6864 38.7285 73.7082Z" fill="#FF3333"/>
<path opacity="0.4" d="M38.7285 73.7082L38.4042 74.5573C38.3718 74.6222 38.4485 74.69 38.5575 74.69H48.3104C48.3959 74.69 48.4666 74.6487 48.4725 74.5956L48.5551 73.7524C48.5551 73.6964 48.4873 73.6463 48.3959 73.6463H38.8819C38.8532 73.6436 38.8243 73.6478 38.7977 73.6586C38.771 73.6694 38.7473 73.6864 38.7285 73.7082Z" fill="white"/>
<path d="M40.2645 74.7725H40.008C39.9579 74.7725 39.9196 74.746 39.9225 74.7135L40.0434 73.6197C40.0434 73.5903 40.0906 73.5637 40.1407 73.5637H40.3972C40.4473 73.5637 40.4856 73.5903 40.4827 73.6197L40.3618 74.7135C40.3589 74.746 40.3146 74.7725 40.2645 74.7725Z" fill="#FF3333"/>
<path d="M46.279 74.7725H46.0255C45.9754 74.7725 45.937 74.746 45.94 74.7135L46.0579 73.6197C46.0579 73.5903 46.108 73.5637 46.1582 73.5637H46.4117C46.4618 73.5637 46.5031 73.5903 46.4972 73.6197L46.3793 74.7135C46.3645 74.746 46.3321 74.7725 46.279 74.7725Z" fill="#FF3333"/>
<g style="mix-blend-mode:multiply">
<path d="M40.0405 124.701C44.4026 124.701 47.9389 124.445 47.9389 124.129C47.9389 123.813 44.4026 123.557 40.0405 123.557C35.6783 123.557 32.1421 123.813 32.1421 124.129C32.1421 124.445 35.6783 124.701 40.0405 124.701Z" fill="#F5F5F5"/>
</g>
<path d="M44.8521 123.322C43.4546 122.915 41.9038 122.393 40.9663 121.847C40.9397 121.83 40.9102 121.821 40.8837 121.806V115.479H43.7111C43.9257 115.466 44.1274 115.372 44.2749 115.216C44.4223 115.059 44.5045 114.852 44.5045 114.637C44.5045 114.422 44.4223 114.216 44.2749 114.059C44.1274 113.903 43.9257 113.808 43.7111 113.796H40.8985V84.9558H39.2003V113.796H36.3906C36.2758 113.789 36.1609 113.806 36.0529 113.845C35.9449 113.884 35.846 113.945 35.7624 114.024C35.6787 114.103 35.6121 114.198 35.5666 114.303C35.521 114.409 35.4975 114.523 35.4975 114.637C35.4975 114.752 35.521 114.866 35.5666 114.972C35.6121 115.077 35.6787 115.172 35.7624 115.251C35.846 115.33 35.9449 115.391 36.0529 115.43C36.1609 115.469 36.2758 115.486 36.3906 115.479H39.2003V121.797C39.1737 121.797 39.1472 121.821 39.1206 121.839C38.1684 122.393 36.6294 122.915 35.2319 123.313C35.1375 123.341 35.0564 123.403 35.0034 123.486C34.9503 123.569 34.9288 123.668 34.9427 123.766C34.9566 123.864 35.005 123.953 35.0791 124.018C35.1533 124.083 35.2483 124.119 35.3469 124.121H44.7371C44.8313 124.114 44.9205 124.076 44.9898 124.011C45.059 123.947 45.1041 123.861 45.1176 123.768C45.131 123.674 45.112 123.579 45.0637 123.498C45.0154 123.416 44.9407 123.354 44.8521 123.322Z" fill="#E0E0E0"/>
<path d="M45.2854 82.0193H34.8014C33.9579 82.0193 33.2742 82.703 33.2742 83.5465V86.6628C33.2742 87.5062 33.9579 88.19 34.8014 88.19H45.2854C46.1288 88.19 46.8126 87.5062 46.8126 86.6628V83.5465C46.8126 82.703 46.1288 82.0193 45.2854 82.0193Z" fill="#FF3333"/>
<path d="M34.7041 88.193V88.7296C34.7041 89.1718 35.1847 89.5315 35.7743 89.5315H44.3243C44.9139 89.5315 45.3945 89.1718 45.3945 88.7296V88.193H34.7041Z" fill="#FF3333"/>
<path opacity="0.3" d="M34.7041 88.193V88.7296C34.7041 89.1718 35.1847 89.5315 35.7743 89.5315H44.3243C44.9139 89.5315 45.3945 89.1718 45.3945 88.7296V88.193H34.7041Z" fill="white"/>
</svg>
