<svg width="34" height="34" viewBox="0 0 34 34" fill="none" xmlns="http://www.w3.org/2000/svg">
<g id="Icon">
<g id="Group 1">
<path id="Vector" d="M19.2834 13.5286C19.0662 13.5286 18.8896 13.3523 18.8896 13.1349V12.4657C18.8896 12.2485 19.0659 12.072 19.2834 12.072C19.5006 12.072 19.6771 12.2482 19.6771 12.4657V13.1349C19.6771 13.3523 19.5006 13.5286 19.2834 13.5286Z" fill="#103E13"/>
<path id="Vector_2" d="M17.628 13.5286C17.4108 13.5286 17.2343 13.3523 17.2343 13.1349V12.4657C17.2343 12.2485 17.4105 12.072 17.628 12.072C17.8452 12.072 18.0217 12.2482 18.0217 12.4657V13.1349C18.0215 13.3523 17.8455 13.5286 17.628 13.5286Z" fill="#103E13"/>
<path id="Vector_3" d="M15.9727 13.5286C15.7555 13.5286 15.579 13.3523 15.579 13.1349V12.4657C15.579 12.2485 15.7553 12.072 15.9727 12.072C16.1899 12.072 16.3665 12.2482 16.3665 12.4657V13.1349C16.3665 13.3523 16.1902 13.5286 15.9727 13.5286Z" fill="#103E13"/>
<path id="Vector_4" d="M19.2834 16.265C19.0662 16.265 18.8896 16.0887 18.8896 15.8712V15.2023C18.8896 14.9852 19.0659 14.8086 19.2834 14.8086C19.5006 14.8086 19.6771 14.9849 19.6771 15.2023V15.8712C19.6771 16.0887 19.5006 16.265 19.2834 16.265Z" fill="#103E13"/>
<path id="Vector_5" d="M17.628 16.265C17.4108 16.265 17.2343 16.0887 17.2343 15.8712V15.2023C17.2343 14.9852 17.4105 14.8086 17.628 14.8086C17.8452 14.8086 18.0217 14.9849 18.0217 15.2023V15.8712C18.0215 16.0887 17.8455 16.265 17.628 16.265Z" fill="#103E13"/>
<path id="Vector_6" d="M15.9727 16.265C15.7555 16.265 15.579 16.0887 15.579 15.8712V15.2023C15.579 14.9852 15.7553 14.8086 15.9727 14.8086C16.1899 14.8086 16.3665 14.9849 16.3665 15.2023V15.8712C16.3665 16.0887 16.1902 16.265 15.9727 16.265Z" fill="#103E13"/>
<path id="Vector_7" d="M19.2834 19.0014C19.0662 19.0014 18.8896 18.8252 18.8896 18.6077V17.9385C18.8896 17.7214 19.0659 17.5448 19.2834 17.5448C19.5006 17.5448 19.6771 17.7211 19.6771 17.9385V18.6077C19.6771 18.8252 19.5006 19.0014 19.2834 19.0014Z" fill="#103E13"/>
<path id="Vector_8" d="M17.628 19.0014C17.4108 19.0014 17.2343 18.8252 17.2343 18.6077V17.9385C17.2343 17.7214 17.4105 17.5448 17.628 17.5448C17.8452 17.5448 18.0217 17.7211 18.0217 17.9385V18.6077C18.0215 18.8252 17.8455 19.0014 17.628 19.0014Z" fill="#103E13"/>
<path id="Vector_9" d="M15.9727 19.0014C15.7555 19.0014 15.579 18.8252 15.579 18.6077V17.9385C15.579 17.7214 15.7553 17.5448 15.9727 17.5448C16.1899 17.5448 16.3665 17.7211 16.3665 17.9385V18.6077C16.3665 18.8252 16.1902 19.0014 15.9727 19.0014Z" fill="#103E13"/>
<path id="Vector_10" d="M19.2834 21.7373C19.0662 21.7373 18.8896 21.561 18.8896 21.3435V20.6744C18.8896 20.4572 19.0659 20.2806 19.2834 20.2806C19.5006 20.2806 19.6771 20.4569 19.6771 20.6744V21.3435C19.6771 21.561 19.5006 21.7373 19.2834 21.7373Z" fill="#103E13"/>
<path id="Vector_11" d="M17.628 21.7373C17.4108 21.7373 17.2343 21.561 17.2343 21.3435V20.6744C17.2343 20.4572 17.4105 20.2806 17.628 20.2806C17.8452 20.2806 18.0217 20.4569 18.0217 20.6744V21.3435C18.0215 21.561 17.8455 21.7373 17.628 21.7373Z" fill="#103E13"/>
<path id="Vector_12" d="M15.9727 21.7373C15.7555 21.7373 15.579 21.561 15.579 21.3435V20.6744C15.579 20.4572 15.7553 20.2806 15.9727 20.2806C16.1899 20.2806 16.3665 20.4569 16.3665 20.6744V21.3435C16.3665 21.561 16.1902 21.7373 15.9727 21.7373Z" fill="#103E13"/>
<path id="Vector_13" d="M19.2834 24.4736C19.0662 24.4736 18.8896 24.2974 18.8896 24.0799V23.411C18.8896 23.1938 19.0659 23.0173 19.2834 23.0173C19.5006 23.0173 19.6771 23.1936 19.6771 23.411V24.0799C19.6771 24.2971 19.5006 24.4736 19.2834 24.4736Z" fill="#103E13"/>
<path id="Vector_14" d="M17.628 24.4736C17.4108 24.4736 17.2343 24.2974 17.2343 24.0799V23.411C17.2343 23.1938 17.4105 23.0173 17.628 23.0173C17.8452 23.0173 18.0217 23.1936 18.0217 23.411V24.0799C18.0215 24.2971 17.8455 24.4736 17.628 24.4736Z" fill="#103E13"/>
<path id="Vector_15" d="M15.9727 24.4736C15.7555 24.4736 15.579 24.2974 15.579 24.0799L15.5793 23.411C15.5793 23.1938 15.7555 23.0173 15.973 23.0173C16.1902 23.0173 16.3668 23.1936 16.3668 23.411V24.0799C16.3665 24.2971 16.1902 24.4736 15.9727 24.4736Z" fill="#103E13"/>
<path id="Vector_16" d="M4.72451 27.1968C4.72451 27.414 4.90079 27.5906 5.11826 27.5906H29.0963C29.3135 27.5906 29.49 27.4143 29.49 27.1968C29.49 26.9796 29.3138 26.8031 29.0963 26.8031H28.3684V15.498C28.3684 15.2808 28.1921 15.1043 27.9747 15.1043L21.546 15.1045V6.95417C21.546 6.81634 21.474 6.68893 21.3565 6.61754C21.2393 6.54588 21.0926 6.54148 20.9707 6.60491L13.6618 10.4103C13.5313 10.4781 13.4501 10.6127 13.4501 10.7596V17.8788H6.37657C6.15938 17.8788 5.98282 18.055 5.98282 18.2725V26.8031H5.11738C4.90019 26.8029 4.72418 26.9792 4.72418 27.1966L4.72451 27.1968ZM21.5461 21.068H27.5813V26.8034L21.5461 26.8031V21.068ZM21.5461 18.3318H27.5813V20.2808L21.5461 20.2805V18.3318ZM21.5461 15.8916H27.5813V17.5449H21.5461V15.8916ZM14.2371 10.9987L20.7583 7.6032V26.8028H14.2371V10.9987ZM8.71675 23.6583C8.71675 22.8411 9.3642 22.1761 10.1602 22.1761C10.9562 22.1761 11.6039 22.8408 11.6039 23.6583V26.8033H8.71675V23.6583ZM6.77029 18.6661H13.4499V26.8031H12.3914V23.6581C12.3914 22.4069 11.3909 21.3887 10.1602 21.3887C8.93009 21.3887 7.92955 22.4066 7.92955 23.6581V26.8031H6.77029V18.6661Z" fill="#103E13"/>
</g>
</g>
</svg>
