<svg width="34" height="34" viewBox="0 0 34 34" fill="none" xmlns="http://www.w3.org/2000/svg">
<g id="Icon">
<g id="Group 2">
<path id="Vector" d="M20.1283 16.7541C19.9607 16.7541 19.805 16.708 19.6668 16.6339V16.6358C19.6668 16.8995 19.5643 17.1472 19.3783 17.3326C19.1924 17.5186 18.9449 17.6211 18.6815 17.6211C18.5115 17.6211 18.3539 17.5739 18.2141 17.4978C18.2 17.739 18.1036 17.9645 17.9316 18.1367C17.7456 18.3227 17.4982 18.4252 17.2346 18.4252C16.7109 18.4252 16.2857 18.0136 16.2551 17.4976C16.093 17.5852 15.9099 17.6311 15.7209 17.619C15.2058 17.5852 14.8024 17.1401 14.8024 16.6055V12.1739L14.2978 13.0481C14.1056 13.3825 13.7458 13.5901 13.3584 13.5901C13.1697 13.5901 12.9832 13.5406 12.8181 13.4459C12.6124 13.3267 12.4653 13.1353 12.4042 12.9064C12.3427 12.6773 12.3745 12.4377 12.4934 12.2324C12.4935 12.2324 14.1444 9.37346 14.2452 9.19785C14.2571 9.17144 14.2912 9.09486 14.3203 9.02959C14.348 8.96727 14.3718 8.90332 14.3946 8.83903C14.8924 7.43347 16.1252 6.56037 17.6119 6.56037C19.5426 6.56037 21.1133 8.26358 21.1133 10.3571L21.1135 15.7686C21.1135 16.032 21.0112 16.2795 20.8254 16.4656C20.6394 16.6516 20.3919 16.7541 20.1282 16.7541L20.1283 16.7541ZM17.612 7.08391C16.3344 7.08391 15.3162 7.8055 14.888 9.01412C14.8606 9.09087 14.8321 9.16762 14.7988 9.2424C14.7022 9.45903 14.7022 9.45903 14.675 9.49019L14.6714 9.48707C14.5366 9.74143 14.1361 10.4349 12.9467 12.4944C12.8978 12.5788 12.8849 12.6769 12.9098 12.7707C12.935 12.8645 12.9956 12.9435 13.0794 12.9919C13.3395 13.1413 13.6957 13.0449 13.8439 12.7866L14.8375 11.0663C14.8969 10.9638 15.0169 10.9135 15.1321 10.9446C15.2465 10.9753 15.3261 11.0791 15.3261 11.1975V16.6056C15.3261 16.8608 15.5186 17.081 15.7552 17.0966C15.8917 17.1038 16.0189 17.0581 16.1145 16.9626C16.2015 16.8757 16.2493 16.7599 16.2493 16.6361V13.0991C16.2493 12.9545 16.3666 12.8372 16.5112 12.8372C16.6559 12.8372 16.7731 12.9543 16.7731 13.0991L16.773 17.4401C16.773 17.6946 16.9801 17.9017 17.2346 17.9017C17.3583 17.9017 17.4744 17.8538 17.5615 17.7669C17.6484 17.6798 17.6963 17.5637 17.6963 17.4401V13.0991C17.6963 12.9545 17.8133 12.8372 17.9581 12.8372C18.1028 12.8372 18.22 12.9543 18.22 13.0991L18.2199 16.5954V16.6361C18.2199 16.8905 18.427 17.0976 18.6817 17.0976C18.8052 17.0976 18.9209 17.0495 19.0085 16.9623C19.0954 16.8755 19.1433 16.7598 19.1433 16.6359V13.0989C19.1433 12.9543 19.2604 12.8371 19.4052 12.8371C19.5499 12.8371 19.6671 12.9541 19.6671 13.0989L19.6668 15.7688C19.6668 16.0234 19.8739 16.2306 20.1283 16.2306C20.2521 16.2306 20.3678 16.1825 20.4548 16.0958C20.542 16.0085 20.5897 15.8924 20.5897 15.7688L20.5899 10.3573C20.5899 8.55254 19.254 7.08396 17.6119 7.08396L17.612 7.08391Z" fill="#103E13"/>
<path id="Vector_2" d="M9.83859 20.5152L13.6389 18.2353C14.0971 17.9602 14.6867 18.0771 14.9806 18.5017C15.0878 18.6563 15.1426 18.8365 15.1511 19.0201C15.2928 18.9461 15.4469 18.9059 15.6039 18.9059C15.6842 18.9059 15.7649 18.9159 15.8446 18.9358C16.1 18.9995 16.3151 19.1591 16.4504 19.3848C16.5859 19.6107 16.6254 19.8756 16.5616 20.1306C16.5027 20.3666 16.3592 20.5652 16.1597 20.7015C16.2992 20.7838 16.4196 20.8961 16.5052 21.0391C16.6407 21.2651 16.6802 21.5298 16.6165 21.7852C16.5528 22.0402 16.3932 22.2553 16.1672 22.391L16.1659 22.3918C16.303 22.4739 16.4212 22.5851 16.5059 22.726C16.6415 22.952 16.681 23.2168 16.6172 23.4721C16.5533 23.7273 16.3937 23.9425 16.168 24.078L11.5278 26.8617C10.6617 27.3811 9.66053 27.5604 8.70905 27.366C7.74904 27.1699 6.95398 26.6181 6.47056 25.8122C5.70552 24.5372 5.82017 23.0307 6.76919 21.8809C6.81265 21.8285 6.85545 21.775 6.89432 21.7196C6.93548 21.661 6.98353 21.5922 6.99993 21.5685C7.09816 21.3931 8.70104 18.5051 8.70088 18.5055C8.86274 18.2134 9.16612 18.0481 9.47901 18.0483C9.62497 18.0483 9.77305 18.0842 9.90967 18.1599C10.0746 18.2521 10.2132 18.3864 10.3101 18.5483C10.5094 18.8804 10.5164 19.2959 10.3288 19.6322L9.83859 20.5152ZM9.86138 18.8175C9.81055 18.7327 9.74068 18.6651 9.65524 18.6173C9.47862 18.5195 9.25625 18.5832 9.15901 18.7591C8.01206 20.8254 7.62109 21.5296 7.4702 21.7802L7.47365 21.781C7.46102 21.823 7.46102 21.823 7.32294 22.0203C7.27604 22.087 7.22504 22.1511 7.17305 22.2143C6.357 23.203 6.26225 24.4472 6.91935 25.5428C7.32638 26.2214 7.99909 26.6867 8.81362 26.853C9.63702 27.0204 10.5049 26.8646 11.2581 26.4127L15.8988 23.6287C16.0048 23.5653 16.0795 23.4644 16.1094 23.3449C16.1392 23.2255 16.1207 23.1013 16.0571 22.9954C15.9262 22.7773 15.642 22.7056 15.4239 22.837L13.1346 24.2104C13.0106 24.2849 12.8495 24.2449 12.7753 24.1207C12.7008 23.9967 12.741 23.8359 12.865 23.7614L15.1545 22.388L15.898 21.9419C16.0039 21.8783 16.0789 21.7774 16.1087 21.6582C16.1386 21.5387 16.12 21.4143 16.0564 21.3086C15.9254 21.0903 15.6412 21.0193 15.4232 21.1502L12.3902 22.9697C12.2659 23.0443 12.1053 23.0039 12.0309 22.88C11.9564 22.756 11.9968 22.5951 12.1206 22.5207L15.8431 20.2876C15.949 20.224 16.0238 20.1233 16.0536 20.0037C16.0835 19.8843 16.0649 19.7602 16.0015 19.6542C15.938 19.5485 15.8372 19.4737 15.7176 19.4438C15.5974 19.414 15.4738 19.4325 15.3681 19.4958L14.679 19.9093C14.6789 19.9093 14.6789 19.9094 14.6787 19.9094H14.6786L11.6457 21.7289C11.5214 21.8037 11.3607 21.7634 11.2864 21.6392C11.2119 21.5152 11.2523 21.3544 11.3761 21.2799L14.4091 19.4604C14.5151 19.3968 14.59 19.2959 14.6198 19.1767C14.6526 19.0458 14.6277 18.912 14.55 18.7998C14.4152 18.6049 14.1269 18.553 13.9083 18.6844L9.27095 21.4664C9.16944 21.5271 9.0394 21.5123 8.95428 21.4301C8.86901 21.3478 8.84982 21.2184 8.90722 21.1149L9.8715 19.3776C9.96826 19.2039 9.96448 18.9894 9.86133 18.8176L9.86138 18.8175Z" fill="#103E13"/>
<path id="Vector_3" d="M27.9983 25.812C27.515 26.618 26.7202 27.1697 25.76 27.3659C24.8084 27.5599 23.8075 27.381 22.9413 26.8616L18.3006 24.0777C18.0748 23.9422 17.9151 23.727 17.8511 23.4715C17.7876 23.2165 17.8273 22.9517 17.9626 22.726C18.0471 22.585 18.1655 22.4738 18.3027 22.3916L18.3014 22.3908C18.0756 22.2553 17.9159 22.0402 17.8523 21.785C17.7883 21.5298 17.828 21.2648 17.9634 21.0389C18.0507 20.8937 18.1702 20.7802 18.3067 20.6997C18.1086 20.5634 17.9659 20.3655 17.9072 20.1307C17.8432 19.8753 17.8829 19.6105 18.0184 19.3848C18.1537 19.159 18.369 18.9994 18.6242 18.9356C18.7039 18.9156 18.7847 18.9058 18.8648 18.9058C19.0219 18.906 19.176 18.9458 19.3177 19.0199C19.3264 18.8364 19.381 18.6562 19.4883 18.5015C19.7823 18.0773 20.3714 17.9599 20.8302 18.2352L24.6304 20.5147L24.1406 19.6324C23.9527 19.2956 23.9595 18.88 24.1588 18.5478C24.2559 18.3861 24.3946 18.2518 24.5604 18.1588C24.6967 18.0833 24.8443 18.0476 24.9899 18.0476C25.3026 18.0478 25.6063 18.2127 25.768 18.5048C26.3315 19.5201 27.3948 21.4349 27.4696 21.5685C27.4855 21.5917 27.5336 21.6605 27.5747 21.7191C27.6139 21.7747 27.6562 21.8278 27.7 21.8806C28.6489 23.0308 28.7633 24.5371 27.9983 25.812L27.9983 25.812ZM27.296 22.2144C27.2438 22.1512 27.1927 22.0868 27.1461 22.0204C27.0044 21.8193 27.0008 21.8141 26.9901 21.7614C26.8245 21.4874 26.4204 20.7599 25.3097 18.7589C25.2123 18.5832 24.9909 18.5191 24.8146 18.6165C24.7279 18.6651 24.6582 18.7328 24.6073 18.8176C24.5044 18.9893 24.5004 19.2038 24.5977 19.3779L25.5616 21.1148C25.6192 21.2184 25.6 21.3477 25.5149 21.43C25.4299 21.5125 25.3 21.5269 25.198 21.4662L20.5607 18.6842C20.3421 18.5532 20.054 18.6045 19.9188 18.7997C19.8411 18.9119 19.8163 19.0457 19.8488 19.1764C19.8787 19.2958 19.9536 19.3965 20.0597 19.4601C20.06 19.4603 20.0602 19.4606 20.0605 19.4607L23.0926 21.2797C23.2166 21.3542 23.2568 21.5149 23.1823 21.6391C23.1078 21.7629 22.9473 21.8034 22.823 21.7288L19.1005 19.4957C18.9949 19.4324 18.8706 19.4137 18.7512 19.4437C18.6315 19.4735 18.5308 19.5483 18.4673 19.6544C18.4037 19.7602 18.3854 19.8844 18.4149 20.0037C18.4447 20.1231 18.5197 20.224 18.6256 20.2876L19.35 20.722L22.3479 22.5207C22.4719 22.5952 22.5121 22.7559 22.4376 22.88C22.3632 23.0038 22.2026 23.0442 22.0783 22.9697L19.0456 21.1502C18.8275 21.019 18.5434 21.0902 18.4123 21.3086C18.3486 21.4146 18.3303 21.5387 18.3598 21.6581C18.3896 21.7775 18.4646 21.8782 18.5707 21.942L19.3142 22.388L21.6034 23.7615C21.7273 23.8359 21.7675 23.9966 21.6931 24.1208C21.6186 24.2446 21.4581 24.2853 21.3338 24.2105L19.0446 22.837C18.939 22.7737 18.8152 22.7551 18.6951 22.7851C18.5757 22.8149 18.4747 22.8897 18.4113 22.9955C18.3478 23.1014 18.3293 23.2257 18.3588 23.3449C18.3886 23.4643 18.4636 23.565 18.5697 23.6288L23.2104 26.4127C23.9635 26.8645 24.8319 27.021 25.6549 26.853C26.4692 26.6867 27.142 26.2215 27.549 25.5429C28.2068 24.4471 28.1121 23.2027 27.2963 22.2143L27.296 22.2144Z" fill="#103E13"/>
</g>
</g>
</svg>
