<svg width="17" height="17" viewBox="0 0 17 17" fill="none" xmlns="http://www.w3.org/2000/svg">
<g id="Icon">
<g id="Group 2">
<g id="Vector">
<mask id="path-1-inside-1_212_1413" fill="white">
<path d="M10.0074 8.8386C9.92698 8.8386 9.85233 8.81649 9.78603 8.78094V8.78188C9.78603 8.90837 9.73686 9.02715 9.64767 9.11611C9.55847 9.20531 9.43978 9.25447 9.31344 9.25447C9.23187 9.25447 9.15628 9.23182 9.08926 9.19532C9.0825 9.31103 9.03625 9.41918 8.95373 9.50178C8.86453 9.59098 8.74584 9.64014 8.61942 9.64014C8.36826 9.64014 8.1643 9.4427 8.1496 9.19524C8.07188 9.23724 7.98402 9.25927 7.8934 9.25345C7.64633 9.23724 7.45284 9.02377 7.45284 8.76733V6.64172L7.2108 7.06104C7.11861 7.22143 6.94604 7.32101 6.76024 7.32101C6.66971 7.32101 6.58027 7.29725 6.50106 7.25187C6.40243 7.19468 6.33187 7.10289 6.30253 6.99307C6.27303 6.88319 6.28829 6.76827 6.34532 6.66978C6.3454 6.66978 7.13725 5.29852 7.18556 5.21429C7.1913 5.20163 7.20766 5.1649 7.22158 5.13359C7.23488 5.1037 7.24628 5.07302 7.25721 5.04219C7.49601 4.36802 8.0873 3.94924 8.80042 3.94924C9.72645 3.94924 10.4798 4.76618 10.4798 5.77034L10.4799 8.36594C10.4799 8.49227 10.4308 8.61096 10.3417 8.70025C10.2525 8.78945 10.1338 8.83861 10.0074 8.83861L10.0074 8.8386ZM8.80042 4.20035C8.18767 4.20035 7.69928 4.54646 7.49391 5.12617C7.48077 5.16298 7.46709 5.19979 7.45112 5.23566C7.40479 5.33957 7.40479 5.33957 7.39173 5.35451L7.39 5.35302C7.32534 5.47502 7.13326 5.80766 6.56275 6.79546C6.53931 6.83597 6.5331 6.88301 6.54505 6.928C6.55717 6.97299 6.58619 7.0109 6.62639 7.03411C6.75114 7.10576 6.92199 7.05951 6.99309 6.93563L7.46968 6.11049C7.49816 6.06133 7.55574 6.03718 7.61095 6.05213C7.66586 6.06684 7.70401 6.11663 7.70401 6.17342V8.7674C7.70401 8.8898 7.79635 8.99543 7.90986 9.0029C7.97531 9.00636 8.03634 8.98442 8.0822 8.93864C8.12389 8.89695 8.14686 8.84142 8.14686 8.78203V7.08553C8.14686 7.01615 8.2031 6.95991 8.27248 6.95991C8.34185 6.95991 8.39809 7.01607 8.39809 7.08553L8.39801 9.16764C8.39801 9.28972 8.49736 9.38906 8.61944 9.38906C8.67874 9.38906 8.73443 9.3661 8.7762 9.32441C8.81789 9.28264 8.84086 9.22695 8.84086 9.16764V7.08553C8.84086 7.01615 8.89702 6.95991 8.96648 6.95991C9.03585 6.95991 9.09209 7.01607 9.09209 7.08553L9.09202 8.76252V8.78202C9.09202 8.90402 9.19136 9.00336 9.31352 9.00336C9.37275 9.00336 9.42828 8.98032 9.47028 8.93847C9.51197 8.89686 9.53494 8.84133 9.53494 8.78194V7.08544C9.53494 7.01606 9.5911 6.95982 9.66056 6.95982C9.72993 6.95982 9.78618 7.01598 9.78618 7.08544L9.78602 8.366C9.78602 8.48816 9.88536 8.5875 10.0074 8.5875C10.0667 8.5875 10.1223 8.56446 10.164 8.52285C10.2058 8.481 10.2287 8.42531 10.2287 8.366L10.2288 5.7704C10.2288 4.90478 9.58804 4.20038 8.80042 4.20038L8.80042 4.20035Z"/>
</mask>
<path d="M10.0074 8.8386C9.92698 8.8386 9.85233 8.81649 9.78603 8.78094V8.78188C9.78603 8.90837 9.73686 9.02715 9.64767 9.11611C9.55847 9.20531 9.43978 9.25447 9.31344 9.25447C9.23187 9.25447 9.15628 9.23182 9.08926 9.19532C9.0825 9.31103 9.03625 9.41918 8.95373 9.50178C8.86453 9.59098 8.74584 9.64014 8.61942 9.64014C8.36826 9.64014 8.1643 9.4427 8.1496 9.19524C8.07188 9.23724 7.98402 9.25927 7.8934 9.25345C7.64633 9.23724 7.45284 9.02377 7.45284 8.76733V6.64172L7.2108 7.06104C7.11861 7.22143 6.94604 7.32101 6.76024 7.32101C6.66971 7.32101 6.58027 7.29725 6.50106 7.25187C6.40243 7.19468 6.33187 7.10289 6.30253 6.99307C6.27303 6.88319 6.28829 6.76827 6.34532 6.66978C6.3454 6.66978 7.13725 5.29852 7.18556 5.21429C7.1913 5.20163 7.20766 5.1649 7.22158 5.13359C7.23488 5.1037 7.24628 5.07302 7.25721 5.04219C7.49601 4.36802 8.0873 3.94924 8.80042 3.94924C9.72645 3.94924 10.4798 4.76618 10.4798 5.77034L10.4799 8.36594C10.4799 8.49227 10.4308 8.61096 10.3417 8.70025C10.2525 8.78945 10.1338 8.83861 10.0074 8.83861L10.0074 8.8386ZM8.80042 4.20035C8.18767 4.20035 7.69928 4.54646 7.49391 5.12617C7.48077 5.16298 7.46709 5.19979 7.45112 5.23566C7.40479 5.33957 7.40479 5.33957 7.39173 5.35451L7.39 5.35302C7.32534 5.47502 7.13326 5.80766 6.56275 6.79546C6.53931 6.83597 6.5331 6.88301 6.54505 6.928C6.55717 6.97299 6.58619 7.0109 6.62639 7.03411C6.75114 7.10576 6.92199 7.05951 6.99309 6.93563L7.46968 6.11049C7.49816 6.06133 7.55574 6.03718 7.61095 6.05213C7.66586 6.06684 7.70401 6.11663 7.70401 6.17342V8.7674C7.70401 8.8898 7.79635 8.99543 7.90986 9.0029C7.97531 9.00636 8.03634 8.98442 8.0822 8.93864C8.12389 8.89695 8.14686 8.84142 8.14686 8.78203V7.08553C8.14686 7.01615 8.2031 6.95991 8.27248 6.95991C8.34185 6.95991 8.39809 7.01607 8.39809 7.08553L8.39801 9.16764C8.39801 9.28972 8.49736 9.38906 8.61944 9.38906C8.67874 9.38906 8.73443 9.3661 8.7762 9.32441C8.81789 9.28264 8.84086 9.22695 8.84086 9.16764V7.08553C8.84086 7.01615 8.89702 6.95991 8.96648 6.95991C9.03585 6.95991 9.09209 7.01607 9.09209 7.08553L9.09202 8.76252V8.78202C9.09202 8.90402 9.19136 9.00336 9.31352 9.00336C9.37275 9.00336 9.42828 8.98032 9.47028 8.93847C9.51197 8.89686 9.53494 8.84133 9.53494 8.78194V7.08544C9.53494 7.01606 9.5911 6.95982 9.66056 6.95982C9.72993 6.95982 9.78618 7.01598 9.78618 7.08544L9.78602 8.366C9.78602 8.48816 9.88536 8.5875 10.0074 8.5875C10.0667 8.5875 10.1223 8.56446 10.164 8.52285C10.2058 8.481 10.2287 8.42531 10.2287 8.366L10.2288 5.7704C10.2288 4.90478 9.58804 4.20038 8.80042 4.20038L8.80042 4.20035Z" fill="#FF3333"/>
<path d="M10.0074 8.8386V8.39344H11.5801L10.2407 9.21772L10.0074 8.8386ZM9.78603 8.78094H9.34087V8.03714L9.99639 8.38862L9.78603 8.78094ZM9.64767 9.11611L9.33289 8.80134L9.33331 8.80092L9.64767 9.11611ZM9.08926 9.19532L8.64486 9.16934L8.68582 8.46874L9.30216 8.80437L9.08926 9.19532ZM8.95373 9.50178L9.26867 9.81638L9.2685 9.81655L8.95373 9.50178ZM8.1496 9.19524L7.93794 8.80362L8.55255 8.47145L8.59397 9.16884L8.1496 9.19524ZM7.8934 9.25345L7.86487 9.69769L7.86427 9.69765L7.8934 9.25345ZM7.45284 6.64172L7.0673 6.41918L7.89799 4.98005V6.64172H7.45284ZM7.2108 7.06104L6.82485 6.83921L6.82526 6.8385L7.2108 7.06104ZM6.50106 7.25187L6.27974 7.63811L6.2778 7.63698L6.50106 7.25187ZM6.30253 6.99307L6.73247 6.87767L6.7326 6.87817L6.30253 6.99307ZM6.34532 6.66978L5.96008 6.44672L6.08868 6.22462H6.34532V6.66978ZM7.18556 5.21429L7.59098 5.39812L7.58224 5.4174L7.57171 5.43576L7.18556 5.21429ZM7.22158 5.13359L6.81484 4.9527L6.81484 4.9527L7.22158 5.13359ZM7.25721 5.04219L7.67682 5.19082L7.67678 5.19094L7.25721 5.04219ZM10.4798 5.77034L10.0347 5.77036V5.77034H10.4798ZM10.4799 8.36594L10.9251 8.36593V8.36594H10.4799ZM10.3417 8.70025L10.6568 9.01473L10.6565 9.01502L10.3417 8.70025ZM10.0074 8.83861V9.28376H8.4346L9.77405 8.45949L10.0074 8.83861ZM8.80042 4.20035V3.7552H9.39058L9.22845 4.32265L8.80042 4.20035ZM7.49391 5.12617L7.91351 5.27482L7.91317 5.27578L7.49391 5.12617ZM7.45112 5.23566L7.85779 5.41671L7.85769 5.41694L7.45112 5.23566ZM7.39173 5.35451L7.72695 5.64741L7.43574 5.98071L7.10077 5.69142L7.39173 5.35451ZM7.39 5.35302L6.99667 5.14456L7.25823 4.65103L7.68096 5.01612L7.39 5.35302ZM6.56275 6.79546L6.94823 7.01809L6.94805 7.01842L6.56275 6.79546ZM6.54505 6.928L6.1152 7.04372L6.11483 7.04233L6.54505 6.928ZM6.62639 7.03411L6.40466 7.42011L6.40383 7.41963L6.62639 7.03411ZM6.99309 6.93563L6.607 6.71404L6.60762 6.71298L6.99309 6.93563ZM7.46968 6.11049L7.08421 5.88784L7.08448 5.88738L7.46968 6.11049ZM7.61095 6.05213L7.49576 6.48212L7.49465 6.48182L7.61095 6.05213ZM7.90986 9.0029L7.88635 9.44747L7.88063 9.4471L7.90986 9.0029ZM8.0822 8.93864L8.39697 9.25341L8.3967 9.25368L8.0822 8.93864ZM8.39809 7.08553L8.84325 7.08553L8.84325 7.08555L8.39809 7.08553ZM8.39801 9.16764L7.95286 9.16764L7.95286 9.16763L8.39801 9.16764ZM8.7762 9.32441L9.09127 9.63888L9.09067 9.63948L8.7762 9.32441ZM9.09209 7.08553L9.53725 7.08553L9.53725 7.08555L9.09209 7.08553ZM9.09202 8.76252L8.64686 8.76252L8.64686 8.76249L9.09202 8.76252ZM9.47028 8.93847L9.78476 9.25354L9.78447 9.25383L9.47028 8.93847ZM9.78618 7.08544L10.2313 7.08544L10.2313 7.08549L9.78618 7.08544ZM9.78602 8.366L9.34086 8.366L9.34086 8.36595L9.78602 8.366ZM10.164 8.52285L10.4787 8.83762L10.4784 8.83791L10.164 8.52285ZM10.2287 8.366L9.78355 8.366L9.78355 8.36599L10.2287 8.366ZM10.2288 5.7704L10.6739 5.7704L10.6739 5.77042L10.2288 5.7704ZM8.80042 4.20038V4.64553H8.21026L8.37239 4.07809L8.80042 4.20038ZM10.0074 9.28375C9.84345 9.28375 9.69711 9.23838 9.57567 9.17326L9.99639 8.38862C10.0021 8.39171 10.0058 8.39289 10.0072 8.39328C10.0085 8.39361 10.0083 8.39344 10.0074 8.39344V9.28375ZM10.2312 8.78094V8.78188H9.34087V8.78094H10.2312ZM10.2312 8.78188C10.2312 9.02606 10.1354 9.25842 9.96202 9.4313L9.33331 8.80092C9.33649 8.79775 9.33807 8.79503 9.33899 8.79281C9.33991 8.79058 9.34087 8.78715 9.34087 8.78188H10.2312ZM9.96244 9.43088C9.78969 9.60364 9.55774 9.69963 9.31344 9.69963V8.80931C9.31855 8.80931 9.32191 8.80839 9.32419 8.80744C9.32647 8.8065 9.32942 8.80482 9.33289 8.80134L9.96244 9.43088ZM9.31344 9.69963C9.14739 9.69963 8.99922 9.65317 8.87636 9.58626L9.30216 8.80437C9.30795 8.80753 9.31163 8.80873 9.31309 8.80913C9.31433 8.80947 9.31423 8.80931 9.31344 8.80931V9.69963ZM9.53366 9.2213C9.52085 9.44041 9.43196 9.65292 9.26867 9.81638L8.63879 9.18717C8.64045 9.18551 8.6414 9.18406 8.64221 9.18222C8.64309 9.18021 8.64447 9.17613 8.64486 9.16934L9.53366 9.2213ZM9.2685 9.81655C9.09572 9.98933 8.86376 10.0853 8.61942 10.0853V9.19498C8.62461 9.19498 8.628 9.19404 8.63027 9.1931C8.63255 9.19216 8.63548 9.19048 8.63896 9.187L9.2685 9.81655ZM8.61942 10.0853C8.12797 10.0853 7.73362 9.69958 7.70523 9.22164L8.59397 9.16884C8.59442 9.17642 8.59752 9.18306 8.603 9.18828C8.60567 9.19083 8.60839 9.19247 8.61074 9.19344C8.61281 9.19429 8.61545 9.19498 8.61942 9.19498V10.0853ZM8.36126 9.58686C8.21747 9.66457 8.04698 9.70939 7.86487 9.69769L7.92194 8.80921C7.92195 8.80921 7.9229 8.8093 7.92525 8.80875C7.92776 8.80817 7.93211 8.80677 7.93794 8.80362L8.36126 9.58686ZM7.86427 9.69765C7.37 9.66523 7.00768 9.2449 7.00768 8.76733H7.89799C7.89799 8.78238 7.90346 8.79397 7.91031 8.80153C7.91698 8.8089 7.92152 8.80918 7.92253 8.80925L7.86427 9.69765ZM7.00768 8.76733V6.64172H7.89799V8.76733H7.00768ZM7.83837 6.86426L7.59633 7.28358L6.82526 6.8385L7.0673 6.41918L7.83837 6.86426ZM7.59674 7.28288C7.42473 7.58214 7.10455 7.76616 6.76024 7.76616V6.87585C6.78754 6.87585 6.81249 6.86072 6.82485 6.83921L7.59674 7.28288ZM6.76024 7.76616C6.5919 7.76616 6.42619 7.72202 6.27975 7.63811L6.72238 6.86562C6.73435 6.87248 6.74751 6.87585 6.76024 6.87585V7.76616ZM6.2778 7.63698C6.07794 7.52112 5.93246 7.33256 5.87246 7.10798L6.7326 6.87817C6.73219 6.87665 6.73108 6.87396 6.72894 6.87117C6.72681 6.86839 6.72484 6.86705 6.72433 6.86675L6.2778 7.63698ZM5.87259 7.10848C5.81236 6.88407 5.84389 6.64738 5.96008 6.44672L6.73056 6.89284C6.73119 6.89175 6.7323 6.88921 6.73278 6.88561C6.73326 6.882 6.73286 6.87912 6.73247 6.87767L5.87259 7.10848ZM6.34532 6.22462C6.12696 6.28186 5.96351 6.44091 5.96229 6.44296C5.96188 6.44364 5.96128 6.44467 5.96108 6.445C5.96097 6.44519 5.96078 6.44552 5.96072 6.44563C5.96068 6.4457 5.9606 6.44584 5.96058 6.44587C5.96051 6.44598 5.96053 6.44594 5.9607 6.44565C5.961 6.44513 5.96151 6.44426 5.96225 6.44298C5.96371 6.44045 5.96591 6.43665 5.96881 6.43163C5.97461 6.4216 5.98313 6.40685 5.994 6.38803C6.01574 6.35039 6.04686 6.29651 6.08436 6.23158C6.15935 6.10172 6.25984 5.9277 6.36184 5.75104C6.56618 5.39713 6.77567 5.0342 6.7994 4.99283L7.57171 5.43576C7.54713 5.47861 7.33655 5.84343 7.13286 6.19621C7.03085 6.37289 6.93035 6.54694 6.85534 6.67683C6.81783 6.74177 6.7867 6.79568 6.76493 6.83336C6.75405 6.85219 6.7455 6.86699 6.73967 6.87709C6.73675 6.88213 6.73449 6.88604 6.73295 6.88871C6.73219 6.89003 6.73156 6.89112 6.73109 6.89192C6.73088 6.89229 6.73061 6.89275 6.73036 6.89319C6.73026 6.89335 6.72998 6.89384 6.72963 6.89443C6.72942 6.8948 6.72879 6.89586 6.72837 6.89657C6.72714 6.89864 6.56369 7.0577 6.34532 7.11493V6.22462ZM6.78013 5.03046C6.78503 5.01966 6.80056 4.98481 6.81484 4.9527L7.62833 5.31448C7.61477 5.34498 7.59757 5.3836 7.59098 5.39812L6.78013 5.03046ZM6.81484 4.9527C6.82103 4.93879 6.82787 4.92101 6.83765 4.89344L7.67678 5.19094C7.66469 5.22504 7.64873 5.26861 7.62833 5.31448L6.81484 4.9527ZM6.8376 4.89356C7.1391 4.04237 7.89799 3.50408 8.80042 3.50408V4.39439C8.27662 4.39439 7.85292 4.69366 7.67682 5.19082L6.8376 4.89356ZM8.80042 3.50408C10.0056 3.50408 10.925 4.55496 10.925 5.77034H10.0347C10.0347 4.9774 9.44734 4.39439 8.80042 4.39439V3.50408ZM10.925 5.77033L10.9251 8.36593L10.0348 8.36595L10.0347 5.77036L10.925 5.77033ZM10.9251 8.36594C10.9251 8.61005 10.8293 8.84189 10.6568 9.01473L10.0267 8.38577C10.0302 8.38224 10.0319 8.37924 10.0329 8.37691C10.0338 8.37457 10.0348 8.37113 10.0348 8.36594H10.9251ZM10.6565 9.01502C10.4837 9.18782 10.2517 9.28376 10.0074 9.28376V8.39345C10.0126 8.39345 10.016 8.3925 10.0183 8.39156C10.0205 8.39062 10.0235 8.38895 10.0269 8.38547L10.6565 9.01502ZM9.77405 8.45949L9.77406 8.45948L10.2407 9.21772L10.2407 9.21773L9.77405 8.45949ZM8.80042 4.64551C8.37718 4.64551 8.05624 4.87192 7.91351 5.27482L7.0743 4.97752C7.34232 4.221 7.99816 3.7552 8.80042 3.7552V4.64551ZM7.91317 5.27578C7.89912 5.31516 7.88086 5.36489 7.85779 5.41671L7.04444 5.05462C7.05331 5.0347 7.06243 5.01081 7.07465 4.97656L7.91317 5.27578ZM7.85769 5.41694C7.8373 5.46266 7.82022 5.50127 7.80716 5.52743C7.79904 5.54366 7.78591 5.56868 7.76687 5.59639C7.74757 5.62446 7.7285 5.64564 7.72695 5.64741L7.05651 5.06162C7.05755 5.06042 7.05721 5.06081 7.05668 5.06142C7.056 5.06221 7.05427 5.06423 7.052 5.067C7.04693 5.07318 7.0403 5.0817 7.03314 5.09212C7.01921 5.11238 7.01142 5.1281 7.01074 5.12947C7.01023 5.13048 7.01055 5.12989 7.01206 5.12665C7.01352 5.12351 7.0156 5.11899 7.01858 5.11241C7.02466 5.09898 7.03274 5.08085 7.04454 5.05438L7.85769 5.41694ZM7.10077 5.69142L7.09904 5.68992L7.68096 5.01612L7.68269 5.01761L7.10077 5.69142ZM7.78333 5.56147C7.71366 5.69293 7.51476 6.03719 6.94823 7.01809L6.17727 6.57282C6.75176 5.57813 6.93703 5.2571 6.99667 5.14456L7.78333 5.56147ZM6.94805 7.01842C6.98367 6.95686 6.99359 6.88259 6.97527 6.81366L6.11483 7.04233C6.0726 6.88342 6.09495 6.71507 6.17746 6.5725L6.94805 7.01842ZM6.9749 6.81227C6.95658 6.74423 6.91156 6.68473 6.84894 6.64858L6.40383 7.41963C6.26082 7.33708 6.15775 7.20175 6.1152 7.04372L6.9749 6.81227ZM6.84811 6.6481C6.79744 6.61899 6.74816 6.61918 6.71413 6.62835C6.68023 6.63747 6.63676 6.6622 6.60701 6.71404L7.37918 7.15721C7.18517 7.49525 6.74179 7.61376 6.40466 7.42011L6.84811 6.6481ZM6.60762 6.71298L7.08421 5.88784L7.85516 6.33314L7.37857 7.15827L6.60762 6.71298ZM7.08448 5.88738C7.21306 5.66539 7.4755 5.5543 7.72725 5.62243L7.49465 6.48182C7.63597 6.52007 7.78326 6.45727 7.85489 6.33361L7.08448 5.88738ZM7.72615 5.62214C7.97589 5.68904 8.14916 5.91536 8.14916 6.17342H7.25885C7.25885 6.3179 7.35583 6.44463 7.49576 6.48212L7.72615 5.62214ZM8.14916 6.17342V8.7674H7.25885V6.17342H8.14916ZM8.14916 8.7674C8.14916 8.71668 8.13037 8.67056 8.09952 8.63527C8.06872 8.60004 8.01437 8.56366 7.9391 8.55871L7.88063 9.4471C7.50589 9.42243 7.25885 9.096 7.25885 8.7674H8.14916ZM7.93337 8.55837C7.88078 8.55559 7.81653 8.57485 7.7677 8.62359L8.3967 9.25368C8.25616 9.39398 8.06983 9.45714 7.88635 9.44743L7.93337 8.55837ZM7.76743 8.62387C7.72518 8.66611 7.7017 8.72399 7.7017 8.78203H8.59201C8.59201 8.95884 8.5226 9.12779 8.39697 9.25341L7.76743 8.62387ZM7.7017 8.78203V7.08553H8.59201V8.78203H7.7017ZM7.7017 7.08553C7.7017 6.7703 7.95725 6.51476 8.27248 6.51476V7.40507C8.44895 7.40507 8.59201 7.262 8.59201 7.08553H7.7017ZM8.27248 6.51476C8.58753 6.51476 8.84325 6.77004 8.84325 7.08553H7.95294C7.95294 7.2621 8.09618 7.40507 8.27248 7.40507V6.51476ZM8.84325 7.08555L8.84317 9.16766L7.95286 9.16763L7.95294 7.08551L8.84325 7.08555ZM8.84317 9.16764C8.84317 9.04387 8.74321 8.94391 8.61944 8.94391V9.83422C8.25151 9.83422 7.95286 9.53558 7.95286 9.16764H8.84317ZM8.61944 8.94391C8.5615 8.94391 8.50389 8.96725 8.46173 9.00933L9.09067 9.63948C8.96497 9.76494 8.79599 9.83422 8.61944 9.83422V8.94391ZM8.46113 9.00993C8.41905 9.0521 8.3957 9.10971 8.3957 9.16764H9.28602C9.28602 9.3442 9.21674 9.51318 9.09127 9.63888L8.46113 9.00993ZM8.3957 9.16764V7.08553H9.28602V9.16764H8.3957ZM8.3957 7.08553C8.3957 6.77048 8.65098 6.51475 8.96648 6.51475V7.40506C9.14306 7.40506 9.28602 7.26182 9.28602 7.08553H8.3957ZM8.96648 6.51475C9.28152 6.51475 9.53725 6.77004 9.53725 7.08553H8.64694C8.64694 7.26211 8.79018 7.40506 8.96648 7.40506V6.51475ZM9.53725 7.08555L9.53717 8.76254L8.64686 8.76249L8.64694 7.08551L9.53725 7.08555ZM9.53717 8.76252V8.78202H8.64686V8.76252H9.53717ZM9.53717 8.78202C9.53717 8.65795 9.437 8.55821 9.31352 8.55821V9.44852C8.94573 9.44852 8.64686 9.15009 8.64686 8.78202H9.53717ZM9.31352 8.55821C9.25437 8.55821 9.1971 8.58226 9.1561 8.62311L9.78447 9.25383C9.65946 9.37837 9.49113 9.44852 9.31352 9.44852V8.55821ZM9.15581 8.6234C9.11323 8.6659 9.08979 8.72398 9.08979 8.78194H9.9801C9.9801 8.95867 9.91072 9.12782 9.78476 9.25354L9.15581 8.6234ZM9.08979 8.78194V7.08544H9.9801V8.78194H9.08979ZM9.08979 7.08544C9.08979 6.77039 9.34507 6.51467 9.66056 6.51467V7.40498C9.83713 7.40498 9.9801 7.26174 9.9801 7.08544H9.08979ZM9.66056 6.51467C9.97561 6.51467 10.2313 6.76995 10.2313 7.08544H9.34102C9.34102 7.26202 9.48426 7.40498 9.66056 7.40498V6.51467ZM10.2313 7.08549L10.2312 8.36605L9.34086 8.36595L9.34102 7.08538L10.2313 7.08549ZM10.2312 8.366C10.2312 8.24251 10.1314 8.14235 10.0074 8.14235V9.03266C9.6393 9.03266 9.34086 8.7338 9.34086 8.366H10.2312ZM10.0074 8.14235C9.94896 8.14235 9.89136 8.16599 9.84949 8.20778L10.4784 8.83791C10.3532 8.96292 10.1845 9.03266 10.0074 9.03266V8.14235ZM9.84919 8.20807C9.80681 8.25046 9.78355 8.30831 9.78355 8.366H10.6739C10.6739 8.5423 10.6048 8.71154 10.4787 8.83762L9.84919 8.20807ZM9.78355 8.36599L9.78362 5.77039L10.6739 5.77042L10.6739 8.36601L9.78355 8.36599ZM9.78362 5.7704C9.78362 5.11006 9.30349 4.64553 8.80042 4.64553V3.75522C9.87259 3.75522 10.6739 4.69949 10.6739 5.7704H9.78362ZM8.37239 4.07809L8.3724 4.07806L9.22845 4.32265L9.22844 4.32267L8.37239 4.07809Z" fill="#FF3333" mask="url(#path-1-inside-1_212_1413)"/>
</g>
<path id="Vector_2" d="M5.93872 11.2247C5.8791 11.2606 5.80201 11.2413 5.76638 11.1817C5.73067 11.1223 5.75002 11.0451 5.8094 11.0094M5.93872 11.2247L7.02396 9.76445C7.12882 9.70145 7.2671 9.72631 7.33175 9.81983M5.93872 11.2247L7.39342 10.352H7.3935L7.39366 10.352M5.93872 11.2247L7.37892 10.3274L7.39342 10.3516L7.3935 10.3517L7.39366 10.352M5.8094 11.0094L7.26419 10.1367C7.315 10.1061 7.35095 10.0578 7.36526 10.0006M5.8094 11.0094L5.82413 11.0339M5.8094 11.0094L5.82416 11.0339M7.36526 10.0006C7.38099 9.93782 7.36904 9.87363 7.33175 9.81983M7.36526 10.0006L7.40117 10.0096L7.27889 10.1612L7.2789 10.1612L7.27891 10.1612L7.33178 10.1295H7.33188L7.4047 10.0858L7.40117 10.0096L7.36526 10.0006ZM7.33175 9.81983L7.3318 9.81979L7.33175 9.81983ZM5.82416 11.0339L5.85723 11.0889L5.87413 11.117L5.87423 11.1172L5.9241 11.2001C5.96968 11.1727 5.98482 11.1135 5.95737 11.0674L5.82416 11.0339ZM5.82416 11.0339C5.82415 11.0339 5.82414 11.0339 5.82413 11.0339M5.82416 11.0339L5.92399 11.2002L5.92396 11.2002L5.9239 11.2002L5.89661 11.1548L5.8966 11.1547L5.87411 11.1173L5.87401 11.1171L5.82413 11.0339M5.82416 11.0339L5.82413 11.0339M7.39366 10.3181C7.42172 10.2998 7.44741 10.2785 7.47035 10.2547L7.7098 10.1297L7.70981 10.1297L7.72307 10.1228C7.76156 10.1027 7.80038 10.0933 7.83725 10.0933C7.85718 10.0933 7.87775 10.0957 7.89869 10.1009C7.89871 10.1009 7.89872 10.1009 7.89873 10.1009L7.39366 10.3181ZM7.39366 10.3181V10.352M7.39366 10.3181V10.352M5.11265 10.1108L5.1685 10.1418L5.16851 10.1418L5.28235 10.205L5.28228 10.2051L5.28217 10.2053L5.26832 10.1976L5.26829 10.1975L5.11263 10.1108L5.11265 10.1108ZM5.11265 10.1108L5.08774 10.0969L5.11271 10.1107L5.11265 10.1108ZM6.89477 9.54906C7.11454 9.41707 7.39731 9.47316 7.53827 9.6768L6.89477 9.54906ZM6.48051 12.372C6.4448 12.3125 6.46407 12.2353 6.52354 12.1996L7.62168 11.5409L7.97832 11.3269L6.48051 12.372ZM6.18132 11.629L6.18145 11.6289C6.18139 11.629 6.18133 11.629 6.18127 11.629L6.18132 11.629ZM4.50325 9.779C4.5183 9.75189 4.53363 9.72426 4.54927 9.69609L4.52396 9.68276C4.51927 9.69121 4.50754 9.71235 4.4902 9.74359C4.48608 9.75101 4.48165 9.75899 4.47692 9.76751C4.48564 9.77187 4.49444 9.77568 4.50325 9.779ZM8.10784 12.3514L8.09311 12.3269L8.10784 12.3514ZM3.68313 11.2367L3.68322 11.2365L3.68313 11.2367ZM8.3229 11.2517L8.32297 11.2517L8.3229 11.2517Z" fill="#FF3333" stroke="#FF3333" stroke-width="0.445155"/>
<path id="Vector_3" d="M13.5789 11.2201C13.5977 11.2467 13.618 11.2722 13.639 11.2975L13.5789 11.2201ZM13.5789 11.2201C13.5592 11.192 13.5361 11.1589 13.5285 11.1478L13.5789 11.2201ZM8.96892 10.8938L8.99342 10.9085L8.96892 10.8938ZM8.96892 10.8938L8.99344 10.9085C8.99397 10.9076 8.99451 10.9067 8.99505 10.9058L8.96892 10.8938ZM9.86077 10.328L9.86027 10.3277L9.8603 10.3277L9.86077 10.328ZM11.4143 11.0339C11.4143 11.0338 11.4142 11.0338 11.4142 11.0338L11.4143 11.0338L11.4143 11.0339ZM9.01982 10.1151C9.01984 10.1151 9.01986 10.1151 9.01988 10.115L9.08312 10.1531L9.08313 10.1531L9.16271 10.2009L9.16272 10.2009L9.18609 10.215C9.18609 10.215 9.1861 10.215 9.1861 10.215L9.1862 10.2148L9.01982 10.1151ZM11.0719 11.6045L11.0718 11.6048L11.0719 11.6045ZM11.4856 13.4713L11.471 13.4957L11.4856 13.4713ZM10.7147 12.1998L10.7148 12.1997L10.7147 12.1998ZM10.7002 12.2243C10.7002 12.2243 10.7001 12.2243 10.7001 12.2242L10.7002 12.2243ZM8.94218 10.4581L8.94194 10.4582L8.94218 10.4581Z" fill="#FF3333" stroke="#FF3333" stroke-width="0.445155"/>
</g>
</g>
</svg>
