<svg width="17" height="17" viewBox="0 0 17 17" fill="none" xmlns="http://www.w3.org/2000/svg">
<g id="Icon">
<g id="Vector">
<path d="M13.7577 14.3214V12.986C13.7577 12.2776 13.4763 11.5982 12.9754 11.0973C12.4745 10.5964 11.7951 10.315 11.0868 10.315H10.419C10.2419 10.315 10.0721 10.2447 9.94688 10.1195C9.82166 9.99424 9.75131 9.8244 9.75131 9.64731V6.30864C9.75131 5.95446 9.6106 5.61478 9.36016 5.36433C9.10971 5.11388 8.77003 4.97318 8.41584 4.97318V4.97318C8.06165 4.97318 7.72197 5.11388 7.47152 5.36433C7.22107 5.61478 7.08037 5.95446 7.08037 6.30864V12.3182L5.47781 10.1815C5.35342 10.0156 5.19212 9.88102 5.00668 9.7883C4.82124 9.69558 4.61677 9.64731 4.40944 9.64731H4.11964C3.54206 9.64731 3.07397 10.1154 3.07397 10.693C3.07397 10.8826 3.12539 11.0689 3.22288 11.2312L5.07717 14.3214M8.41584 2.96998V2.30225ZM12.4222 6.97638H13.09ZM3.74171 6.97638H4.40944ZM5.30621 3.86674L4.83412 3.39466ZM11.5255 3.86674L11.9976 3.39466Z" fill="#FF3333"/>
<path d="M13.7577 14.3214V12.986C13.7577 12.2776 13.4763 11.5982 12.9754 11.0973C12.4745 10.5964 11.7951 10.315 11.0868 10.315H10.419C10.2419 10.315 10.0721 10.2447 9.94688 10.1195C9.82166 9.99424 9.75131 9.8244 9.75131 9.64731V6.30864C9.75131 5.95446 9.6106 5.61478 9.36016 5.36433C9.10971 5.11388 8.77003 4.97318 8.41584 4.97318V4.97318C8.06165 4.97318 7.72197 5.11388 7.47152 5.36433C7.22107 5.61478 7.08037 5.95446 7.08037 6.30864V12.3182L5.47781 10.1815C5.35342 10.0156 5.19212 9.88102 5.00668 9.7883C4.82124 9.69558 4.61677 9.64731 4.40944 9.64731H4.11964C3.54206 9.64731 3.07397 10.1154 3.07397 10.693C3.07397 10.8826 3.12539 11.0689 3.22288 11.2312L5.07717 14.3214M8.41584 2.96998V2.30225M12.4222 6.97638H13.09M3.74171 6.97638H4.40944M5.30621 3.86674L4.83412 3.39466M11.5255 3.86674L11.9976 3.39466" stroke="#FF3333" stroke-width="0.667733" stroke-linecap="round" stroke-linejoin="round"/>
</g>
</g>
</svg>
