<svg width="35" height="34" viewBox="0 0 35 34" fill="none" xmlns="http://www.w3.org/2000/svg">
<g id="Icon">
<path id="Vector" d="M17.3729 7.25641C14.8871 7.25641 12.8634 9.2986 12.8634 11.795C12.8634 13.3743 13.6743 14.7687 14.8989 15.5815C13.4199 16.0761 12.1401 17.0003 11.2014 18.2095C10.6824 17.8104 10.1025 17.4893 9.47742 17.2593C10.4254 16.5555 11.0448 15.425 11.0448 14.1544C11.0448 12.0372 9.33245 10.3039 7.22801 10.3039C5.12358 10.3039 3.41119 12.0372 3.41119 14.1544C3.41119 15.4258 4.03118 16.5568 4.97993 17.2605C2.46811 18.1874 0.674194 20.6142 0.674194 23.4701V25.4763C0.674451 25.6293 0.735627 25.7758 0.844097 25.8835C0.952566 25.9914 1.09934 26.0516 1.25228 26.0511H10.0541C10.0754 26.0534 10.0967 26.0547 10.1181 26.0544H24.6282C24.6495 26.0547 24.6711 26.0534 24.6922 26.0511H33.4947C33.8111 26.0498 34.0673 25.793 34.0681 25.4763V23.4701C34.0681 20.6142 32.2773 18.1874 29.7668 17.2603C30.7155 16.5568 31.3355 15.4255 31.3355 14.1542C31.3355 12.0369 29.6231 10.3037 27.5187 10.3037C25.4143 10.3037 23.7019 12.0369 23.7019 14.1542C23.7019 15.4248 24.3216 16.5555 25.2696 17.259C24.6432 17.4896 24.063 17.8117 23.5433 18.2118C22.6051 17.0019 21.3271 16.0763 19.8481 15.5815C21.0723 14.7687 21.8836 13.3743 21.8836 11.795C21.8836 9.2986 19.8589 7.25641 17.373 7.25641H17.3729ZM17.3729 8.40796C19.2321 8.40796 20.7309 9.91681 20.7309 11.795C20.7309 13.6586 19.2554 15.1527 17.4168 15.1767C17.4022 15.1767 17.3878 15.1746 17.3729 15.1746C17.358 15.1746 17.3438 15.1767 17.3289 15.1767C15.4903 15.153 14.0159 13.6586 14.0159 11.795C14.0159 9.91655 15.5134 8.40796 17.3726 8.40796H17.3729ZM7.22808 11.4554C8.70325 11.4554 9.89335 12.6527 9.89335 14.1544C9.89335 15.646 8.71864 16.8381 7.25736 16.8543C7.24759 16.8543 7.23808 16.8533 7.22806 16.8533C7.21829 16.8533 7.20878 16.8543 7.19876 16.8543C5.73748 16.8381 4.56277 15.6457 4.56277 14.1544C4.56277 12.6528 5.75287 11.4554 7.22804 11.4554H7.22808ZM27.5184 11.4554C28.9935 11.4554 30.1836 12.6527 30.1836 14.1544C30.1836 15.646 29.0089 16.8381 27.5476 16.8543C27.5379 16.8543 27.5284 16.8533 27.5183 16.8533C27.5086 16.8533 27.4991 16.8543 27.489 16.8543C26.0277 16.8381 24.853 15.6457 24.853 14.1544C24.853 12.6528 26.0431 11.4554 27.5183 11.4554H27.5184ZM17.3288 16.3282C17.3435 16.3284 17.3578 16.3302 17.3728 16.3302C17.3874 16.3302 17.4018 16.3282 17.4167 16.3282C21.104 16.3518 24.0549 19.3281 24.0549 23.0539L24.0546 24.9025H10.6914V23.0539C10.6914 19.3278 13.6415 16.3519 17.3283 16.3282H17.3288ZM7.18399 18.0072C7.19864 18.0074 7.21304 18.0092 7.22795 18.0092C7.24286 18.0092 7.25699 18.0072 7.2719 18.0072C8.51906 18.0172 9.65725 18.4472 10.5636 19.1667C9.91503 20.3142 9.53999 21.6386 9.53999 23.0542V24.8984H1.82528V23.4701C1.82528 20.4421 4.20602 18.0308 7.18386 18.0069L7.18399 18.0072ZM27.4743 18.0072C27.4892 18.0074 27.5033 18.0092 27.5182 18.0092C27.5331 18.0092 27.5473 18.0072 27.5622 18.0072C30.54 18.0308 32.9208 20.4424 32.9208 23.4703V24.8984H25.2021L25.2018 23.0542C25.2018 21.6394 24.8278 20.3159 24.1806 19.1687C25.0871 18.4483 26.2261 18.0172 27.4743 18.0072H27.4743Z" fill="#103E13"/>
</g>
</svg>
