<svg width="17" height="17" viewBox="0 0 17 17" fill="none" xmlns="http://www.w3.org/2000/svg">
<g id="Icon" clip-path="url(#clip0_212_1407)">
<path id="Vector" d="M2.01807 13.7337C2.45697 13.1086 3.03993 12.5983 3.71767 12.2461C4.3954 11.8938 5.14798 11.7099 5.91179 11.7099C6.6756 11.7099 7.42819 11.8938 8.10592 12.2461C8.78365 12.5983 9.36661 13.1086 9.80551 13.7337C9.85993 13.8197 9.93125 13.8937 10.0151 13.9513C10.099 14.0089 10.1938 14.0489 10.2936 14.0688C10.3934 14.0886 10.4962 14.088 10.5958 14.067C10.6953 14.0459 10.7896 14.0048 10.8728 13.9463C10.956 13.8877 11.0264 13.8128 11.0798 13.7262C11.1332 13.6395 11.1684 13.5429 11.1834 13.4423C11.1983 13.3416 11.1926 13.239 11.1667 13.1405C11.1408 13.0421 11.0951 12.95 11.0325 12.8698C10.4235 12.0042 9.60583 11.3078 8.65655 10.8443C8.63732 10.8611 8.61793 10.8777 8.59837 10.8942L8.49091 10.7665L2.01807 13.7337ZM2.01807 13.7337C1.94925 13.8325 1.85748 13.9132 1.75063 13.9688C1.64378 14.0244 1.52504 14.0533 1.40459 14.053C1.24974 14.0535 1.09864 14.0053 0.972654 13.9152L2.01807 13.7337ZM11.0139 5.03438C10.7697 5.03393 10.5266 5.0677 10.2918 5.13469L10.2918 5.13467L10.2899 5.13525C10.2156 5.1574 10.1377 5.16455 10.0607 5.1563C9.9836 5.14805 9.90896 5.12455 9.84108 5.08717C9.7732 5.04979 9.71343 4.99928 9.66525 4.93859C9.61707 4.87789 9.58145 4.80821 9.56046 4.73361C9.53947 4.65902 9.53353 4.58099 9.54298 4.50408C9.55244 4.42716 9.5771 4.3529 9.61553 4.2856C9.65396 4.21831 9.7054 4.15934 9.76684 4.11211C9.82828 4.06489 9.8985 4.03036 9.97342 4.01053L9.97342 4.01056L9.97642 4.00971C10.3137 3.91369 10.6627 3.86527 11.0134 3.86585L11.0142 3.86585C11.8022 3.86356 12.5717 4.10418 13.2181 4.55495C13.8644 5.00571 14.3561 5.64472 14.6262 6.38497C14.8964 7.12522 14.9318 7.93073 14.7277 8.69184C14.5236 9.45295 14.0899 10.1327 13.4857 10.6384L13.2819 10.809L13.524 10.9185C14.5167 11.3678 15.3709 12.0747 15.9978 12.9659L15.9986 12.9669C16.0431 13.0292 16.0748 13.0998 16.0919 13.1745C16.1089 13.2491 16.111 13.3265 16.0978 13.4019C16.0847 13.4774 16.0568 13.5495 16.0155 13.6141C15.9743 13.6787 15.9207 13.7344 15.8577 13.778L15.9528 13.9152L15.8558 13.7794C15.7583 13.8491 15.6414 13.8864 15.5216 13.886C15.428 13.8854 15.3358 13.8626 15.2526 13.8193C15.1696 13.7761 15.0979 13.7137 15.0437 13.6373C14.5885 12.9916 13.9849 12.4645 13.2837 12.1003C12.5825 11.7362 11.8041 11.5456 11.0139 11.5448H11.0137C10.8587 11.5448 10.7101 11.4832 10.6006 11.3737C10.491 11.2641 10.4294 11.1155 10.4294 10.9605C10.4294 10.8056 10.491 10.6569 10.6006 10.5474C10.7101 10.4378 10.8587 10.3762 11.0137 10.3762C11.7221 10.3762 12.4014 10.0948 12.9023 9.59395C13.4032 9.09305 13.6846 8.41369 13.6846 7.70531C13.6846 6.99694 13.4032 6.31758 12.9023 5.81668C12.4015 5.31583 11.7222 5.03443 11.0139 5.03438ZM11.0139 5.03438C11.0139 5.03438 11.014 5.03438 11.014 5.03438L11.0137 5.20131V5.03438C11.0138 5.03438 11.0138 5.03438 11.0139 5.03438ZM8.38345 10.6387L8.18068 10.8093L8.42209 10.9185C9.41477 11.3678 10.269 12.0747 10.8959 12.9659L10.8958 12.966L10.9009 12.9725C10.9496 13.0349 10.9851 13.1066 11.0053 13.1831C11.0255 13.2596 11.0299 13.3395 11.0183 13.4178C11.0066 13.4961 10.9792 13.5712 10.9377 13.6386C10.8962 13.706 10.8414 13.7642 10.7767 13.8098C10.712 13.8553 10.6386 13.8873 10.5612 13.9037C10.4838 13.92 10.4038 13.9205 10.3262 13.905C10.2486 13.8896 10.1749 13.8585 10.1096 13.8137C10.0444 13.7689 9.9889 13.7113 9.94658 13.6444L9.94674 13.6443L9.94213 13.6378C9.48783 12.9907 8.88442 12.4626 8.18291 12.0979C7.48139 11.7333 6.7024 11.543 5.91179 11.543C5.12118 11.543 4.34219 11.7333 3.64068 12.0979C2.93917 12.4626 2.33575 12.9907 1.88145 13.6378L1.88108 13.6383C1.82767 13.715 1.75647 13.7776 1.67357 13.8207C1.59066 13.8639 1.49853 13.8863 1.40507 13.886L1.40405 13.886C1.28419 13.8864 1.16724 13.8491 1.06973 13.7794L1.06892 13.7789C0.94253 13.6896 0.856684 13.5539 0.830215 13.4015C0.803753 13.2491 0.838791 13.0925 0.927645 12.9659C1.55459 12.0747 2.40881 11.3678 3.4015 10.9185L3.64291 10.8093L3.44014 10.6387C2.8375 10.1317 2.40533 9.45172 2.20222 8.69084C1.99911 7.92996 2.03489 7.12503 2.3047 6.38517C2.57451 5.64531 3.06531 5.00632 3.71055 4.55481C4.3558 4.10331 5.12427 3.86115 5.91179 3.86115C6.69931 3.86115 7.46779 4.10331 8.11303 4.55481C8.75827 5.00632 9.24907 5.64531 9.51888 6.38517C9.7887 7.12503 9.82448 7.92996 9.62137 8.69084C9.41826 9.45172 8.98609 10.1317 8.38345 10.6387ZM3.69099 6.22142C3.39751 6.66066 3.24086 7.17705 3.24086 7.70531C3.24086 8.41369 3.52226 9.09305 4.02316 9.59395C4.52406 10.0948 5.20342 10.3762 5.91179 10.3762C6.44005 10.3762 6.95645 10.2196 7.39568 9.92611C7.83492 9.63263 8.17726 9.21548 8.37941 8.72744C8.58157 8.23939 8.63446 7.70235 8.5314 7.18424C8.42835 6.66613 8.17396 6.19022 7.80043 5.81668C7.42689 5.44314 6.95098 5.18876 6.43287 5.0857C5.91476 4.98264 5.37772 5.03554 4.88967 5.23769C4.40162 5.43985 3.98448 5.78219 3.69099 6.22142Z" fill="#FF3333" stroke="#FF3333" stroke-width="0.333867"/>
</g>
<defs>
<clipPath id="clip0_212_1407">
<rect width="16.0256" height="16.0256" fill="white" transform="translate(0.403076 0.944458)"/>
</clipPath>
</defs>
</svg>
