<svg width="148" height="146" viewBox="0 0 148 146" fill="none" xmlns="http://www.w3.org/2000/svg">
<path d="M125.734 145.313C125.734 145.361 101.773 145.402 72.2253 145.402C42.6779 145.402 18.7065 145.361 18.7065 145.313C18.7065 145.264 42.6641 145.223 72.2253 145.223C101.787 145.223 125.734 145.268 125.734 145.313Z" fill="#263238"/>
<path d="M102.464 102.775C97.1327 99.0522 95.925 92.1407 96.1355 85.9261C96.17 84.891 96.0561 83.7937 96.5495 82.8862C97.043 81.9787 98.1955 81.3541 99.1237 81.7889C99.8932 82.1512 100.228 83.0483 100.659 83.7902C101.235 84.7783 102.078 85.5835 103.092 86.1125C103.751 86.4575 104.569 86.6646 105.221 86.3057C106.118 85.8123 106.222 84.5804 106.215 83.5452C106.215 81.6198 106.203 79.6967 106.18 77.7758C106.118 76.7444 106.223 75.7097 106.491 74.7117C106.812 73.7317 107.526 72.8242 108.502 72.5482C109.479 72.2721 110.697 72.8415 110.918 73.849C110.956 74.2758 110.966 74.7046 110.949 75.1327C110.976 75.564 111.177 76.0367 111.58 76.1678C111.984 76.299 112.405 75.9988 112.716 75.6951C113.778 74.6599 114.503 73.3108 115.176 71.9788C115.849 70.6469 116.508 69.277 117.474 68.1418C118.44 67.0065 119.776 66.1059 121.27 66.0196C122.764 65.9334 124.32 66.8512 124.693 68.3005C125.065 69.7497 124.22 71.23 123.312 72.4067C121.943 74.1533 120.329 75.6932 118.519 76.9787C118.166 77.1716 117.884 77.4728 117.716 77.8379C117.491 78.5281 118.143 79.2182 118.823 79.4356C119.593 79.6909 120.428 79.6115 121.239 79.7082C122.049 79.8048 122.912 80.1567 123.219 80.9159C123.64 81.9717 122.757 83.0759 121.891 83.8006C120.152 85.2498 118.177 86.3901 116.052 87.1718C115.293 87.4479 114.496 87.6929 113.882 88.2242C113.268 88.7556 112.902 89.6838 113.271 90.4119C113.64 91.14 114.589 91.3712 115.386 91.2228C116.183 91.0744 116.891 90.6466 117.65 90.3602C119.068 89.8253 120.897 89.9219 121.791 91.1469C122.068 91.5689 122.243 92.0493 122.303 92.5504C122.363 93.0515 122.305 93.5597 122.136 94.0351C121.79 94.981 121.259 95.8481 120.573 96.585C118.313 99.2852 115.376 101.337 112.063 102.53C108.775 103.669 105.728 103.98 102.46 102.782" fill="#FF3333"/>
<path d="M123.174 66.8719C123.174 66.8719 123.143 66.9065 123.074 66.9686L122.767 67.2412C122.498 67.4827 122.101 67.8347 121.601 68.3005C120.182 69.6176 118.865 71.0399 117.66 72.5551C116.891 73.5109 116.094 74.5944 115.245 75.771C114.396 76.9477 113.519 78.2175 112.65 79.5667C111.723 80.9894 110.874 82.4616 110.107 83.9766C109.707 84.7668 109.355 85.5914 108.992 86.4334L107.923 89.0041C106.513 92.2421 105.285 95.5564 104.244 98.9315C103.406 101.693 102.829 104.527 102.519 107.396C102.318 109.332 102.286 111.282 102.422 113.224C102.478 113.914 102.529 114.442 102.578 114.801C102.598 114.973 102.612 115.111 102.626 115.211V115.353C102.611 115.308 102.601 115.262 102.595 115.215C102.578 115.115 102.557 114.98 102.529 114.808C102.467 114.463 102.402 113.917 102.34 113.227C102.173 111.282 102.185 109.325 102.374 107.382C102.665 104.501 103.23 101.654 104.061 98.8797C105.093 95.4952 106.318 92.1726 107.729 88.9282L108.827 86.3678C109.189 85.5293 109.544 84.6977 109.948 83.9041C110.721 82.3845 111.576 80.9089 112.512 79.4839C113.395 78.1036 114.286 76.8545 115.124 75.6882C115.963 74.5219 116.773 73.4315 117.539 72.4792C118.756 70.968 120.091 69.5557 121.532 68.2556C122.042 67.7967 122.45 67.4516 122.726 67.2205L123.047 66.9617C123.086 66.9274 123.129 66.8973 123.174 66.8719Z" fill="#263238"/>
<path d="M109.993 83.8972C109.944 83.7551 109.911 83.6082 109.893 83.459C109.838 83.1726 109.776 82.7689 109.703 82.2444C109.555 81.2092 109.403 79.791 109.241 78.221C109.079 76.651 108.896 75.2293 108.744 74.2045C108.665 73.6938 108.595 73.2832 108.547 72.9968C108.509 72.8502 108.49 72.6996 108.489 72.5482C108.548 72.6865 108.591 72.8312 108.616 72.9795C108.692 73.2625 108.778 73.6697 108.875 74.1838C109.072 75.219 109.265 76.6268 109.427 78.2003C109.589 79.7738 109.727 81.154 109.834 82.2271C109.886 82.7102 109.931 83.1209 109.965 83.4487C109.992 83.5966 110.001 83.7471 109.993 83.8972Z" fill="#263238"/>
<path d="M123.271 81.4197C123.103 81.4563 122.932 81.4771 122.76 81.4818C122.415 81.5129 121.925 81.5543 121.318 81.6233C120.103 81.7544 118.433 81.996 116.601 82.341C114.769 82.6861 113.123 83.076 111.939 83.3762C111.349 83.528 110.873 83.6661 110.559 83.7592C110.391 83.8188 110.218 83.8604 110.041 83.8835C110.201 83.8033 110.367 83.7375 110.538 83.6868C110.862 83.5729 111.332 83.4142 111.918 83.2451C113.095 82.9 114.741 82.4894 116.58 82.1375C118.138 81.8395 119.71 81.6207 121.29 81.4818C121.901 81.4301 122.394 81.4094 122.739 81.4025C122.917 81.3904 123.095 81.3962 123.271 81.4197Z" fill="#263238"/>
<path d="M104.23 98.6381C104.194 98.5882 104.164 98.5337 104.141 98.4759L103.913 97.9963C103.716 97.5788 103.451 96.9611 103.133 96.2055C102.491 94.6872 101.674 92.5616 100.804 90.2014C99.9345 87.8412 99.134 85.7156 98.5266 84.1801C98.2299 83.4348 97.9849 82.824 97.802 82.3685L97.6088 81.8751C97.582 81.8182 97.5634 81.7578 97.5536 81.6957C97.5904 81.7456 97.6205 81.8001 97.6433 81.8579L97.871 82.3375C98.0643 82.755 98.3334 83.3727 98.6509 84.1284C99.2927 85.6466 100.11 87.7722 100.98 90.1324C101.85 92.4926 102.65 94.6182 103.257 96.1537C103.554 96.899 103.799 97.5098 103.979 97.9653C104.058 98.1619 104.124 98.3103 104.175 98.4587C104.202 98.5156 104.221 98.576 104.23 98.6381Z" fill="#263238"/>
<path d="M121.856 92.9551C121.801 92.9868 121.742 93.0111 121.68 93.0275L121.169 93.2001L119.282 93.8108C117.688 94.3284 115.486 95.0668 113.071 95.8812C110.656 96.6955 108.444 97.4202 106.839 97.9032C106.039 98.1482 105.386 98.3346 104.934 98.4588L104.413 98.5934C104.353 98.6126 104.29 98.6253 104.227 98.6313C104.282 98.5996 104.341 98.5752 104.403 98.5588L104.914 98.3863L106.801 97.7756C108.395 97.258 110.597 96.5195 113.012 95.7052C115.428 94.8909 117.636 94.1662 119.241 93.6831C120.045 93.4382 120.693 93.2518 121.149 93.1276L121.67 92.993C121.73 92.9738 121.793 92.9611 121.856 92.9551Z" fill="#263238"/>
<path d="M114.665 9.25376L112.888 9.88867L112.125 7.56641C110.725 3.28422 106.259 1.01027 102.157 2.45608C98.054 3.90188 95.8697 8.59814 97.2707 12.8803L98.0332 15.2026L96.2493 15.8409C95.569 16.1048 95.0166 16.6206 94.7069 17.2813C94.3971 17.9419 94.3539 18.6965 94.5861 19.3882L99.5308 34.4983C99.6335 34.8407 99.8039 35.159 100.032 35.4343C100.26 35.7095 100.541 35.9361 100.858 36.1006C101.176 36.2651 101.523 36.3641 101.879 36.3918C102.236 36.4194 102.594 36.3751 102.933 36.2616L121.349 29.6744C122.038 29.411 122.598 28.8906 122.912 28.2226C123.225 27.5546 123.267 26.7911 123.029 26.0927L118.081 10.9825C117.976 10.6411 117.803 10.3243 117.573 10.0512C117.342 9.77806 117.059 9.55414 116.74 9.3928C116.421 9.23146 116.073 9.13599 115.717 9.1121C115.36 9.08821 115.003 9.13639 114.665 9.25376ZM100.628 11.6692C100.25 10.5557 100.318 9.33932 100.817 8.27477C101.316 7.21022 102.208 6.38014 103.306 5.95843C103.848 5.77301 104.421 5.69865 104.993 5.7398C105.564 5.78095 106.121 5.93676 106.631 6.19793C107.141 6.4591 107.593 6.82029 107.96 7.25994C108.327 7.69959 108.602 8.20869 108.768 8.75687L109.527 11.0791L101.387 13.9914L100.628 11.6692ZM110.98 25.0782L112.243 28.936C112.266 29.0133 112.259 29.0966 112.222 29.1686C112.185 29.2406 112.122 29.2957 112.046 29.3224L110.276 29.9539C110.206 29.9734 110.13 29.9649 110.066 29.9302C110.002 29.8955 109.953 29.8372 109.931 29.7676L108.658 25.927C107.956 25.8888 107.282 25.637 106.727 25.2053C106.172 24.7736 105.762 24.1827 105.552 23.5116C105.252 22.6245 105.307 21.6556 105.705 20.8079C106.103 19.9601 106.814 19.2993 107.688 18.9637C108.12 18.8162 108.577 18.7572 109.032 18.79C109.487 18.8229 109.931 18.947 110.337 19.155C110.743 19.3631 111.103 19.6507 111.395 20.0008C111.688 20.3509 111.907 20.7563 112.039 21.1928C112.261 21.8745 112.28 22.6061 112.092 23.2981C111.905 23.9901 111.519 24.6123 110.983 25.0886L110.98 25.0782Z" fill="#FF3333"/>
<path d="M112.809 9.8473C112.809 9.89561 109.513 11.1344 105.414 12.6078C101.315 14.0812 97.9712 15.2647 97.9539 15.2302C97.9367 15.1957 101.249 13.9466 105.352 12.4698C109.455 10.9929 112.792 9.80244 112.809 9.8473Z" fill="#263238"/>
<path d="M116.722 10.4822C116.737 10.5121 116.75 10.5433 116.76 10.5753C116.787 10.6444 116.818 10.7341 116.86 10.8445C116.949 11.0964 117.074 11.4449 117.229 11.8797L118.554 15.7374C119.106 17.373 119.765 19.3123 120.497 21.4654C120.842 22.5455 121.249 23.6704 121.628 24.8539C121.832 25.4638 121.919 26.1062 121.887 26.7483C121.858 27.0822 121.763 27.407 121.608 27.7041C121.442 28.0002 121.22 28.2615 120.956 28.4736C120.422 28.8627 119.831 29.1644 119.203 29.3673L117.426 30.0057L114.061 31.2099L108.364 33.2389L104.517 34.5915L103.482 34.9366L103.206 35.0263C103.176 35.0394 103.145 35.0476 103.113 35.0504C103.113 35.0504 103.14 35.0504 103.199 35.009L103.468 34.9021L104.503 34.5122L108.33 33.1043L114.016 31.0339L117.374 29.8193L119.151 29.1775C119.761 28.9829 120.336 28.6904 120.852 28.3114C121.099 28.1146 121.305 27.8721 121.459 27.5971C121.606 27.3224 121.694 27.0206 121.718 26.7103C121.75 26.0917 121.666 25.4726 121.47 24.885C121.097 23.7118 120.704 22.5765 120.348 21.4965C119.631 19.3399 118.968 17.3937 118.444 15.7581C117.919 14.1226 117.477 12.8079 117.174 11.8831C117.029 11.4311 116.918 11.0791 116.829 10.8238L116.746 10.5477C116.735 10.5268 116.727 10.5048 116.722 10.4822Z" fill="#263238"/>
<path d="M107.005 5.72385C107.005 5.72385 106.822 5.63414 106.484 5.49611C106.002 5.31091 105.492 5.20825 104.976 5.19246C104.211 5.16623 103.449 5.31 102.747 5.61343C101.892 5.99126 101.161 6.6024 100.638 7.37669C100.112 8.14877 99.8294 9.06118 99.8275 9.99569C99.8347 10.7616 99.9509 11.5226 100.173 12.2558C100.352 12.8838 100.538 13.3842 100.663 13.7327C100.736 13.9097 100.796 14.0919 100.842 14.2779C100.744 14.1124 100.662 13.9379 100.597 13.7568C100.456 13.4118 100.252 12.9218 100.052 12.2903C99.8061 11.5495 99.6724 10.7761 99.655 9.99569C99.6458 9.02588 99.9349 8.07666 100.483 7.27662C101.024 6.47405 101.785 5.84402 102.674 5.46161C103.399 5.15652 104.184 5.02193 104.969 5.06824C105.496 5.09511 106.014 5.21789 106.498 5.43055C106.627 5.49016 106.751 5.55937 106.87 5.63759C106.919 5.65915 106.965 5.68826 107.005 5.72385Z" fill="#263238"/>
<path d="M107.164 19.2259C107.219 19.1926 107.276 19.1637 107.336 19.1397C107.509 19.0617 107.688 18.9983 107.871 18.9499C108.162 18.8641 108.462 18.8131 108.765 18.7981C109.177 18.7759 109.589 18.8382 109.976 18.981C110.859 19.2915 111.67 20.1921 112.07 21.3964C112.262 22.0426 112.262 22.7308 112.07 23.377C111.857 24.0784 111.476 24.717 110.959 25.2369L110.98 25.1437C111.439 26.4032 111.939 27.7696 112.457 29.1947L112.488 29.281L112.402 29.312L111.611 29.5743L109.886 30.1505L109.8 30.1781L109.772 30.0919C109.299 28.6633 108.782 27.3314 108.392 26.0236L108.468 26.0823C107.793 26.0263 107.15 25.7731 106.618 25.3542C106.137 24.9837 105.743 24.5126 105.462 23.974C105.209 23.4963 105.083 22.9616 105.097 22.4212C105.113 21.8689 105.251 21.327 105.5 20.8342C105.75 20.3415 106.106 19.9101 106.542 19.571C106.722 19.4252 106.923 19.3088 107.139 19.2259C106.944 19.3416 106.756 19.4671 106.573 19.6021C106.094 20.0075 105.727 20.529 105.507 21.1169C105.318 21.5602 105.23 22.0397 105.249 22.5212C105.267 23.0026 105.392 23.474 105.614 23.9015C105.89 24.4197 106.275 24.8718 106.743 25.2265C107.25 25.6247 107.863 25.8647 108.506 25.9167H108.564L108.582 25.9684C108.961 27.252 109.482 28.5943 109.962 30.0298L109.848 29.9746L111.573 29.3983L112.36 29.1326L112.305 29.2499C111.791 27.8248 111.294 26.4549 110.838 25.1955V25.1437L110.88 25.1023C111.381 24.604 111.756 23.992 111.97 23.3184C112.153 22.7002 112.153 22.0422 111.97 21.424C111.594 20.2646 110.818 19.3847 109.976 19.0741C109.603 18.9304 109.205 18.8635 108.806 18.8774C108.508 18.8843 108.212 18.9248 107.923 18.9982C107.409 19.1259 107.167 19.2432 107.164 19.2259Z" fill="#263238"/>
<path d="M96.4977 118.859L62.0297 118.7C60.0392 118.689 58.1344 117.888 56.7337 116.474C55.333 115.06 54.5509 113.147 54.5591 111.157L54.9249 24.7505C54.929 23.7643 55.1274 22.7886 55.5087 21.8792C55.8901 20.9697 56.4469 20.1443 57.1475 19.4502C57.848 18.7561 58.6785 18.2068 59.5914 17.8339C60.5043 17.4609 61.4818 17.2715 62.4679 17.2765L96.9325 17.4352C98.923 17.4452 100.828 18.2449 102.229 19.6585C103.631 21.0722 104.414 22.9842 104.407 24.9747L104.041 111.378C104.037 112.364 103.838 113.34 103.457 114.25C103.076 115.16 102.519 115.986 101.819 116.68C101.118 117.375 100.288 117.925 99.3748 118.299C98.4618 118.672 97.4842 118.863 96.4977 118.859Z" fill="#455A64"/>
<path d="M96.8808 20.4061H90.2004C89.9824 20.4101 89.7674 20.4571 89.5676 20.5443C89.3677 20.6314 89.187 20.7571 89.0358 20.9141C88.8846 21.0711 88.7657 21.2564 88.6861 21.4593C88.6065 21.6623 88.5676 21.8789 88.5717 22.0969V23.3081C88.5758 23.5259 88.5369 23.7423 88.4573 23.9451C88.3776 24.1478 88.2587 24.3329 88.1074 24.4896C87.9561 24.6464 87.7754 24.7717 87.5756 24.8585C87.3758 24.9453 87.1609 24.9918 86.943 24.9954L73.9205 24.9367C73.4799 24.925 73.0621 24.7389 72.7586 24.4193C72.4552 24.0997 72.291 23.6727 72.3021 23.2322V22.021C72.3133 21.581 72.1496 21.1546 71.8469 20.835C71.5442 20.5155 71.1272 20.329 70.6873 20.3164H68.3374L62.4886 20.2888C61.0975 20.2805 59.7598 20.8238 58.7683 21.7997C57.7769 22.7756 57.2125 24.1046 57.1989 25.4957L56.8538 109.835C56.8506 110.525 56.9834 111.209 57.2446 111.848C57.5058 112.487 57.8902 113.068 58.376 113.558C58.8617 114.049 59.4393 114.438 60.0757 114.705C60.712 114.972 61.3948 115.112 62.0849 115.115L96.4805 115.273C97.1711 115.277 97.8555 115.144 98.4948 114.882C99.134 114.621 99.7155 114.236 100.206 113.75C100.697 113.264 101.087 112.686 101.354 112.049C101.621 111.413 101.76 110.729 101.763 110.039L102.108 25.6993C102.117 24.3043 101.571 22.9631 100.59 21.9705C99.6101 20.9779 98.2758 20.4152 96.8808 20.4061Z" fill="white"/>
<path d="M92.2535 104.021L66.6776 103.911C66.4119 103.911 66.198 103.621 66.2015 103.269L66.2291 96.5781C66.2291 96.233 66.4465 95.9363 66.7121 95.9363L92.288 96.0536C92.4352 96.0791 92.5669 96.1604 92.6557 96.2806C92.7444 96.4008 92.7833 96.5507 92.7642 96.6989L92.74 103.383C92.74 103.738 92.5192 104.024 92.2535 104.021Z" fill="#FF3333"/>
<path d="M74.4537 99.9405C74.3125 99.9405 74.1768 99.9179 74.0465 99.8726C73.918 99.8256 73.8184 99.7658 73.7478 99.6934L73.8266 99.5387C73.8935 99.6039 73.9831 99.6591 74.0953 99.7043C74.2093 99.7477 74.3288 99.7695 74.4537 99.7695C74.5731 99.7695 74.6699 99.755 74.7442 99.726C74.8202 99.6952 74.8754 99.6545 74.9098 99.6039C74.9459 99.5532 74.964 99.4971 74.964 99.4355C74.964 99.3613 74.9423 99.3016 74.8989 99.2564C74.8573 99.2111 74.8021 99.1758 74.7333 99.1505C74.6645 99.1233 74.5885 99.0998 74.5053 99.0799C74.422 99.06 74.3387 99.0392 74.2555 99.0175C74.1722 98.9939 74.0953 98.9632 74.0247 98.9252C73.956 98.8872 73.8999 98.8374 73.8564 98.7758C73.8148 98.7125 73.794 98.6302 73.794 98.5288C73.794 98.4347 73.8184 98.3487 73.8673 98.2709C73.918 98.1913 73.9949 98.1279 74.098 98.0809C74.2012 98.032 74.3333 98.0076 74.4944 98.0076C74.6012 98.0076 74.7071 98.023 74.812 98.0537C74.917 98.0827 75.0075 98.1234 75.0835 98.1759L75.0156 98.3361C74.9342 98.2818 74.8473 98.2419 74.755 98.2166C74.6645 98.1913 74.5767 98.1786 74.4917 98.1786C74.3777 98.1786 74.2835 98.194 74.2093 98.2248C74.1351 98.2555 74.0799 98.2971 74.0437 98.3496C74.0094 98.4003 73.9922 98.4582 73.9922 98.5234C73.9922 98.5976 74.013 98.6573 74.0546 98.7026C74.098 98.7478 74.1541 98.7831 74.2229 98.8084C74.2935 98.8338 74.3704 98.8564 74.4537 98.8763C74.5369 98.8962 74.6193 98.9179 74.7007 98.9414C74.784 98.965 74.86 98.9957 74.9288 99.0338C74.9993 99.0699 75.0554 99.1188 75.0971 99.1803C75.1405 99.2419 75.1622 99.3224 75.1622 99.422C75.1622 99.5143 75.1369 99.6002 75.0862 99.6799C75.0355 99.7577 74.9577 99.821 74.8527 99.8699C74.7496 99.917 74.6166 99.9405 74.4537 99.9405ZM75.5999 99.9242V98.0239H75.8008V99.9242H75.5999ZM76.4191 99.9242V98.0239H76.5847L77.896 99.6744H77.8091V98.0239H78.0073V99.9242H77.8417L76.5332 98.2736H76.62V99.9242H76.4191ZM79.461 99.9405C79.3162 99.9405 79.1823 99.917 79.0592 99.8699C78.9379 99.821 78.8321 99.7532 78.7416 99.6663C78.6529 99.5794 78.5832 99.4772 78.5325 99.3595C78.4837 99.2419 78.4592 99.1134 78.4592 98.974C78.4592 98.8347 78.4837 98.7062 78.5325 98.5885C78.5832 98.4709 78.6538 98.3686 78.7443 98.2818C78.8348 98.1949 78.9406 98.1279 79.0619 98.0809C79.185 98.032 79.3189 98.0076 79.4637 98.0076C79.6085 98.0076 79.7406 98.0302 79.86 98.0754C79.9813 98.1207 80.0845 98.1895 80.1695 98.2818L80.0446 98.4094C79.965 98.3297 79.8772 98.2727 79.7813 98.2383C79.6854 98.2039 79.5822 98.1867 79.4718 98.1867C79.3542 98.1867 79.2456 98.2067 79.1461 98.2465C79.0483 98.2845 78.9624 98.3397 78.8882 98.4121C78.8158 98.4827 78.7588 98.5659 78.7171 98.6618C78.6773 98.7559 78.6574 98.86 78.6574 98.974C78.6574 99.0862 78.6773 99.1903 78.7171 99.2862C78.7588 99.3821 78.8158 99.4663 78.8882 99.5387C78.9624 99.6093 79.0483 99.6645 79.1461 99.7043C79.2456 99.7423 79.3533 99.7613 79.4691 99.7613C79.5777 99.7613 79.68 99.745 79.7759 99.7124C79.8736 99.6799 79.9632 99.6247 80.0446 99.5468L80.1587 99.6989C80.0682 99.7785 79.9623 99.8391 79.841 99.8808C79.7198 99.9206 79.5931 99.9405 79.461 99.9405ZM79.9659 99.6744V98.974H80.1587V99.6989L79.9659 99.6744ZM82.2033 99.9405C81.9608 99.9405 81.7698 99.8708 81.6305 99.7314C81.4911 99.5921 81.4215 99.3858 81.4215 99.1125V98.0239H81.6223V99.1043C81.6223 99.3288 81.673 99.4944 81.7744 99.6011C81.8757 99.7079 82.0187 99.7613 82.2033 99.7613C82.3897 99.7613 82.5336 99.7079 82.635 99.6011C82.7363 99.4944 82.787 99.3288 82.787 99.1043V98.0239H82.9824V99.1125C82.9824 99.3858 82.9128 99.5921 82.7734 99.7314C82.6359 99.8708 82.4458 99.9405 82.2033 99.9405ZM83.5878 99.9242V98.0239H84.2991C84.4602 98.0239 84.5986 98.0501 84.7144 98.1026C84.8303 98.1533 84.919 98.2275 84.9805 98.3252C85.0438 98.4211 85.0755 98.5379 85.0755 98.6754C85.0755 98.8093 85.0438 98.9252 84.9805 99.0229C84.919 99.1188 84.8303 99.193 84.7144 99.2455C84.5986 99.298 84.4602 99.3242 84.2991 99.3242H83.6991L83.7887 99.2292V99.9242H83.5878ZM83.7887 99.2455L83.6991 99.1478H84.2937C84.4837 99.1478 84.6276 99.1071 84.7253 99.0256C84.8248 98.9424 84.8746 98.8256 84.8746 98.6754C84.8746 98.5234 84.8248 98.4057 84.7253 98.3225C84.6276 98.2392 84.4837 98.1976 84.2937 98.1976H83.6991L83.7887 98.1026V99.2455Z" fill="#E8E8E3"/>
<path d="M71.779 45.1987L62.9042 45.1584L62.8968 46.7871L71.7716 46.8274L71.779 45.1987Z" fill="#FF3333"/>
<path opacity="0.1" d="M71.779 45.1987L62.9042 45.1584L62.8968 46.7871L71.7716 46.8274L71.779 45.1987Z" fill="black"/>
<path d="M97.7951 55.1985C97.8648 55.1915 97.9332 55.1752 97.9987 55.1502C98.0942 55.1129 98.1772 55.0494 98.2382 54.967C98.2993 54.8846 98.3358 54.7866 98.3437 54.6844C98.3437 54.1357 98.3437 53.3352 98.3437 52.3069C98.3437 51.7928 98.3437 51.2165 98.3437 50.5816C98.3437 50.4264 98.3437 50.2642 98.3437 50.102C98.3662 49.9446 98.332 49.7844 98.2471 49.65C98.1996 49.5855 98.1378 49.533 98.0665 49.4964C97.9953 49.4599 97.9165 49.4404 97.8365 49.4395H97.2982H92.3121L63.4513 49.3325C63.3774 49.3313 63.3043 49.3479 63.2382 49.3809C63.1721 49.4139 63.115 49.4624 63.0717 49.5223C62.9884 49.6573 62.9565 49.8178 62.982 49.9743C62.982 50.3194 62.982 50.6644 62.982 51.0095C62.982 51.6996 62.982 52.3897 62.982 53.0799C62.982 53.4249 62.982 53.77 62.982 54.115C62.9677 54.2758 62.9677 54.4374 62.982 54.5981C63.0001 54.667 63.0338 54.7309 63.0805 54.7847C63.1271 54.8385 63.1855 54.8809 63.2511 54.9087C63.3191 54.9357 63.3919 54.9487 63.4651 54.9466H65.2214L72.8852 54.988L85.8595 55.0674L94.6067 55.1364L96.9842 55.164H97.6018C97.7433 55.164 97.8123 55.164 97.8123 55.164H97.6018H96.9842H94.6067H85.8595L72.8852 55.1226L65.2214 55.0916H63.4651C63.3684 55.0955 63.272 55.079 63.1821 55.0433C63.0913 55.0045 63.0105 54.9455 62.9459 54.8707C62.8813 54.796 62.8346 54.7075 62.8095 54.6119C62.7895 54.5214 62.7825 54.4284 62.7887 54.3359V54.0805C62.7887 53.7355 62.7887 53.3904 62.7887 53.0454C62.7887 52.3552 62.7887 51.6651 62.7887 50.975C62.7887 50.6299 62.7887 50.2849 62.7887 49.9398C62.7822 49.8479 62.7822 49.7557 62.7887 49.6638C62.8017 49.5623 62.8409 49.4659 62.9026 49.3843C62.9621 49.301 63.0409 49.2333 63.1323 49.1871C63.2236 49.1408 63.3247 49.1173 63.4271 49.1186L92.2879 49.2773L97.274 49.3118H97.8123C97.9072 49.3119 98.0006 49.3348 98.0847 49.3787C98.1688 49.4225 98.2411 49.486 98.2954 49.5637C98.3927 49.7137 98.432 49.8941 98.4058 50.0709C98.4058 50.2331 98.4058 50.3953 98.4058 50.5506C98.4058 51.1786 98.4058 51.7548 98.4058 52.2759C98.4058 53.3111 98.3817 54.1047 98.3748 54.6568C98.3663 54.7629 98.3278 54.8645 98.2636 54.9494C98.1994 55.0344 98.1123 55.0993 98.0125 55.1364C97.9472 55.1769 97.8719 55.1984 97.7951 55.1985Z" fill="#E0E0E0"/>
<path d="M81.8016 51.0647H65.5699V52.5864H81.8016V51.0647Z" fill="#FF3333"/>
<path opacity="0.2" d="M81.8016 51.0647H65.5699V52.5864H81.8016V51.0647Z" fill="white"/>
<path d="M71.7185 60.0566L62.8436 60.0164L62.8362 61.645L71.7111 61.6853L71.7185 60.0566Z" fill="#FF3333"/>
<path opacity="0.1" d="M71.7185 60.0566L62.8436 60.0164L62.8362 61.645L71.7111 61.6853L71.7185 60.0566Z" fill="black"/>
<path d="M97.5708 70.0568C97.6405 70.0482 97.7097 70.0355 97.7779 70.0188C97.8742 69.9881 97.9629 69.9372 98.0379 69.8693C98.1129 69.8014 98.1725 69.7183 98.2126 69.6254C98.267 69.4861 98.2882 69.3361 98.2748 69.1872C98.2748 69.0216 98.2748 68.8422 98.2748 68.642C98.2748 68.2418 98.2748 67.7863 98.2748 67.2618V65.0707C98.2912 64.912 98.2561 64.7523 98.1747 64.6152C98.0896 64.4745 97.9557 64.3701 97.7986 64.3219C97.6267 64.2912 97.4517 64.2819 97.2775 64.2943H92.3121L63.5514 64.1873C63.3967 64.1877 63.2474 64.2442 63.1312 64.3464C63.0151 64.4486 62.94 64.5895 62.9199 64.7428C62.9199 65.0707 62.9199 65.433 62.9199 65.778C62.9199 66.4681 62.9199 67.1583 62.9199 67.8484C62.9199 68.1934 62.9199 68.5385 62.9199 68.8836C62.9071 69.0448 62.914 69.2071 62.9406 69.3666C62.9837 69.5066 63.0724 69.628 63.1925 69.7117C63.32 69.7926 63.4697 69.8312 63.6204 69.8221H64.1H65.0972L72.7334 69.8601L85.6628 69.9394L94.379 70.0085L96.7496 70.0361H94.379H85.6628L72.7265 70.0223L65.0903 69.9947H63.5893C63.4027 70.0057 63.2175 69.9561 63.0614 69.8532C62.9044 69.7444 62.7898 69.5847 62.737 69.4012C62.7061 69.2258 62.6968 69.0474 62.7094 68.8698C62.7094 68.5247 62.7094 68.1796 62.7094 67.8346C62.7094 67.1445 62.7094 66.4543 62.7094 65.7642C62.7094 65.4192 62.7094 65.0741 62.7094 64.729C62.7346 64.5317 62.8308 64.3504 62.9801 64.2189C63.1293 64.0874 63.3214 64.0148 63.5203 64.0148L92.2811 64.1735L97.2465 64.2115C97.4314 64.2001 97.617 64.2129 97.7986 64.2494C97.9778 64.308 98.1291 64.4309 98.223 64.5945C98.3123 64.7465 98.3509 64.9229 98.3334 65.0983C98.3334 65.2604 98.3334 65.4192 98.3334 65.5779C98.3334 66.2024 98.3334 66.7752 98.3334 67.3032C98.3334 67.8311 98.3334 68.2763 98.3334 68.6834C98.3334 68.8801 98.3334 69.063 98.3334 69.2321C98.346 69.3864 98.3211 69.5414 98.2609 69.6841C98.2162 69.7793 98.1514 69.8637 98.071 69.9316C97.9906 69.9995 97.8965 70.0493 97.7951 70.0775C97.7197 70.0837 97.6438 70.0767 97.5708 70.0568Z" fill="#E0E0E0"/>
<path d="M71.6516 75.5597L62.7767 75.5194L62.7693 77.1481L71.6442 77.1884L71.6516 75.5597Z" fill="#FF3333"/>
<path opacity="0.1" d="M71.6516 75.5597L62.7767 75.5194L62.7693 77.1481L71.6442 77.1884L71.6516 75.5597Z" fill="black"/>
<path d="M97.5018 85.5534C97.5716 85.5452 97.6407 85.5325 97.7088 85.5155C97.8048 85.485 97.8932 85.4344 97.9681 85.3672C98.0431 85.3 98.1029 85.2176 98.1436 85.1255C98.1977 84.9862 98.219 84.8362 98.2057 84.6873C98.2057 84.5182 98.2057 84.3423 98.2057 84.1387C98.2057 83.7418 98.2057 83.2829 98.2057 82.7584V80.5673C98.2222 80.4087 98.1871 80.2489 98.1057 80.1118C98.0185 79.9737 97.8853 79.871 97.7295 79.822C97.5578 79.7901 97.3828 79.7796 97.2085 79.7909H92.2431L63.4824 79.6839C63.3277 79.6843 63.1783 79.7408 63.0622 79.843C62.946 79.9452 62.871 80.0861 62.8509 80.2395C62.8509 80.5845 62.8509 80.9296 62.8509 81.2747C62.8509 81.9648 62.8509 82.6549 62.8509 83.345C62.8509 83.6901 62.8509 84.0351 62.8509 84.3802C62.838 84.5403 62.845 84.7014 62.8716 84.8598C62.9129 85.0006 63.002 85.1226 63.1235 85.2049C63.2502 85.2876 63.4005 85.3264 63.5514 85.3153H65.0524L72.6885 85.3567L85.6179 85.4361L94.3342 85.5051L96.7047 85.5327H94.3342H85.6179L72.6885 85.4948L65.0524 85.4637H63.5514C63.3646 85.4763 63.1789 85.4265 63.0234 85.3222C62.8664 85.2135 62.7518 85.0538 62.6991 84.8702C62.6681 84.6949 62.6589 84.5164 62.6715 84.3388C62.6715 83.9937 62.6715 83.6487 62.6715 83.3036C62.6715 82.6135 62.6715 81.9234 62.6715 81.2333C62.6715 80.8882 62.6715 80.5431 62.6715 80.1808C62.6959 79.9838 62.7914 79.8025 62.9401 79.671C63.0888 79.5394 63.2804 79.4667 63.4789 79.4666L92.2396 79.6253L97.2051 79.6632C97.39 79.6519 97.5756 79.6647 97.7572 79.7012C97.9364 79.7598 98.0876 79.8827 98.1816 80.0463C98.2708 80.1982 98.3095 80.3746 98.292 80.55C98.292 80.7122 98.292 80.8744 98.292 81.0297C98.292 81.6542 98.292 82.227 98.292 82.755C98.292 83.2829 98.292 83.728 98.292 84.1352C98.292 84.3319 98.292 84.5148 98.292 84.6839C98.3052 84.8382 98.2804 84.9934 98.2195 85.1359C98.1747 85.2311 98.1099 85.3155 98.0296 85.3834C97.9492 85.4513 97.8551 85.501 97.7537 85.5293C97.6728 85.557 97.5865 85.5652 97.5018 85.5534Z" fill="#E0E0E0"/>
<path d="M81.4551 66.3532L65.2236 66.2795L65.2167 67.8012L81.4482 67.8749L81.4551 66.3532Z" fill="#FF3333"/>
<path opacity="0.2" d="M81.4551 66.3532L65.2236 66.2795L65.2167 67.8012L81.4482 67.8749L81.4551 66.3532Z" fill="white"/>
<path d="M66.6915 82.7377C66.6813 82.8765 66.6306 83.0092 66.5456 83.1195C66.4607 83.2297 66.3453 83.3126 66.2137 83.3579C66.0821 83.4031 65.9401 83.4088 65.8053 83.374C65.6705 83.3393 65.5489 83.2658 65.4555 83.1626C65.3621 83.0595 65.3011 82.9311 65.28 82.7936C65.2588 82.656 65.2786 82.5153 65.3367 82.3888C65.3948 82.2624 65.4888 82.1557 65.6069 82.0822C65.7251 82.0087 65.8622 81.9714 66.0013 81.9751C66.1936 81.9858 66.3739 82.0719 66.503 82.2146C66.6322 82.3574 66.6999 82.5453 66.6915 82.7377Z" fill="#FF3333"/>
<path d="M68.8894 82.7481C68.8962 82.8454 68.8829 82.943 68.8503 83.0349C68.8178 83.1269 68.7666 83.2111 68.7001 83.2824C68.6336 83.3537 68.5532 83.4106 68.4637 83.4495C68.3743 83.4884 68.2778 83.5084 68.1803 83.5084C68.0828 83.5084 67.9863 83.4884 67.8969 83.4495C67.8075 83.4106 67.727 83.3537 67.6605 83.2824C67.594 83.2111 67.5428 83.1269 67.5103 83.0349C67.4777 82.943 67.4644 82.8454 67.4712 82.7481C67.4644 82.6508 67.4777 82.5532 67.5103 82.4613C67.5428 82.3694 67.594 82.2851 67.6605 82.2138C67.727 82.1425 67.8075 82.0856 67.8969 82.0467C67.9863 82.0079 68.0828 81.9878 68.1803 81.9878C68.2778 81.9878 68.3743 82.0079 68.4637 82.0467C68.5532 82.0856 68.6336 82.1425 68.7001 82.2138C68.7666 82.2851 68.8178 82.3694 68.8503 82.4613C68.8829 82.5532 68.8962 82.6508 68.8894 82.7481Z" fill="#FF3333"/>
<path d="M71.0909 82.7584C71.0807 82.8972 71.03 83.03 70.9451 83.1402C70.8601 83.2505 70.7447 83.3334 70.6131 83.3786C70.4815 83.4239 70.3395 83.4295 70.2047 83.3948C70.0699 83.3601 69.9483 83.2866 69.8549 83.1834C69.7615 83.0802 69.7005 82.9519 69.6794 82.8143C69.6583 82.6767 69.678 82.536 69.7361 82.4096C69.7942 82.2831 69.8882 82.1765 70.0063 82.103C70.1245 82.0294 70.2616 81.9922 70.4008 81.9959C70.5927 82.0074 70.7724 82.0938 70.9014 82.2363C71.0304 82.3789 71.0985 82.5663 71.0909 82.7584Z" fill="#FF3333"/>
<path d="M73.289 82.7688C73.2788 82.9076 73.2281 83.0404 73.1432 83.1506C73.0582 83.2609 72.9428 83.3438 72.8112 83.389C72.6796 83.4343 72.5376 83.4399 72.4028 83.4052C72.268 83.3705 72.1464 83.297 72.053 83.1938C71.9597 83.0906 71.8986 82.9623 71.8775 82.8247C71.8564 82.6871 71.8761 82.5464 71.9342 82.4199C71.9923 82.2935 72.0863 82.1869 72.2045 82.1133C72.3226 82.0398 72.4598 82.0025 72.5989 82.0062C72.7908 82.0178 72.9705 82.1041 73.0995 82.2467C73.2286 82.3893 73.2966 82.5767 73.289 82.7688Z" fill="#FF3333"/>
<path d="M75.487 82.7757C75.4775 82.9148 75.4273 83.0479 75.3428 83.1586C75.2582 83.2694 75.1429 83.3528 75.0113 83.3986C74.8797 83.4443 74.7376 83.4504 74.6026 83.4161C74.4676 83.3817 74.3456 83.3084 74.2519 83.2053C74.1581 83.1022 74.0968 82.9739 74.0754 82.8362C74.0541 82.6985 74.0736 82.5576 74.1317 82.4309C74.1898 82.3043 74.2838 82.1975 74.402 82.1238C74.5203 82.0502 74.6576 82.0129 74.7969 82.0166C74.9882 82.0282 75.1674 82.114 75.2963 82.2559C75.4252 82.3977 75.4937 82.5842 75.487 82.7757Z" fill="#FF3333"/>
<path d="M77.6886 82.7861C77.6791 82.9244 77.6295 83.0569 77.5457 83.1673C77.462 83.2778 77.3478 83.3613 77.2171 83.4077C77.0865 83.4541 76.9452 83.4612 76.8105 83.4283C76.6759 83.3954 76.5538 83.3238 76.4593 83.2224C76.3648 83.121 76.3021 82.9942 76.2787 82.8575C76.2554 82.7209 76.2725 82.5804 76.3279 82.4534C76.3834 82.3264 76.4748 82.2183 76.5908 82.1426C76.7069 82.0668 76.8426 82.0266 76.9812 82.027C77.1755 82.0342 77.3591 82.1181 77.4917 82.2604C77.6243 82.4027 77.6951 82.5917 77.6886 82.7861Z" fill="#FF3333"/>
<path d="M79.8865 82.7964C79.8933 82.8937 79.88 82.9914 79.8474 83.0833C79.8148 83.1752 79.7637 83.2594 79.6972 83.3308C79.6307 83.4021 79.5502 83.4589 79.4608 83.4978C79.3714 83.5367 79.2749 83.5568 79.1774 83.5568C79.0799 83.5568 78.9834 83.5367 78.8939 83.4978C78.8045 83.4589 78.7241 83.4021 78.6575 83.3308C78.591 83.2594 78.5399 83.1752 78.5073 83.0833C78.4748 82.9914 78.4615 82.8937 78.4683 82.7964C78.4615 82.6992 78.4748 82.6015 78.5073 82.5096C78.5399 82.4177 78.591 82.3335 78.6575 82.2621C78.7241 82.1908 78.8045 82.134 78.8939 82.0951C78.9834 82.0562 79.0799 82.0361 79.1774 82.0361C79.2749 82.0361 79.3714 82.0562 79.4608 82.0951C79.5502 82.134 79.6307 82.1908 79.6972 82.2621C79.7637 82.3335 79.8148 82.4177 79.8474 82.5096C79.88 82.6015 79.8933 82.6992 79.8865 82.7964Z" fill="#FF3333"/>
<path d="M82.0845 82.8067C82.0751 82.945 82.0255 83.0775 81.9417 83.188C81.858 83.2984 81.7437 83.382 81.6131 83.4283C81.4825 83.4747 81.3412 83.4818 81.2065 83.4489C81.0719 83.416 80.9498 83.3444 80.8553 83.243C80.7608 83.1416 80.6981 83.0148 80.6747 82.8782C80.6514 82.7415 80.6685 82.6011 80.7239 82.474C80.7794 82.347 80.8708 82.239 80.9868 82.1632C81.1029 82.0874 81.2386 82.0473 81.3772 82.0476C81.5715 82.0548 81.7551 82.1387 81.8877 82.281C82.0203 82.4233 82.0911 82.6124 82.0845 82.8067Z" fill="#FF3333"/>
<path d="M84.2825 82.8171C84.273 82.9561 84.2229 83.0893 84.1383 83.2C84.0537 83.3107 83.9385 83.3942 83.8069 83.4399C83.6753 83.4857 83.5331 83.4918 83.3981 83.4574C83.2631 83.4231 83.1411 83.3498 83.0474 83.2467C82.9537 83.1436 82.8923 83.0152 82.871 82.8776C82.8496 82.7399 82.8692 82.599 82.9272 82.4723C82.9853 82.3457 83.0793 82.2389 83.1976 82.1652C83.3158 82.0915 83.4531 82.0543 83.5924 82.058C83.7837 82.0696 83.9629 82.1554 84.0918 82.2972C84.2208 82.439 84.2892 82.6256 84.2825 82.8171Z" fill="#FF3333"/>
<g opacity="0.2">
<path d="M66.6915 82.7377C66.6813 82.8765 66.6306 83.0092 66.5456 83.1195C66.4607 83.2297 66.3453 83.3126 66.2137 83.3579C66.0821 83.4031 65.9401 83.4088 65.8053 83.374C65.6705 83.3393 65.5489 83.2658 65.4555 83.1626C65.3621 83.0595 65.3011 82.9311 65.28 82.7936C65.2588 82.656 65.2786 82.5153 65.3367 82.3888C65.3948 82.2624 65.4888 82.1557 65.6069 82.0822C65.7251 82.0087 65.8622 81.9714 66.0013 81.9751C66.1936 81.9858 66.3739 82.0719 66.503 82.2146C66.6322 82.3574 66.6999 82.5453 66.6915 82.7377Z" fill="white"/>
<path d="M68.8894 82.748C68.8962 82.8453 68.8829 82.9429 68.8503 83.0348C68.8178 83.1267 68.7666 83.211 68.7001 83.2823C68.6336 83.3536 68.5532 83.4105 68.4637 83.4494C68.3743 83.4882 68.2778 83.5083 68.1803 83.5083C68.0828 83.5083 67.9863 83.4882 67.8969 83.4494C67.8075 83.4105 67.727 83.3536 67.6605 83.2823C67.594 83.211 67.5428 83.1267 67.5103 83.0348C67.4777 82.9429 67.4644 82.8453 67.4712 82.748C67.4644 82.6507 67.4777 82.5531 67.5103 82.4612C67.5428 82.3692 67.594 82.285 67.6605 82.2137C67.727 82.1424 67.8075 82.0855 67.8969 82.0466C67.9863 82.0077 68.0828 81.9877 68.1803 81.9877C68.2778 81.9877 68.3743 82.0077 68.4637 82.0466C68.5532 82.0855 68.6336 82.1424 68.7001 82.2137C68.7666 82.285 68.8178 82.3692 68.8503 82.4612C68.8829 82.5531 68.8962 82.6507 68.8894 82.748Z" fill="white"/>
<path d="M71.091 82.7584C71.0808 82.8972 71.0301 83.03 70.9452 83.1402C70.8602 83.2505 70.7448 83.3334 70.6132 83.3786C70.4816 83.4239 70.3396 83.4295 70.2048 83.3948C70.07 83.3601 69.9484 83.2866 69.855 83.1834C69.7617 83.0802 69.7006 82.9519 69.6795 82.8143C69.6584 82.6767 69.6781 82.536 69.7362 82.4096C69.7943 82.2831 69.8883 82.1765 70.0065 82.103C70.1246 82.0294 70.2618 81.9922 70.4009 81.9959C70.5928 82.0074 70.7725 82.0938 70.9016 82.2363C71.0306 82.3789 71.0986 82.5663 71.091 82.7584Z" fill="white"/>
<path d="M73.289 82.7687C73.2788 82.9075 73.2281 83.0403 73.1432 83.1505C73.0582 83.2607 72.9428 83.3436 72.8112 83.3889C72.6796 83.4341 72.5376 83.4398 72.4028 83.405C72.268 83.3703 72.1464 83.2968 72.053 83.1937C71.9597 83.0905 71.8986 82.9621 71.8775 82.8246C71.8564 82.687 71.8761 82.5463 71.9342 82.4198C71.9923 82.2934 72.0863 82.1868 72.2045 82.1132C72.3226 82.0397 72.4598 82.0024 72.5989 82.0061C72.7908 82.0177 72.9705 82.104 73.0995 82.2466C73.2286 82.3891 73.2966 82.5766 73.289 82.7687Z" fill="white"/>
<path d="M75.487 82.7756C75.4775 82.9146 75.4273 83.0478 75.3428 83.1585C75.2582 83.2692 75.1429 83.3527 75.0113 83.3984C74.8797 83.4442 74.7376 83.4503 74.6026 83.4159C74.4676 83.3816 74.3456 83.3083 74.2519 83.2052C74.1581 83.1021 74.0968 82.9738 74.0754 82.8361C74.0541 82.6984 74.0736 82.5575 74.1317 82.4308C74.1898 82.3042 74.2838 82.1974 74.402 82.1237C74.5203 82.05 74.6576 82.0128 74.7969 82.0165C74.9882 82.0281 75.1674 82.1139 75.2963 82.2557C75.4252 82.3975 75.4937 82.5841 75.487 82.7756Z" fill="white"/>
<path d="M77.6884 82.786C77.679 82.9243 77.6294 83.0568 77.5456 83.1672C77.4619 83.2777 77.3476 83.3612 77.217 83.4076C77.0864 83.4539 76.9451 83.4611 76.8104 83.4282C76.6758 83.3952 76.5537 83.3237 76.4592 83.2223C76.3647 83.1209 76.3019 82.994 76.2786 82.8574C76.2552 82.7208 76.2724 82.5803 76.3278 82.4533C76.3833 82.3263 76.4746 82.2182 76.5907 82.1424C76.7068 82.0667 76.8425 82.0265 76.9811 82.0269C77.1754 82.0341 77.359 82.118 77.4916 82.2603C77.6242 82.4026 77.695 82.5916 77.6884 82.786Z" fill="white"/>
<path d="M79.8865 82.7963C79.8933 82.8936 79.88 82.9912 79.8474 83.0832C79.8148 83.1751 79.7637 83.2593 79.6972 83.3306C79.6307 83.402 79.5502 83.4588 79.4608 83.4977C79.3714 83.5366 79.2749 83.5566 79.1774 83.5566C79.0799 83.5566 78.9834 83.5366 78.8939 83.4977C78.8045 83.4588 78.7241 83.402 78.6575 83.3306C78.591 83.2593 78.5399 83.1751 78.5073 83.0832C78.4748 82.9912 78.4615 82.8936 78.4683 82.7963C78.4615 82.699 78.4748 82.6014 78.5073 82.5095C78.5399 82.4176 78.591 82.3333 78.6575 82.262C78.7241 82.1907 78.8045 82.1338 78.8939 82.095C78.9834 82.0561 79.0799 82.036 79.1774 82.036C79.2749 82.036 79.3714 82.0561 79.4608 82.095C79.5502 82.1338 79.6307 82.1907 79.6972 82.262C79.7637 82.3333 79.8148 82.4176 79.8474 82.5095C79.88 82.6014 79.8933 82.699 79.8865 82.7963Z" fill="white"/>
<path d="M82.0845 82.8067C82.0751 82.945 82.0255 83.0775 81.9417 83.188C81.858 83.2984 81.7437 83.382 81.6131 83.4283C81.4825 83.4747 81.3412 83.4818 81.2065 83.4489C81.0719 83.416 80.9498 83.3444 80.8553 83.243C80.7608 83.1416 80.6981 83.0148 80.6747 82.8782C80.6514 82.7415 80.6685 82.6011 80.7239 82.474C80.7794 82.347 80.8708 82.239 80.9868 82.1632C81.1029 82.0874 81.2386 82.0473 81.3772 82.0476C81.5715 82.0548 81.7551 82.1387 81.8877 82.281C82.0203 82.4233 82.0911 82.6124 82.0845 82.8067Z" fill="white"/>
<path d="M84.2825 82.817C84.273 82.956 84.2229 83.0891 84.1383 83.1999C84.0537 83.3106 83.9385 83.394 83.8069 83.4398C83.6753 83.4856 83.5331 83.4917 83.3981 83.4573C83.2631 83.423 83.1411 83.3497 83.0474 83.2466C82.9537 83.1435 82.8923 83.0151 82.871 82.8774C82.8496 82.7398 82.8692 82.5988 82.9272 82.4722C82.9853 82.3455 83.0793 82.2387 83.1976 82.1651C83.3158 82.0914 83.4531 82.0541 83.5924 82.0579C83.7837 82.0695 83.9629 82.1553 84.0918 82.2971C84.2208 82.4389 84.2892 82.6255 84.2825 82.817Z" fill="white"/>
</g>
<path d="M81.1598 33.0043C81.3995 32.8988 81.6029 32.725 81.7446 32.5048C81.8863 32.2845 81.9602 32.0274 81.9569 31.7656C81.9658 31.5953 81.94 31.425 81.881 31.2651C81.822 31.1051 81.7311 30.9589 81.6137 30.8352C81.4964 30.7115 81.3551 30.613 81.1984 30.5457C81.0418 30.4784 80.8731 30.4437 80.7026 30.4437C80.5321 30.4437 80.3634 30.4784 80.2068 30.5457C80.0502 30.613 79.9089 30.7115 79.7915 30.8352C79.6742 30.9589 79.5832 31.1051 79.5242 31.2651C79.4652 31.425 79.4394 31.5953 79.4483 31.7656C79.4431 32.0301 79.5163 32.2902 79.6588 32.5132C79.8013 32.7361 80.0066 32.9118 80.2489 33.0181C78.3165 33.308 78.4028 35.4059 78.4028 35.4059L82.9714 35.4266C82.9714 35.4266 83.0784 33.2907 81.1598 33.0043Z" fill="#FF3333"/>
<path opacity="0.1" d="M81.1598 33.0043C81.3995 32.8988 81.6029 32.725 81.7446 32.5048C81.8863 32.2845 81.9602 32.0274 81.9569 31.7656C81.9658 31.5953 81.94 31.425 81.881 31.2651C81.822 31.1051 81.7311 30.9589 81.6137 30.8352C81.4964 30.7115 81.3551 30.613 81.1984 30.5457C81.0418 30.4784 80.8731 30.4437 80.7026 30.4437C80.5321 30.4437 80.3634 30.4784 80.2068 30.5457C80.0502 30.613 79.9089 30.7115 79.7915 30.8352C79.6742 30.9589 79.5832 31.1051 79.5242 31.2651C79.4652 31.425 79.4394 31.5953 79.4483 31.7656C79.4431 32.0301 79.5163 32.2902 79.6588 32.5132C79.8013 32.7361 80.0066 32.9118 80.2489 33.0181C78.3165 33.308 78.4028 35.4059 78.4028 35.4059L82.9714 35.4266C82.9714 35.4266 83.0784 33.2907 81.1598 33.0043Z" fill="black"/>
<path d="M88.5836 36.7797L72.3004 36.7058L72.2916 38.6519L88.5748 38.7258L88.5836 36.7797Z" fill="#FF3333"/>
<path opacity="0.2" d="M88.5836 36.7797L72.3004 36.7058L72.2916 38.6519L88.5748 38.7258L88.5836 36.7797Z" fill="white"/>
<path d="M28.7211 46.8654H28.5589L28.0896 46.8999C27.8356 46.9151 27.5831 46.9486 27.3339 47C27.1725 47.0226 27.0124 47.0537 26.8543 47.0931L26.3194 47.2415C25.4091 47.5208 24.5502 47.9461 23.7764 48.501C22.7539 49.2431 21.9001 50.1933 21.2712 51.2891C20.9016 51.9207 20.6074 52.5936 20.3948 53.2938C20.1713 54.055 20.0427 54.8407 20.0118 55.6334C19.9912 56.0497 19.9981 56.467 20.0325 56.8825C20.0325 57.093 20.0911 57.3034 20.1187 57.5174C20.1419 57.733 20.1823 57.9465 20.2395 58.1557C20.5498 59.5404 21.1794 60.8334 22.078 61.9315C22.9767 63.0297 24.1195 63.9026 25.4154 64.4807C26.3533 64.8854 27.3586 65.1113 28.3795 65.1467C29.4339 65.2047 30.4893 65.0534 31.485 64.7015L31.7886 64.5877H31.8301L31.8646 64.6084L36.2158 66.8167L36.0881 66.9272C35.6223 65.4848 35.1737 64.0873 34.7389 62.745V62.6933L34.7769 62.6553C35.8324 61.5922 36.616 60.2901 37.0612 58.8597C37.4644 57.5519 37.582 56.1728 37.4062 54.8156C37.2498 53.6094 36.862 52.4448 36.2641 51.3857C35.7487 50.4759 35.0838 49.6593 34.2972 48.9702C33.6483 48.4249 32.9301 47.9677 32.1613 47.6107C31.5796 47.3598 30.9737 47.169 30.3532 47.0414L29.6631 46.9275L29.1627 46.8895L28.8591 46.8688H28.7556C28.79 46.865 28.8247 46.865 28.8591 46.8688H29.1662L29.6665 46.8895L30.3566 46.9896C30.9849 47.1079 31.599 47.2918 32.1889 47.5383C32.9709 47.891 33.7021 48.3471 34.3628 48.8943C35.1638 49.5803 35.8428 50.397 36.371 51.3098C36.986 52.3803 37.3857 53.5606 37.5477 54.7845C37.7381 56.1627 37.6286 57.5657 37.2268 58.8976C36.7787 60.3579 35.983 61.6876 34.908 62.7726L34.9287 62.6829C35.3635 64.0252 35.8155 65.4227 36.2848 66.8616L36.3503 67.0721L36.1537 66.972L31.8024 64.7671H31.8784L31.5678 64.881C30.553 65.2381 29.478 65.3928 28.4036 65.3364C27.3607 65.2967 26.3344 65.0627 25.3774 64.6463C23.552 63.8645 22.0332 62.5057 21.0538 60.7782C20.6032 59.9803 20.274 59.1197 20.0773 58.2248C20.0234 58.0101 19.9831 57.7923 19.9565 57.5726C19.9289 57.3552 19.8841 57.1413 19.8737 56.9273C19.7803 55.6996 19.9101 54.465 20.2567 53.2835C20.4747 52.5736 20.777 51.8924 21.1574 51.2545C21.8013 50.1488 22.6728 49.1926 23.7142 48.4492C24.5009 47.893 25.3742 47.4709 26.2987 47.2001L26.8405 47.0621C26.9999 47.0251 27.1612 46.9963 27.3236 46.9758C27.5753 46.9292 27.8302 46.9015 28.0862 46.893L28.5589 46.8757C28.6126 46.8685 28.6668 46.865 28.7211 46.8654Z" fill="#FF3333"/>
<path d="M30.6879 54.9121H30.0495L28.6693 52.9729V51.6996C28.6693 51.6996 27.6824 51.6375 27.7997 53.3042C27.9171 54.9708 27.7997 54.5464 27.7997 54.5464C27.7997 54.5464 25.7052 54.5464 25.5327 54.7362C25.3602 54.926 25.3498 56.948 25.3257 58.0763C25.3124 58.3483 25.3905 58.617 25.5474 58.8395C25.7043 59.0621 25.9311 59.2258 26.1918 59.3048C26.2648 59.325 26.3402 59.3354 26.4161 59.3358C26.9405 59.3358 29.6079 58.9114 29.6079 58.9114H30.7086L30.6879 54.9121Z" fill="#FF3333"/>
<path d="M32.5133 54.5706L32.1199 58.9321H31.0295V54.6603L32.5133 54.5706Z" fill="#FF3333"/>
<path d="M45.5186 143.365V140.415L40.2288 140.377L40.184 144.838L40.5118 144.862C41.9714 144.956 47.9375 145.094 48.9174 144.79C50.0078 144.452 45.5186 143.365 45.5186 143.365Z" fill="#FF3333"/>
<path d="M49.0417 144.514C49.0417 144.562 47.0611 144.603 44.6215 144.603C42.1819 144.603 40.2013 144.562 40.2013 144.514C40.2013 144.465 42.1819 144.424 44.6215 144.424C47.0611 144.424 49.0417 144.465 49.0417 144.514Z" fill="#263238"/>
<path d="M45.6118 143.969C45.5669 143.944 45.6118 143.789 45.7187 143.624C45.8257 143.458 45.9706 143.389 46.0051 143.423C46.0396 143.458 45.9672 143.589 45.8637 143.731C45.7601 143.872 45.6566 143.993 45.6118 143.969Z" fill="#263238"/>
<path d="M45.9499 144.162C45.9016 144.162 45.9258 143.969 46.0293 143.786C46.1328 143.603 46.2708 143.492 46.3088 143.52C46.3468 143.548 46.2846 143.703 46.188 143.865C46.0914 144.027 45.9948 144.179 45.9499 144.162Z" fill="#263238"/>
<path d="M41.7954 144.5C41.7747 144.5 41.6954 144.438 41.5815 144.307C41.4425 144.138 41.2876 143.983 41.1191 143.844C40.9534 143.712 40.7559 143.625 40.5463 143.593C40.3841 143.572 40.2806 143.593 40.2703 143.572C40.2599 143.551 40.36 143.479 40.5498 143.465C40.8002 143.46 41.0445 143.543 41.2399 143.699C41.4229 143.849 41.5772 144.03 41.6954 144.234C41.7747 144.386 41.8161 144.486 41.7954 144.5Z" fill="#263238"/>
<path d="M45.629 143.413C45.6532 143.454 45.5635 143.558 45.4117 143.613C45.2598 143.668 45.1253 143.648 45.1184 143.613C45.1115 143.579 45.2184 143.506 45.3495 143.458C45.4807 143.41 45.6014 143.372 45.629 143.413Z" fill="#263238"/>
<path d="M45.5462 143.127C45.5462 143.178 45.4082 143.22 45.2288 143.223C45.0493 143.227 44.9079 143.185 44.9113 143.137C44.9148 143.089 45.0562 143.044 45.2288 143.04C45.4013 143.037 45.5393 143.078 45.5462 143.127Z" fill="#263238"/>
<path d="M58.5446 143.365V140.415L53.2548 140.377L53.21 144.793L53.5378 144.818C54.9974 144.911 60.9669 145.094 61.9434 144.79C63.0338 144.452 58.5446 143.365 58.5446 143.365Z" fill="#FF3333"/>
<path d="M62.0677 144.521C62.0677 144.569 60.0905 144.61 57.6475 144.61C55.2045 144.61 53.2307 144.569 53.2307 144.521C53.2307 144.472 55.2079 144.431 57.6475 144.431C60.0871 144.431 62.0677 144.472 62.0677 144.521Z" fill="#263238"/>
<path d="M58.6378 143.969C58.5963 143.944 58.6378 143.789 58.7447 143.624C58.8517 143.458 58.9966 143.389 59.0311 143.423C59.0656 143.458 58.9932 143.589 58.8896 143.731C58.7861 143.872 58.6826 143.993 58.6378 143.969Z" fill="#263238"/>
<path d="M58.976 144.162C58.9311 144.162 58.9518 143.969 59.0588 143.786C59.1658 143.603 59.3003 143.492 59.3383 143.52C59.3763 143.548 59.3107 143.703 59.2141 143.865C59.1175 144.027 59.0243 144.179 58.976 144.162Z" fill="#263238"/>
<path d="M54.8214 144.5C54.8007 144.5 54.7248 144.438 54.6075 144.307C54.4685 144.138 54.3136 143.983 54.1451 143.844C53.9794 143.712 53.7819 143.625 53.5723 143.593C53.4136 143.572 53.3066 143.593 53.2963 143.572C53.2859 143.551 53.386 143.479 53.5758 143.465C53.8262 143.46 54.0705 143.543 54.2659 143.699C54.4498 143.848 54.6043 144.029 54.7214 144.234C54.8007 144.386 54.8421 144.486 54.8214 144.5Z" fill="#263238"/>
<path d="M58.655 143.413C58.6792 143.454 58.5895 143.558 58.4377 143.613C58.2858 143.668 58.1513 143.648 58.1444 143.613C58.1375 143.579 58.2444 143.506 58.3755 143.458C58.5067 143.41 58.6274 143.372 58.655 143.413Z" fill="#263238"/>
<path d="M58.5792 143.127C58.5792 143.178 58.4411 143.22 58.2617 143.223C58.0823 143.227 57.9442 143.185 57.9477 143.137C57.9511 143.089 58.0892 143.044 58.2617 143.04C58.4342 143.037 58.5792 143.078 58.5792 143.127Z" fill="#263238"/>
<path d="M78.0336 55.7541C77.8956 55.6126 77.554 55.6816 77.554 55.6816C77.5882 55.4829 77.5882 55.2799 77.554 55.0812C77.4919 54.888 77.0571 54.9259 77.0571 54.9259C77.0371 54.7632 77.0371 54.5986 77.0571 54.4359C77.0606 54.3999 77.0528 54.3636 77.0349 54.3321C77.017 54.3006 76.9898 54.2754 76.957 54.26C76.7513 54.1761 76.5304 54.1361 76.3083 54.1426C76.0426 53.9529 77.1192 52.4449 77.5195 51.9619C77.9197 51.4788 77.8473 51.1027 77.4919 51.1027C77.2469 51.1027 75.9909 52.5519 75.6044 53.0384C75.2179 53.525 74.1931 54.8776 74.1586 53.7976C74.1241 52.7175 73.6893 51.9032 73.4167 51.7652C73.1441 51.6272 72.8543 51.9515 73.0026 52.2517C73.133 52.5928 73.2143 52.9506 73.2442 53.3145C73.2817 53.6044 73.2688 53.8985 73.2062 54.184C73.0918 54.7153 72.9361 55.2368 72.7404 55.7437H72.7128C72.7128 55.7437 65.1836 62.9658 64.6384 63.48C64.1518 63.9423 54.366 62.9313 52.4026 62.7243C51.7354 62.6266 51.0617 62.5805 50.3874 62.5863C49.5351 62.6242 49.3833 62.745 48.5344 62.7553C46.3907 62.7791 44.252 62.9672 42.137 63.3178C41.1794 63.4806 40.2848 63.9033 39.551 64.5398C38.8171 65.1763 38.2722 66.0021 37.9756 66.9271C35.9984 73.1037 31.5195 87.7239 30.7293 95.9363C30.1322 97.0191 29.5932 98.1329 29.1145 99.273C28.5589 100.784 28.6935 100.836 28.8798 100.871C29.3836 100.964 29.9564 98.2516 30.1703 98.9073C30.3843 99.5629 29.0834 102.14 29.6114 102.216C30.3015 102.313 30.8501 99.4559 30.9157 99.2282C30.9812 99.0004 31.3229 99.0729 31.2607 99.2868C31.1607 99.5905 30.1911 102.81 30.8674 102.913C31.24 102.969 31.2814 102.289 31.2814 102.289C31.2814 102.289 31.9716 99.2075 32.2856 99.2696C32.5996 99.3317 32.2649 101.15 32.1061 101.757C31.9474 102.365 32.1682 102.672 32.4926 102.523C32.7134 102.42 33.2414 100.574 33.3863 99.9735C33.5312 99.3731 33.8935 97.7099 34.3801 98.6726C34.8666 99.6353 35.605 100.194 35.9087 100.208C35.9771 100.2 36.0416 100.172 36.0939 100.127C36.1462 100.082 36.1838 100.023 36.202 99.9565C36.2202 99.89 36.2181 99.8197 36.1959 99.7544C36.1738 99.6892 36.1326 99.6321 36.0778 99.5905C35.8166 99.3354 35.5924 99.0451 35.4118 98.7278C35.2508 98.4807 35.1341 98.2075 35.0668 97.9204C34.9277 97.348 34.8468 96.763 34.8252 96.1744L34.77 95.8293C35.5429 92.0026 37.7686 80.7709 40.9811 73.5971L42.2992 76.3093L42.872 78.3175L39.3593 86.9889L54.3418 86.7922L52.1058 78.1864L54.8214 69.2149C57.7579 69.2804 65.2975 69.3908 66.5535 68.8215C68.1338 68.1314 76.3083 57.8072 76.3083 57.8072C76.8412 57.3931 77.3514 56.9508 77.8369 56.4821C77.8369 56.4821 78.3338 56.0646 78.0336 55.7541Z" fill="#FFBE9D"/>
<path d="M38.7002 80.5812C39.135 79.0974 41.3676 71.7615 41.3676 71.7615C41.3676 71.7615 42.4649 77.7413 42.175 78.4625C41.9084 79.0799 41.5934 79.6753 41.233 80.243C38.7002 84.0974 39.0315 86.0262 39.0315 86.0262L54.3349 85.5604C54.3694 83.421 53.103 78.4453 52.8408 77.6516C52.5786 76.858 53.4516 74.2597 53.4516 74.2597C53.4516 74.2597 55.1769 72.5033 55.1147 71.5993C55.082 70.7872 54.9816 69.9793 54.8145 69.1839L64.1312 69.5289L63.8379 63.2143L50.4564 61.8755C49.9906 63.1902 45.7774 62.5449 45.7774 62.5449C41.2295 62.6967 40.9466 63.5318 39.0557 65.0017C37.1647 66.4717 34.035 79.0871 34.035 79.0871L38.7002 80.5812Z" fill="#FF3333"/>
<path d="M47.7478 79.087C47.4825 79.1344 47.2124 79.1483 46.9438 79.1284C46.4434 79.1284 45.7568 79.0939 45.0011 79.018C44.2454 78.942 43.5622 78.8351 43.0756 78.7385C42.8074 78.7039 42.5443 78.6367 42.2924 78.5383C42.5621 78.5384 42.8313 78.5639 43.0963 78.6142C43.5863 78.6764 44.2661 78.7626 45.0183 78.8385C45.7706 78.9144 46.4538 78.9662 46.9472 79.0007C47.2162 79.0041 47.4842 79.033 47.7478 79.087Z" fill="#263238"/>
<path d="M48.7967 77.7861C48.5314 77.9161 48.2509 78.0123 47.9616 78.0725C46.585 78.4343 45.1647 78.6027 43.7416 78.5729C43.4471 78.5825 43.1526 78.5546 42.8651 78.49C43.1557 78.4533 43.4487 78.4384 43.7416 78.4452C44.2833 78.4279 45.0286 78.39 45.8499 78.2934C46.6711 78.1968 47.4026 78.0587 47.9202 77.9483C48.2077 77.8715 48.5008 77.8173 48.7967 77.7861Z" fill="#263238"/>
<path d="M53.9449 71.9823C53.938 72.2454 53.9021 72.5069 53.838 72.7621C53.7483 73.2418 53.6102 73.8974 53.4342 74.6151C53.2583 75.3328 53.0892 75.9953 52.9374 76.4439C52.8763 76.7007 52.786 76.9496 52.6682 77.1858C52.6874 76.9235 52.7361 76.6643 52.8131 76.4129C52.9443 75.8746 53.0926 75.2535 53.2583 74.5737C53.4239 73.8939 53.5826 73.2728 53.7137 72.7345C53.7605 72.4754 53.8381 72.2229 53.9449 71.9823Z" fill="#263238"/>
<path d="M38.8624 79.7013C38.0641 79.578 37.2763 79.3946 36.5056 79.1526C35.7182 78.9685 34.9454 78.7263 34.1937 78.428C34.9916 78.5533 35.7793 78.7366 36.5505 78.9766C37.3381 79.1601 38.1109 79.4023 38.8624 79.7013Z" fill="#263238"/>
<path d="M54.9801 69.1079C54.8499 69.1303 54.7169 69.1303 54.5867 69.1079C54.2263 69.0709 53.8724 68.9862 53.5343 68.856C52.9698 68.6439 52.4559 68.316 52.0257 67.8935C51.5955 67.471 51.2584 66.9632 51.0361 66.4026C50.7903 65.786 50.6854 65.1223 50.729 64.4599C50.7443 63.9136 50.9077 63.3817 51.2017 62.921C51.4085 62.6106 51.7173 62.3823 52.0747 62.2757C52.1702 62.2494 52.2689 62.2366 52.368 62.2377C52.437 62.2377 52.4715 62.2377 52.4715 62.2377C52.4715 62.2377 52.3266 62.2377 52.0954 62.3309C51.7675 62.452 51.4894 62.6791 51.3052 62.9762C50.8359 63.7146 50.7048 65.0638 51.2051 66.3233C51.438 66.9171 51.8026 67.4504 52.2714 67.8829C52.6555 68.2369 53.098 68.5217 53.5792 68.7249C54.0307 68.9033 54.5005 69.0318 54.9801 69.1079Z" fill="#263238"/>
<path d="M63.0235 69.4046C62.9372 68.3465 62.9096 67.2844 62.9407 66.2232C62.9137 65.1629 62.946 64.1019 63.0373 63.0452C63.1237 64.1022 63.1514 65.1631 63.1202 66.2232C63.1492 67.2846 63.1169 68.3469 63.0235 69.4046Z" fill="#263238"/>
<path d="M50.3666 62.2619C50.4046 61.4924 50.484 60.6229 50.484 60.6229C50.484 60.6229 52.3887 60.4124 52.5026 58.4455C52.6164 56.4787 52.5026 51.9411 52.5026 51.9411L49.052 50.1744L45.2218 53.1868L45.8119 63.021L49.3246 63.2453C49.5931 63.2527 49.8536 63.1534 50.0489 62.969C50.2443 62.7847 50.3585 62.5304 50.3666 62.2619Z" fill="#FFBE9D"/>
<path d="M50.7083 56.8894C50.7083 56.8894 50.7083 56.9273 50.6773 56.9722C50.6516 57.0047 50.6184 57.0305 50.5805 57.0473C50.5426 57.0642 50.5012 57.0715 50.4599 57.0688C50.239 57.0688 50.0251 56.8134 49.9492 56.5167C49.9131 56.3728 49.9131 56.2223 49.9492 56.0785C49.9563 56.0157 49.9789 55.9556 50.0151 55.9038C50.0512 55.852 50.0997 55.81 50.1562 55.7817C50.2026 55.7625 50.2547 55.7625 50.3011 55.7817C50.3355 55.7988 50.3634 55.8267 50.3805 55.8611C50.4047 55.9197 50.3805 55.9577 50.3805 55.9542C50.3805 55.9508 50.3805 55.9197 50.346 55.8852C50.328 55.8605 50.3014 55.8433 50.2715 55.837C50.2416 55.8306 50.2104 55.8355 50.1838 55.8507C50.1415 55.8763 50.1063 55.9122 50.0816 55.955C50.0569 55.9979 50.0434 56.0463 50.0423 56.0957C50.0133 56.2241 50.0133 56.3573 50.0423 56.4856C50.1114 56.7548 50.2977 56.9722 50.4633 56.9929C50.4957 56.9973 50.5287 56.9949 50.5601 56.986C50.5916 56.9771 50.6209 56.9618 50.6462 56.9411C50.6876 56.9135 50.7014 56.8859 50.7083 56.8894Z" fill="#EB996E"/>
<path d="M53.6862 50.8784C53.4205 49.9743 52.4578 49.5258 51.5814 49.2773C50.246 48.8977 48.8036 48.7321 47.4993 49.2118C46.195 49.6914 44.6284 50.5333 44.6284 51.9722C43.8589 51.9101 43.4172 52.583 43.1136 53.418C42.9194 53.9268 42.8031 54.4619 42.7685 55.0053C42.6719 56.8893 42.144 59.4911 40.9225 60.8713C40.2323 61.6408 39.2765 62.1722 38.8832 63.1315C38.5381 63.9631 38.7175 64.9499 38.3966 65.7919C38.1102 66.5338 37.4788 67.0617 37.0164 67.707C36.5453 68.439 36.2681 69.2787 36.2107 70.1473C36.1534 71.0159 36.3178 71.8848 36.6886 72.6724C37.062 73.4398 37.5877 74.1231 38.2337 74.6807C38.8798 75.2384 39.6326 75.6586 40.4463 75.9159C42.0581 76.4063 43.7768 76.4231 45.3979 75.9642C46.6145 75.6733 47.7494 75.1106 48.7174 74.3183C49.7078 73.5095 50.3881 72.3831 50.6428 71.13C50.8878 69.7221 50.4944 68.2901 50.2011 66.8892C49.2833 62.4621 49.5455 62.2309 50.7049 58.1212C50.7325 58.0487 50.7463 57.9728 50.767 57.9004C50.7877 57.8279 50.7981 57.7934 50.8119 57.7382C50.8448 57.5757 50.8621 57.4105 50.8636 57.2447C50.6943 57.3077 50.5105 57.321 50.3338 57.2831C50.1572 57.2452 49.995 57.1577 49.8664 57.0308C49.7375 56.8955 49.6476 56.7278 49.6063 56.5456C49.565 56.3633 49.5738 56.1733 49.6318 55.9956C49.7132 55.8013 49.8345 55.6263 49.9879 55.4818C50.1412 55.3374 50.3232 55.2268 50.522 55.1571C50.905 54.9984 51.3157 54.9156 51.6918 54.7396C52.4889 54.36 53.041 53.5733 53.4171 52.7486C53.7263 52.177 53.8217 51.514 53.6862 50.8784Z" fill="#263238"/>
<path d="M50.8463 56.9825C50.9192 57.0903 50.9794 57.2061 51.0257 57.3276C51.1293 57.545 51.2673 57.8521 51.4191 58.2075L51.4467 58.2731H51.3743L51.0292 58.3041C50.7911 58.3041 50.591 58.349 50.3563 58.3455C50.3359 58.3409 50.317 58.3313 50.3013 58.3174C50.2856 58.3035 50.2737 58.2859 50.2666 58.2662C50.2563 58.2348 50.2563 58.2009 50.2666 58.1696C50.2746 58.123 50.285 58.077 50.2977 58.0315L50.3598 57.7865C50.391 57.6231 50.4396 57.4635 50.5047 57.3103C50.4983 57.4769 50.474 57.6424 50.4322 57.8038L50.3839 58.0488C50.3667 58.1316 50.3356 58.2593 50.3839 58.2489C50.5565 58.2489 50.8015 58.211 51.0292 58.1972L51.3743 58.1661L51.3294 58.242C51.181 57.897 51.0568 57.5726 50.9843 57.3483C50.9208 57.2338 50.8743 57.1105 50.8463 56.9825Z" fill="#FF3333"/>
<path d="M39.0315 86.0261L54.3349 85.5603L60.9945 111.557L59.7696 141.377H51.6779L52.6682 112.192L46.7505 94.0936L47.6614 142.533L39.4835 142.654L38.6243 97.1233C38.5863 95.8569 38.1723 93.0032 38.3275 91.7472L39.0315 86.0261Z" fill="#263238"/>
<path d="M48.7863 94.4629C48.5358 94.4786 48.2844 94.4636 48.0375 94.418C47.5752 94.3628 46.9437 94.2662 46.2501 94.1281C45.5566 93.9901 44.9355 93.8314 44.4869 93.7037C44.2471 93.651 44.0151 93.5675 43.7968 93.4553C43.7968 93.4035 44.9216 93.6727 46.3019 93.9522C47.6821 94.2317 48.7932 94.4111 48.7863 94.4629Z" fill="#455A64"/>
<path d="M59.6868 139.742C59.6868 139.79 57.8545 139.831 55.5944 139.831C53.3343 139.831 51.4985 139.79 51.4985 139.742C51.4985 139.693 53.3308 139.652 55.5944 139.652C57.858 139.652 59.6868 139.69 59.6868 139.742Z" fill="#455A64"/>
<path d="M47.5889 141.274C47.5889 141.325 45.8084 141.363 43.6139 141.363C41.4193 141.363 39.6422 141.325 39.6422 141.274C39.6422 141.222 41.4227 141.184 43.6139 141.184C45.805 141.184 47.5889 141.225 47.5889 141.274Z" fill="#455A64"/>
<path d="M46.7888 141.28C46.7405 141.28 46.5265 130.697 46.3091 117.644C46.0918 104.59 45.9641 94 46.0089 94C46.0538 94 46.2746 104.58 46.4886 117.64C46.7025 130.701 46.8405 141.28 46.7888 141.28Z" fill="#455A64"/>
<path d="M58.5943 139.42C58.5905 139.373 58.5905 139.326 58.5943 139.279V138.865C58.5943 138.492 58.6219 137.957 58.6426 137.278C58.6909 135.897 58.7599 133.893 58.8462 131.436C59.0325 126.494 59.2948 119.683 59.5812 112.164C59.5812 112.092 59.5812 112.023 59.5812 111.961V111.985C57.7696 104.738 56.1306 98.1616 54.9401 93.4032L53.5599 87.7753C53.4011 87.1163 53.2804 86.6021 53.1941 86.2432C53.1527 86.0742 53.1251 85.943 53.1009 85.843C53.0875 85.7981 53.0794 85.7518 53.0768 85.705C53.0947 85.7484 53.1086 85.7935 53.1182 85.8395C53.1458 85.9361 53.1803 86.0673 53.2286 86.2329C53.3218 86.578 53.4563 87.1024 53.6289 87.7581C53.9739 89.09 54.4605 91.0085 55.0678 93.3722C56.2686 98.1271 57.9249 104.687 59.7606 111.943V111.967C59.7606 112.03 59.7606 112.102 59.7606 112.171C59.4535 119.69 59.174 126.498 58.9704 131.439C58.8634 133.899 58.7737 135.89 58.7116 137.278C58.6771 137.968 58.6495 138.492 58.6322 138.865C58.6322 139.041 58.6115 139.179 58.6081 139.279C58.6086 139.326 58.604 139.374 58.5943 139.42Z" fill="#455A64"/>
<path d="M55.9602 111.674C55.379 111.866 54.7802 111.998 54.1728 112.071C53.4274 112.199 52.7925 112.289 52.5061 112.302V112.233C52.5993 112.261 52.6476 112.278 52.6476 112.292C52.6476 112.306 52.5889 112.292 52.4923 112.292H52.2853L52.4923 112.23C52.7615 112.151 53.3964 112.019 54.1417 111.885C54.7395 111.755 55.3486 111.685 55.9602 111.674Z" fill="#455A64"/>
<path d="M55.7418 112.96C55.2036 112.985 54.6643 112.96 54.1304 112.887C53.5914 112.876 53.0545 112.818 52.5259 112.711C53.6043 112.623 54.6898 112.707 55.7418 112.96Z" fill="#455A64"/>
<path opacity="0.2" d="M38.9659 86.5748C39.1472 86.8075 39.3755 86.9994 39.6359 87.1379C39.8963 87.2765 40.183 87.3585 40.4773 87.3788C41.0936 87.4518 41.7171 87.4402 42.3303 87.3443C46.2812 86.906 50.4668 86.5023 54.3349 85.5603C49.3281 85.8398 44.0383 85.7466 39.0315 86.0261L38.9797 86.454" fill="black"/>
<g opacity="0.2">
<path d="M44.1245 93.6313L46.9471 104.584L46.7504 94.0937L44.1245 93.6313Z" fill="black"/>
</g>
</svg>
