<svg width="17" height="17" viewBox="0 0 17 17" fill="none" xmlns="http://www.w3.org/2000/svg">
<g id="Icon">
<path id="Vector" d="M2.39131 5.8079V5.97483H2.55824H14.5774H14.7444V5.8079V5.0567C14.7444 4.68038 14.5949 4.31946 14.3288 4.05336C14.0627 3.78726 13.7018 3.63777 13.3254 3.63777H3.81024C3.43392 3.63777 3.073 3.78726 2.8069 4.05336C2.5408 4.31946 2.39131 4.68038 2.39131 5.0567V5.8079ZM14.7444 6.8095V6.64257H14.5774H2.55824H2.39131V6.8095V11.5671C2.39131 11.9434 2.5408 12.3043 2.8069 12.5704C3.073 12.8365 3.43392 12.986 3.81024 12.986H13.3254C13.7018 12.986 14.0627 12.8365 14.3288 12.5704C14.5949 12.3043 14.7444 11.9434 14.7444 11.5671V6.8095ZM1.72357 5.0567C1.72357 4.50328 1.94342 3.97253 2.33474 3.5812C2.72607 3.18988 3.25682 2.97003 3.81024 2.97003H13.3254C13.8789 2.97003 14.4096 3.18988 14.8009 3.5812C15.1923 3.97253 15.4121 4.50328 15.4121 5.0567V11.5671C15.4121 12.1205 15.1923 12.6513 14.8009 13.0426C14.4096 13.4339 13.8789 13.6538 13.3254 13.6538H3.81024C3.25682 13.6538 2.72607 13.4339 2.33474 13.0426C1.94342 12.6513 1.72357 12.1205 1.72357 11.5671V5.0567ZM11.0718 9.98123H12.5742C12.6628 9.98123 12.7477 10.0164 12.8103 10.079C12.8729 10.1416 12.9081 10.2266 12.9081 10.3151C12.9081 10.4036 12.8729 10.4886 12.8103 10.5512C12.7477 10.6138 12.6628 10.649 12.5742 10.649H11.0718C10.9833 10.649 10.8984 10.6138 10.8358 10.5512C10.7731 10.4886 10.738 10.4036 10.738 10.3151C10.738 10.2266 10.7731 10.1416 10.8358 10.079C10.8984 10.0164 10.9833 9.98123 11.0718 9.98123Z" fill="#FF3333" stroke="#FF3333" stroke-width="0.333867"/>
</g>
</svg>
